<svg xmlns="http://www.w3.org/2000/svg" width="67" height="68" viewBox="0 0 67 68">
  <metadata><?xpacket begin="﻿" id="W5M0MpCehiHzreSzNTczkc9d"?>
<x:xmpmeta xmlns:x="adobe:ns:meta/" x:xmptk="Adobe XMP Core 5.6-c142 79.160924, 2017/07/13-01:06:39        ">
   <rdf:RDF xmlns:rdf="http://www.w3.org/1999/02/22-rdf-syntax-ns#">
      <rdf:Description rdf:about=""/>
   </rdf:RDF>
</x:xmpmeta>
                                                                                                    
                                                                                                    
                                                                                                    
                                                                                                    
                                                                                                    
                                                                                                    
                                                                                                    
                                                                                                    
                                                                                                    
                                                                                                    
                                                                                                    
                                                                                                    
                                                                                                    
                                                                                                    
                                                                                                    
                                                                                                    
                                                                                                    
                                                                                                    
                                                                                                    
                                                                                                    
                           
<?xpacket end="w"?></metadata>
<defs>
    <style>
      .cls-1, .cls-2 {
        fill: #fff;
      }

      .cls-1 {
        fill-opacity: 0;
        stroke: #fff;
        stroke-linecap: round;
        stroke-width: 2px;
        stroke-dasharray: 0.001 4;
      }

      .cls-2 {
        fill-rule: evenodd;
      }
    </style>
  </defs>
  <circle class="cls-1" cx="33.469" cy="33.594" r="33.563"/>
  <path id="Forma_1" data-name="Forma 1" class="cls-2" d="M26.764,32.621a6.422,6.422,0,0,0-9.891,0,8.614,8.614,0,0,0,0,11.052l4.945,5.633,4.945-5.633A8.613,8.613,0,0,0,26.764,32.621ZM25.9,42.9L21.819,47.54,17.742,42.9a7.4,7.4,0,0,1,0-9.5,5.269,5.269,0,0,1,8.153,0A7.4,7.4,0,0,1,25.9,42.9Zm16.949-12.89,3.749-4.261a6.466,6.466,0,0,0,0-8.313,4.877,4.877,0,0,0-7.5,0,6.466,6.466,0,0,0,0,8.313Zm-2.882-11.8a3.725,3.725,0,0,1,5.763,0,5.258,5.258,0,0,1,0,6.76l-2.881,3.275L39.963,24.97A5.258,5.258,0,0,1,39.963,18.21Zm5.119,29.346a0.58,0.58,0,0,0-.693.442,2.033,2.033,0,0,1-.385.814,0.588,0.588,0,0,0,.1.821,0.575,0.575,0,0,0,.814-0.1,3.237,3.237,0,0,0,.6-1.279A0.585,0.585,0,0,0,45.082,47.556ZM33.129,33.8a2.019,2.019,0,0,1-.726-0.135,0.581,0.581,0,0,0-.749.338,0.587,0.587,0,0,0,.335.755,3.177,3.177,0,0,0,1.138.211h0.207a0.585,0.585,0,0,0,0-1.169H33.129Zm-1.377-3.7a0.574,0.574,0,0,0,.306-0.089,2,2,0,0,1,.843-0.294,0.585,0.585,0,0,0-.127-1.163,3.13,3.13,0,0,0-1.33.464,0.588,0.588,0,0,0-.185.806A0.578,0.578,0,0,0,31.752,30.106Zm-6.7,19.487h-1.16a0.585,0.585,0,0,0,0,1.169h1.16A0.585,0.585,0,0,0,25.049,49.593Zm10.4-10.526c-0.05,0-.1,0-0.148,0a0.585,0.585,0,0,0,.023,1.169h0.024l1.136,0a0.585,0.585,0,0,0,0-1.169H35.448Zm-0.29-9.356h1.16a0.585,0.585,0,0,0,0-1.17h-1.16A0.585,0.585,0,0,0,35.158,29.71Zm7.125,9.356a0.585,0.585,0,0,0,0,1.169h1.16a0.585,0.585,0,0,0,0-1.169h-1.16Zm2.072-4.678a0.582,0.582,0,0,0-.58-0.585h-1.16a0.585,0.585,0,0,0,0,1.169h1.16A0.582,0.582,0,0,0,44.355,34.389ZM38.8,40.236h1.16a0.585,0.585,0,0,0,0-1.169H38.8A0.585,0.585,0,0,0,38.8,40.236ZM39.8,29.71a0.585,0.585,0,0,0,0-1.17h-1.16a0.585,0.585,0,0,0,0,1.17H39.8ZM35.655,33.8a0.585,0.585,0,0,0,0,1.169h1.16a0.585,0.585,0,0,0,0-1.169h-1.16Zm5.22,0.585A0.582,0.582,0,0,0,40.3,33.8h-1.16a0.585,0.585,0,0,0,0,1.169H40.3A0.582,0.582,0,0,0,40.875,34.389Zm8.163,2.124a0.58,0.58,0,1,0-1.145.185,1.941,1.941,0,0,1,.024.323,2.063,2.063,0,0,1-.082.578,0.581,0.581,0,1,0,1.113.329,3.247,3.247,0,0,0,.129-0.9A3.126,3.126,0,0,0,49.038,36.513ZM38.969,49.593h-1.16a0.585,0.585,0,0,0,0,1.169h1.16A0.585,0.585,0,0,0,38.969,49.593Zm-3.48,0h-1.16a0.585,0.585,0,0,0,0,1.169h1.16A0.585,0.585,0,0,0,35.489,49.593Zm6.38-4.678a0.582,0.582,0,0,0-.58-0.585h-1.16a0.585,0.585,0,0,0,0,1.17h1.16A0.582,0.582,0,0,0,41.869,44.914Zm-3.48,0a0.582,0.582,0,0,0-.58-0.585h-1.16a0.585,0.585,0,0,0,0,1.17h1.16A0.582,0.582,0,0,0,38.389,44.914Zm4.018,4.678H41.288a0.585,0.585,0,0,0,0,1.169h1.143l0.017-.585v0.585a0.565,0.565,0,0,0,.56-0.585A0.6,0.6,0,0,0,42.407,49.593ZM44.459,46.5a0.573,0.573,0,0,0,.358-0.125,0.588,0.588,0,0,0,.1-0.821,3.22,3.22,0,0,0-1.09-.893,0.577,0.577,0,0,0-.778.263,0.587,0.587,0,0,0,.261.784,2.044,2.044,0,0,1,.694.57A0.579,0.579,0,0,0,44.459,46.5Zm2.212-7.6a2,2,0,0,1-.784.159H45.762a0.585,0.585,0,0,0,0,1.169h0.125a3.148,3.148,0,0,0,1.232-.25,0.586,0.586,0,0,0,.31-0.765A0.578,0.578,0,0,0,46.671,38.908ZM30.829,33.134A0.587,0.587,0,0,0,31.2,32.4a2.059,2.059,0,0,1-.1-0.636,2.3,2.3,0,0,1,.016-0.263,0.58,0.58,0,1,0-1.151-.146,3.419,3.419,0,0,0-.026.406,3.245,3.245,0,0,0,.158,1,0.582,0.582,0,0,0,.551.4A0.563,0.563,0,0,0,30.829,33.134Zm-2.3,16.459h-1.16a0.585,0.585,0,0,0,0,1.169h1.16A0.585,0.585,0,0,0,28.529,49.593Zm5.833-4.331a0.579,0.579,0,0,0,.528-0.341,0.587,0.587,0,0,0-.286-0.775,2.054,2.054,0,0,1-.712-0.547,0.577,0.577,0,0,0-.817-0.072,0.588,0.588,0,0,0-.071.824,3.215,3.215,0,0,0,1.118.858A0.578,0.578,0,0,0,34.363,45.262ZM47.484,34.236a3.139,3.139,0,0,0-1.344-.423,0.585,0.585,0,0,0-.09,1.166,1.983,1.983,0,0,1,.853.268,0.569,0.569,0,0,0,.291.079,0.579,0.579,0,0,0,.5-0.291A0.587,0.587,0,0,0,47.484,34.236ZM32.009,49.593h-1.16a0.585,0.585,0,0,0,0,1.169h1.16A0.585,0.585,0,0,0,32.009,49.593Zm1.445-7.7a2.038,2.038,0,0,1,.359-0.827,0.587,0.587,0,0,0-.124-0.817,0.577,0.577,0,0,0-.811.124,3.219,3.219,0,0,0-.564,1.3,0.585,0.585,0,0,0,.461.685,0.548,0.548,0,0,0,.11.011A0.586,0.586,0,0,0,33.454,41.9Zm9.534-17.449a3.216,3.216,0,1,0-3.19-3.216A3.207,3.207,0,0,0,42.987,24.447Zm0-5.263a2.047,2.047,0,1,1-2.03,2.047A2.041,2.041,0,0,1,42.987,19.185ZM21.818,33.8a3.509,3.509,0,1,0,3.48,3.508A3.5,3.5,0,0,0,21.818,33.8Zm0,5.847a2.339,2.339,0,1,1,2.32-2.339A2.332,2.332,0,0,1,21.818,39.651Z"/>
</svg>
