<svg xmlns="http://www.w3.org/2000/svg" width="67" height="68" viewBox="0 0 67 68">
  <metadata><?xpacket begin="﻿" id="W5M0MpCehiHzreSzNTczkc9d"?>
<x:xmpmeta xmlns:x="adobe:ns:meta/" x:xmptk="Adobe XMP Core 5.6-c142 79.160924, 2017/07/13-01:06:39        ">
   <rdf:RDF xmlns:rdf="http://www.w3.org/1999/02/22-rdf-syntax-ns#">
      <rdf:Description rdf:about=""/>
   </rdf:RDF>
</x:xmpmeta>
                                                                                                    
                                                                                                    
                                                                                                    
                                                                                                    
                                                                                                    
                                                                                                    
                                                                                                    
                                                                                                    
                                                                                                    
                                                                                                    
                                                                                                    
                                                                                                    
                                                                                                    
                                                                                                    
                                                                                                    
                                                                                                    
                                                                                                    
                                                                                                    
                                                                                                    
                                                                                                    
                           
<?xpacket end="w"?></metadata>
<defs>
    <style>
      .cls-1, .cls-2 {
        fill: #fff;
      }

      .cls-1 {
        fill-opacity: 0;
        stroke: #fff;
        stroke-linecap: round;
        stroke-width: 2px;
        stroke-dasharray: 0.001 4;
      }

      .cls-2 {
        fill-rule: evenodd;
      }
    </style>
  </defs>
  <circle id="Ellipse_1_copy_2" data-name="Ellipse 1 copy 2" class="cls-1" cx="33.531" cy="33.594" r="33.469"/>
  <path id="Forma_1" data-name="Forma 1" class="cls-2" d="M33.538,18.662a14.93,14.93,0,0,0,0,29.861,0.679,0.679,0,0,0,0-1.357,13.666,13.666,0,1,1,2.569-.272,0.692,0.692,0,0,0,.27,1.358A14.937,14.937,0,0,0,33.538,18.662Zm2.839,3.054a0.667,0.667,0,0,0-.338,1.29,10.967,10.967,0,0,1,8.315,9.908H43.678a0.679,0.679,0,0,0,0,1.357h0.608A10.8,10.8,0,0,1,34.214,44.383V43.772a0.676,0.676,0,1,0-1.352,0v0.611A10.8,10.8,0,0,1,22.79,34.271H23.4a0.679,0.679,0,0,0,0-1.357H22.723a10.926,10.926,0,0,1,10.14-10.179v0.678a0.676,0.676,0,1,0,1.352,0V22.056a0.64,0.64,0,0,0-.676-0.678A12.183,12.183,0,1,0,36.378,21.716Zm3.245,11.266h-1.96l2.569-5.158A0.724,0.724,0,0,0,40.1,27.01a0.716,0.716,0,0,0-.811-0.136l-5.07,2.579V27.485a0.676,0.676,0,1,0-1.352,0v3.054a0.811,0.811,0,0,0,.338.611,0.613,0.613,0,0,0,.676,0l4.259-2.172-2.7,5.5-0.541-.542c0-.136.068-0.2,0.068-0.34a1.359,1.359,0,0,0-1.352-1.357,0.606,0.606,0,0,0-.338.068l-1.217-1.222a0.823,0.823,0,0,0-.608-0.2,0.863,0.863,0,0,0-.473.339l-0.879,1.7H27.455a0.679,0.679,0,0,0,0,1.357h1.96l-2.569,5.158a0.743,0.743,0,0,0,.135.815,0.613,0.613,0,0,0,.473.2,0.325,0.325,0,0,0,.271-0.068L32.862,37.8v1.9a0.676,0.676,0,1,0,1.352,0V36.646a0.811,0.811,0,0,0-.338-0.611,0.613,0.613,0,0,0-.676,0l-4.259,2.172,2.7-5.5,0.541,0.543c0,0.136-.068.2-0.068,0.339a1.359,1.359,0,0,0,1.352,1.358,0.606,0.606,0,0,0,.338-0.068L35.026,36.1a0.612,0.612,0,0,0,.473.2h0.135a0.859,0.859,0,0,0,.473-0.339l0.811-1.628h2.7A0.679,0.679,0,0,0,39.622,32.982Z"/>
</svg>
