<svg xmlns="http://www.w3.org/2000/svg" width="68" height="68" viewBox="0 0 68 68">
  <metadata><?xpacket begin="﻿" id="W5M0MpCehiHzreSzNTczkc9d"?>
<x:xmpmeta xmlns:x="adobe:ns:meta/" x:xmptk="Adobe XMP Core 5.6-c142 79.160924, 2017/07/13-01:06:39        ">
   <rdf:RDF xmlns:rdf="http://www.w3.org/1999/02/22-rdf-syntax-ns#">
      <rdf:Description rdf:about=""/>
   </rdf:RDF>
</x:xmpmeta>
                                                                                                    
                                                                                                    
                                                                                                    
                                                                                                    
                                                                                                    
                                                                                                    
                                                                                                    
                                                                                                    
                                                                                                    
                                                                                                    
                                                                                                    
                                                                                                    
                                                                                                    
                                                                                                    
                                                                                                    
                                                                                                    
                                                                                                    
                                                                                                    
                                                                                                    
                                                                                                    
                           
<?xpacket end="w"?></metadata>
<defs>
    <style>
      .cls-1, .cls-2 {
        fill: #fff;
      }

      .cls-1 {
        fill-opacity: 0;
        stroke: #fff;
        stroke-linecap: round;
        stroke-width: 2px;
        stroke-dasharray: 0.001 4;
      }

      .cls-2 {
        fill-rule: evenodd;
      }
    </style>
  </defs>
  <circle id="Ellipse_1_copy" data-name="Ellipse 1 copy" class="cls-1" cx="34" cy="33.594" r="33.469"/>
  <path id="Forma_1" data-name="Forma 1" class="cls-2" d="M33.619,43.787a6.671,6.671,0,0,1-3.135-.55,0.57,0.57,0,0,0-.767.227,0.556,0.556,0,0,0,.23.758q0.176,0.094.353,0.171a4.915,4.915,0,0,0-2.635,2.742,4.988,4.988,0,0,0-2.636-2.744,4.991,4.991,0,0,0,2.636-2.744c0.108,0.264.207,0.447,0.211,0.455a0.57,0.57,0,0,0,.762.244,0.556,0.556,0,0,0,.247-0.752,5.93,5.93,0,0,1-.607-2.887,0.609,0.609,0,0,0-.506-0.675,0.624,0.624,0,0,0-.719.468c-0.041.175,0.253,3.194-1.967,4.595a6.319,6.319,0,0,1-3.392.7,0.615,0.615,0,0,0,0,1.2,6.289,6.289,0,0,1,3.42.713c2.147,1.381,1.91,4.32,1.924,4.452a0.624,0.624,0,0,0,1.218.172c0.075-.229-0.239-3.144,1.881-4.577A5.951,5.951,0,0,1,33.567,45,0.615,0.615,0,0,0,33.619,43.787ZM52.726,32.879c-1.036-.114-8.418.91-11.644-5.776A15.68,15.68,0,0,1,39.728,20a0.7,0.7,0,0,0-.757-0.534,0.685,0.685,0,0,0-.625.658v1.451c-0.256,4.988-2.555,9.234-7.384,10.728a18.78,18.78,0,0,1-5.661.588,0.691,0.691,0,0,0,.008,1.352c0.632,0.132,5.386-.629,9.078,2.4a0.572,0.572,0,0,0,.8-0.073,0.554,0.554,0,0,0-.074-0.788,11.367,11.367,0,0,0-4.523-2.212c4.574-1.137,7.382-4.36,8.457-8.875,1.066,4.487,3.85,7.738,8.474,8.87a11.19,11.19,0,0,0-8.48,8.853A13.108,13.108,0,0,0,37,37.806a0.571,0.571,0,0,0-.789-0.134,0.555,0.555,0,0,0-.136.779,10.749,10.749,0,0,1,.93,1.575,15.486,15.486,0,0,1,1.341,7.02,0.7,0.7,0,0,0,1.392-.155c-0.078-1.854.068-8.135,5.207-11.114,3.468-2.01,7.326-1.423,7.841-1.537A0.691,0.691,0,0,0,52.726,32.879Zm-25.65-9.2c-0.383-.078-3.407.45-4.758-2.24a6.246,6.246,0,0,1-.582-2.841,0.609,0.609,0,0,0-.507-0.675,0.624,0.624,0,0,0-.718.469c-0.04.174,0.253,3.193-1.967,4.594a6,6,0,0,1-3.329.685,0.615,0.615,0,0,0-.063,1.212,6.282,6.282,0,0,1,3.421.714A4.768,4.768,0,0,1,20.5,29.437a3.169,3.169,0,0,0,.027.786,0.626,0.626,0,0,0,1.209-.074,6.756,6.756,0,0,1,.6-3.052,0.556,0.556,0,0,0-.251-0.751,0.57,0.57,0,0,0-.761.248q-0.108.211-.2,0.437a4.987,4.987,0,0,0-2.637-2.746,4.992,4.992,0,0,0,2.636-2.744,4.938,4.938,0,0,0,2.634,2.746c-0.124.054-.247,0.113-0.37,0.179a0.555,0.555,0,0,0-.229.757,0.571,0.571,0,0,0,.768.226,6.369,6.369,0,0,1,3.1-.553A0.616,0.616,0,0,0,27.075,23.682Z"/>
</svg>
