<svg xmlns="http://www.w3.org/2000/svg" viewBox="0 0 347 307" width="347" height="307">
	<style>
		tspan { white-space:pre }
		.shp0 { fill: #7f7f7f } 
	</style>
	<g id="Layer">
		<g id="Layer">
			<path id="Layer" class="shp0" d="M346.8,63v89.2c0,7.6 -6,14 -14,14h-7.6v126c0,7.6 -6,14 -14,14h-275.6c-7.6,0 -14,-6 -14,-14v-126h-7.6c-7.6,0 -14,-6 -14,-14v-89.2c0,-7.6 6,-14 14,-14h110.4v-16c0,-18 21.6,-32.4 49.2,-32.4c27.6,0 49.2,14 49.2,32.4v16h110c7.6,0 14,6 14,14zM138.4,48.6h70.4v-16c0,-8.8 -14.4,-18.4 -35.2,-18.4c-20.8,0 -35.2,9.6 -35.2,18.4zM311.2,166.2h-31.6v14c0,7.6 -6,14 -14,14h-8.8c-7.6,0 -14,-6 -14,-14v-14h-138.8v14c0,7.6 -6,14 -14,14h-8.4c-7.6,0 -14,-6 -14,-14v-14h-31.6v126h275.2zM90,180.6v-42.8h-8.4v42.8zM265.6,180.6v-42.8h-8.4v42.8zM333.6,63h-319.6v89.2h53.6v-14c0,-7.6 6,-14 14,-14h8.4c7.6,0 14,6 14,14v14h139.6v-14c0,-7.6 6,-14 14,-14h8.4c7.6,0 14,6 14,14v14h53.6z" />
		</g>
	</g>
</svg>