<svg xmlns="http://www.w3.org/2000/svg" viewBox="0 0 513 513" width="513" height="513">
	<style>
		tspan { white-space:pre }
		.shp0 { fill: #7f7f7f } 
	</style>
	<g id="Layer">
		<g id="Layer">
			<g id="Layer">
				<path id="Layer" class="shp0" d="M460.8,68.3c0,-9.4 -7.7,-17.1 -17.1,-17.1c-9.4,0 -17.1,7.7 -17.1,17.1c0,9.4 7.7,17.1 17.1,17.1c9.4,-0.1 17.1,-7.7 17.1,-17.1z" />
				<path id="Layer" class="shp0" d="M435.2,153.6c-4.7,0 -8.5,3.8 -8.5,8.5v307.2c0,14.1 -11.5,25.6 -25.6,25.6h-290.2c-14.1,0 -25.6,-11.5 -25.6,-25.6v-298.6h315.7c4.7,0 8.5,-3.8 8.5,-8.5c0,-4.7 -3.8,-8.5 -8.5,-8.5h-324.2c-4.7,0 -8.5,3.8 -8.5,8.5v307.2c0,23.5 19.1,42.7 42.7,42.7h290.1c23.5,0 42.7,-19.1 42.7,-42.7v-307.3c-0.1,-4.7 -3.9,-8.5 -8.6,-8.5z" />
				<path id="Layer" class="shp0" d="M384,76.8c4.7,0 8.5,-3.8 8.5,-8.5c0,-4.7 -3.8,-8.5 -8.5,-8.5h-85.3c-4.7,0 -8.5,3.8 -8.5,8.5c0,4.7 3.8,8.5 8.5,8.5z" />
				<path id="Layer" class="shp0" d="M460.8,196.3c0,4.7 3.8,8.5 8.5,8.5c4.7,0 8.5,-3.8 8.5,-8.5v-68.3c0,-4.7 -3.8,-8.5 -8.5,-8.5h-426.6c-4.7,0 -8.5,3.8 -8.5,8.5v68.3c0,4.7 3.8,8.5 8.5,8.5c4.7,0 8.5,-3.8 8.5,-8.5v-59.7h409.6z" />
				<path id="Layer" class="shp0" d="M168,188.1c-4.5,-1.3 -9.3,1.3 -10.5,5.9c-2.6,9 -3.9,18.4 -3.9,27.9c0,56.5 45.9,102.4 102.4,102.4c56.5,0 102.4,-45.9 102.4,-102.4c0,-9.5 -1.3,-18.9 -3.9,-27.9c-1.3,-4.5 -6,-7.1 -10.5,-5.9c-4.5,1.3 -7.2,6 -5.9,10.5c2.1,7.5 3.2,15.4 3.2,23.3c0,47.1 -38.3,85.3 -85.3,85.3c-47,0 -85.3,-38.3 -85.3,-85.3c0,-7.9 1.1,-15.7 3.2,-23.3c1.3,-4.5 -1.4,-9.3 -5.9,-10.5z" />
				<path id="Layer" class="shp0" d="M469.3,0h-426.6c-23.6,0 -42.7,19.1 -42.7,42.7v187.7c0,23.5 19.1,42.7 42.7,42.7c4.7,0 8.5,-3.8 8.5,-8.5c0,-4.7 -3.8,-8.5 -8.5,-8.5c-14.1,0 -25.6,-11.5 -25.6,-25.6v-187.8c0,-14.1 11.5,-25.6 25.6,-25.6h426.7c14.1,0 25.6,11.5 25.6,25.6v187.7c0,14.1 -11.5,25.6 -25.6,25.6c-4.7,0 -8.5,3.8 -8.5,8.5c0,4.7 3.8,8.5 8.5,8.5c23.5,0 42.7,-19.1 42.7,-42.7v-187.6c-0.1,-23.6 -19.2,-42.7 -42.8,-42.7z" />
				<path id="Layer" class="shp0" d="M110.9,187.7c-4.7,0 -8.5,3.8 -8.5,8.5v221.9c0,4.7 3.8,8.5 8.5,8.5c23.5,0 42.7,19.1 42.7,42.7c0,4.7 3.8,8.5 8.5,8.5h187.7c4.7,0 8.5,-3.8 8.5,-8.5c0,-23.5 19.1,-42.7 42.7,-42.7c4.7,0 8.5,-3.8 8.5,-8.5v-221.8c0,-4.7 -3.8,-8.5 -8.5,-8.5c-4.7,0 -8.5,3.8 -8.5,8.5v213.9c-26.1,3.8 -46.8,24.5 -50.6,50.6h-171.8c-3.7,-26.1 -24.5,-46.8 -50.6,-50.6v-213.9c0,-4.7 -3.8,-8.6 -8.6,-8.6z" />
				<path id="Layer" class="shp0" d="M230.4,204.8c4.7,0 8.5,-3.8 8.5,-8.5c0,-4.7 -3.8,-8.5 -8.5,-8.5c-15.9,0 -29.1,10.9 -32.9,25.6h-1.2c-4.7,0 -8.5,3.8 -8.5,8.5c0,4.7 3.8,8.5 8.5,8.5h1.2c3.8,14.7 17.1,25.6 32.9,25.6c18.8,0 34.1,-15.3 34.1,-34.1c0,-9.4 7.7,-17.1 17.1,-17.1c9.4,0 17.1,7.7 17.1,17.1c0,9.4 -7.7,17.1 -17.1,17.1c-4.7,0 -8.5,3.8 -8.5,8.5c0,4.7 3.8,8.5 8.5,8.5c15.9,0 29.1,-10.9 32.9,-25.6h1.2c4.7,0 8.5,-3.8 8.5,-8.5c0,-4.7 -3.8,-8.5 -8.5,-8.5h-1.2c-3.8,-14.7 -17.1,-25.6 -32.9,-25.6c-18.8,0 -34.1,15.3 -34.1,34.1c0,9.4 -7.7,17.1 -17.1,17.1c-9.4,0 -17.1,-7.7 -17.1,-17.1c0,-9.4 7.7,-17.1 17.1,-17.1z" />
			</g>
		</g>
	</g>
</svg>