<svg xmlns="http://www.w3.org/2000/svg" viewBox="0 0 420 331" width="420" height="331">
	<style>
		tspan { white-space:pre }
		.shp0 { fill: #7f7f7f } 
	</style>
	<g id="Layer">
		<g id="Layer">
			<path id="Layer" class="shp0" d="M419.2,172.8v140c0,9.6 -8,17.6 -17.6,17.6h-25.6c-9.6,0 -17.6,-8 -17.6,-17.6v-46.4h-296v46.4c0,9.6 -8,17.6 -17.6,17.6h-27.2c-9.6,0 -17.6,-8 -17.6,-17.6v-139.2c0,-9.6 8,-17.6 17.6,-17.6h20c0,-0.8 0,-136.8 0,-137.6c0,-9.6 8,-17.6 17.6,-17.6h308c9.6,0 17.6,8 17.6,17.6c0,0.8 0,136.8 0,137.6h20.8c9.6,0 17.6,7.2 17.6,16.8zM54.4,154.4c0,0.8 0.8,1.6 0.8,1.6h12.8c0,-0.8 0,-54.4 0,-55.2c0,-9.6 8,-17.6 17.6,-17.6h114.4c4,0 7.2,0.8 9.6,2.4c3.2,-1.6 6.4,-2.4 9.6,-2.4h114.4c9.6,0 17.6,8 17.6,17.6c0,0.8 0,54.4 0,55.2h12.8c0.8,0 1.6,-0.8 1.6,-1.6v-136c0,-0.8 -0.8,-1.6 -1.6,-1.6h-308c-0.8,0 -1.6,0.8 -1.6,1.6zM334.4,99.2h-115.2c-0.8,0 -1.6,0.8 -1.6,1.6v53.6c0,0.8 0.8,1.6 1.6,1.6h115.2c0.8,0 1.6,-0.8 1.6,-1.6v-53.6c0,-0.8 -0.8,-1.6 -1.6,-1.6zM200.8,99.2h-115.2c-0.8,0 -1.6,0.8 -1.6,1.6v53.6c0,0.8 0.8,1.6 1.6,1.6h115.2c0.8,0 1.6,-0.8 1.6,-1.6v-53.6c0,-0.8 -0.8,-1.6 -1.6,-1.6zM403.2,172.8c0,-0.8 -0.8,-1.6 -1.6,-1.6h-384c-0.8,0 -1.6,0.8 -1.6,1.6v140c0,0.8 0.8,1.6 1.6,1.6h25.6c0.8,0 1.6,-0.8 1.6,-1.6v-54.4c0,-4.8 3.2,-8 8,-8h312c4.8,0 8,3.2 8,8v54.4c0,0.8 0.8,1.6 1.6,1.6h27.2c0.8,0 1.6,-0.8 1.6,-1.6z" />
		</g>
	</g>
</svg>