<svg xmlns="http://www.w3.org/2000/svg" viewBox="0 0 320 416" width="320" height="416">
	<style>
		tspan { white-space:pre }
		.shp0 { fill: #7f7f7f } 
	</style>
	<g id="Layer">
		<g id="Layer">
			<g id="Layer">
				<path id="Layer" class="shp0" d="M320,40v288c0,13.2 -6.4,24.8 -16,32v28c0,15.6 -12.4,28 -28,28h-8c-15.6,0 -28,-12.4 -28,-28v-20h-160v20c0,15.6 -12.4,28 -28,28h-8c-15.6,0 -28,-12.4 -28,-28v-28c0,-0.8 0.4,-1.6 0.4,-2c-9.6,-7.2 -16.4,-17.6 -16.4,-30v-288c0,-22 18,-40 40,-40h240c22,0 40,18 40,40zM64,368h-20c-4,0 -8,-0.8 -12,-2v22c0,6.8 5.2,12 12,12h8c6.8,0 12,-5.2 12,-12zM288,367.2c-2.4,0.4 -5.2,0.8 -8,0.8h-24v20c0,6.8 5.2,12 12,12h8c6.8,0 12,-5.2 12,-12zM304,256h-288v72c0,13.2 15.2,24 28,24h236c13.2,0 24,-10.8 24,-24zM304,80h-288v160h288zM304,40c0,-13.2 -10.8,-24 -24,-24h-240c-13.2,0 -24,10.8 -24,24v24h288z" />
				<path id="Layer" class="shp0" d="M144,32h-52c-4.4,0 -8,3.6 -8,8c0,4.4 3.6,8 8,8h52c4.4,0 8,-3.6 8,-8c0,-4.4 -3.6,-8 -8,-8z" />
				<path id="Layer" class="shp0" d="M192,32h-12c-4.4,0 -8,3.6 -8,8c0,4.4 3.6,8 8,8h12c4.4,0 8,-3.6 8,-8c0,-4.4 -3.6,-8 -8,-8z" />
				<path id="Layer" class="shp0" d="M36,300c0,-13.2 10.8,-24 24,-24c13.2,0 24,10.8 24,24c0,13.2 -10.8,24 -24,24c-13.2,0 -24,-10.8 -24,-24zM52,300c0,4.4 3.6,8 8,8c4.4,0 8,-3.6 8,-8c0,-4.4 -3.6,-8 -8,-8c-4.4,0 -8,3.6 -8,8z" />
				<path id="Layer" class="shp0" d="M236,300c0,-13.2 10.8,-24 24,-24c13.2,0 24,10.8 24,24c0,13.2 -10.8,24 -24,24c-13.2,0 -24,-10.8 -24,-24zM252,300c0,4.4 3.6,8 8,8c4.4,0 8,-3.6 8,-8c0,-4.4 -3.6,-8 -8,-8c-4.4,0 -8,3.6 -8,8z" />
			</g>
		</g>
	</g>
</svg>