<svg xmlns="http://www.w3.org/2000/svg" viewBox="0 0 504 504" width="504" height="504">
	<style>
		tspan { white-space:pre }
		.shp0 { fill: #7f7f7f } 
	</style>
	<g id="Layer">
		<g id="Layer">
			<g id="Layer">
				<path id="Layer" class="shp0" d="M344.2,436.5v42c0,14.3 -10.9,25.2 -25.2,25.2h-16.8c-14.3,0 -25.2,-10.9 -25.2,-25.2v-42h-184.6v42c0,14.3 -10.9,25.2 -25.2,25.2h-16.8c-14.3,0 -25.2,-10.9 -25.2,-25.2v-42c-14.3,0 -25.2,-10.9 -25.2,-25.2v-92.3c0,-14.3 10.9,-25.2 25.2,-25.2h4.2c3.4,0 6.7,-2.5 8.4,-5.9l29.4,-102.4v-0.8c6.7,-15.1 21.8,-25.2 38.6,-25.2h157.7c16.8,0 31.9,10.1 38.6,25.2v0.8l29.4,102.4c0.8,3.4 4.2,5.9 8.4,5.9h4.2c14.3,0 25.2,10.9 25.2,25.2v92.3c0,14.2 -10.9,25.2 -25.1,25.2zM75.6,436.4h-33.6v42c0,5 3.4,8.4 8.4,8.4h16.7c5,0 8.4,-3.4 8.4,-8.4zM327.3,436.4h-33.6v42c0,5 3.4,8.4 8.4,8.4h16.8c5,0 8.4,-3.4 8.4,-8.4zM352.6,319c0,-5 -3.4,-8.4 -8.4,-8.4h-4.2c-10.9,0 -20.9,-7.6 -24.3,-18.5l-29.4,-101.6c-4.2,-9.3 -13.5,-14.3 -22.7,-14.3h-157.8c-10.1,0 -18.5,5.9 -22.7,14.3l-29.4,101.6c-3.3,10.9 -13.4,18.5 -24.3,18.5h-4.2c-5,0 -8.4,3.4 -8.4,8.4v92.3c0,5 3.4,8.4 8.4,8.4h318.9c5,0 8.4,-3.4 8.4,-8.4z" />
				<path id="Layer" class="shp0" d="M109.1,360.9c0,18.5 -15.1,33.6 -33.6,33.6c-18.5,0 -33.6,-15.1 -33.6,-33.6c0,-18.5 15.1,-33.6 33.6,-33.6c18.5,0 33.6,15.1 33.6,33.6zM92.3,360.9c0,-9.2 -7.6,-16.8 -16.8,-16.8c-9.2,0 -16.8,7.6 -16.8,16.8c0,9.2 7.6,16.8 16.8,16.8c9.3,0 16.8,-7.6 16.8,-16.8z" />
				<path id="Layer" class="shp0" d="M327.4,360.9c0,18.5 -15.1,33.6 -33.6,33.6c-18.5,0 -33.6,-15.1 -33.6,-33.6c0,-18.5 15.1,-33.6 33.6,-33.6c18.4,0 33.6,15.1 33.6,33.6zM310.6,360.9c0,-9.2 -7.6,-16.8 -16.8,-16.8c-9.2,0 -16.8,7.6 -16.8,16.8c0,9.2 7.6,16.8 16.8,16.8c9.2,0 16.8,-7.6 16.8,-16.8z" />
				<path id="Layer" class="shp0" d="M201.4,369.3h-33.6c-5,0 -8.4,3.4 -8.4,8.4c0,5 3.4,8.4 8.4,8.4h33.6c5,0 8.4,-3.4 8.4,-8.4c0,-5 -3.3,-8.4 -8.4,-8.4z" />
				<path id="Layer" class="shp0" d="M218.2,335.7h-67.1c-5,0 -8.4,3.4 -8.4,8.4c0,5 3.4,8.4 8.4,8.4h67.1c5,0 8.4,-3.4 8.4,-8.4c0,-5 -3.3,-8.4 -8.4,-8.4z" />
				<path id="Layer" class="shp0" d="M90.7,287.1c-3.3,-4.2 -4.2,-10.1 -2.5,-15.1l20.1,-67.1c2.5,-7.6 8.3,-11.8 15.9,-11.8h121.8c7.5,0 14.2,5.1 15.9,11.8l20.1,67.1c1.7,5 0.8,10.9 -2.5,15.1c-3.3,4.2 -8.4,6.7 -13.4,6.7h-162c-5.1,0 -10.1,-2.5 -13.4,-6.7zM104,276.9h162l-20.1,-67.1h-121.7z" />
				<path id="Layer" class="shp0" d="M503.5,8.4v142.7c0,5 -3.4,8.4 -8.4,8.4h-67.1v260.2h16.8c5,0 8.4,3.4 8.4,8.4v25.2h16.8c5,0 8.4,3.4 8.4,8.4v33.6c0,5 -3.4,8.4 -8.4,8.4h-100.7c-5,0 -8.4,-3.4 -8.4,-8.4v-33.6c0,-5 3.4,-8.4 8.4,-8.4h16.8v-25.2c0,-5 3.4,-8.4 8.4,-8.4h16.8v-260.2h-58.8c-5,0 -8.4,-3.4 -8.4,-8.4v-142.7c0,-5 3.4,-8.4 8.4,-8.4h142.7c5,0 8.4,3.4 8.3,8.4zM461.7,470h-84v16.8h83.9zM436.5,436.4h-33.6v16.8h33.6zM486.8,16.8h-125.9v125.9h125.9z" />
				<path id="Layer" class="shp0" d="M402.9,117.5v-75.6c0,-5 3.4,-8.4 8.4,-8.4h16.8c18.5,0 33.6,15.1 33.6,33.6c0,18.5 -15.1,33.6 -33.6,33.6h-8.4v16.8c0,5 -3.4,8.4 -8.4,8.4c-5.1,0 -8.4,-3.4 -8.4,-8.4zM428.1,50.4h-8.4v33.5h8.4c9.2,0 16.8,-7.6 16.8,-16.8c0,-9.2 -7.6,-16.7 -16.8,-16.7z" />
			</g>
		</g>
	</g>
</svg>