<svg xmlns="http://www.w3.org/2000/svg" viewBox="0 0 514 421" width="514" height="421">
	<style>
		tspan { white-space:pre }
		.shp0 { fill: #7f7f7f } 
	</style>
	<g id="Layer">
		<g id="Layer">
			<path id="Layer" class="shp0" d="M479.3,173.1c-0.4,-0.2 -39,-14 -75.9,-15.3l11.8,173.7c14.3,-4.4 28.6,-9.5 42.6,-15c6.6,-2.6 13.1,-3.9 19.2,-3.9c16.2,0 28.9,9.3 31.5,23.2c2.3,11.7 -3.5,28.8 -27,38c-71.5,28.1 -147.1,43.8 -224.6,46.7c-8.4,0.3 -16.9,0.5 -25.3,0.5c-70,0 -139.1,-10.6 -205.5,-31.4c-19.8,-6.2 -26.7,-21.7 -24.8,-34.3c2.3,-15.1 15.9,-25.6 33.1,-25.6c4.9,0 10,0.8 15.2,2.4c8.6,2.7 17.3,5.1 26,7.4l17.7,-118.9c-2.8,0.6 -5.9,1.1 -9.2,1.3c-14.2,1 -35.2,-2.4 -54.4,-24.2c-2.7,-3 -3.3,-7.4 -1.5,-11c1.8,-3.7 5.6,-5.9 9.6,-5.6c20,1.3 31,-9.5 44.9,-23.1c17.4,-17 39,-38.2 83.4,-35.4c15.9,1.1 27.9,6.1 39.6,10.9c20.6,8.6 40.2,16.7 84.4,5.1c4.3,-1.2 7.7,-2.8 10.3,-5c0.1,-0.1 0.1,-0.1 0.1,-0.1c7.8,-6.6 9,-18.3 10.2,-37.3c2.5,-38.5 6,-91.2 115,-95.2c2.9,-0.1 5.6,1 7.6,3c2,2.1 3,4.9 2.8,7.7l-2,28.5c23.5,18.1 61.3,61.8 77.4,87.3c2.1,3.3 2,7.5 -0.1,10.8l-20.2,30.9c-2.6,3.9 -7.5,5.6 -11.9,3.9zM200.3,152.8c2,17.1 11.5,31.6 27,40.8c18.1,10.8 40.7,11.5 54.9,1.7c11.1,-7.7 16.6,-20.8 16.2,-38.4c-1,0.3 -2,0.6 -3.1,0.9c-49,12.9 -73.7,3.8 -95,-5zM255.2,379c-7.8,0.3 -15.8,0.4 -23.6,0.4c-40.9,0 -81.6,-3.9 -121.5,-11.6c-0.2,0 -0.3,-0.1 -0.5,-0.1c-9.3,-1.8 -18.5,-3.8 -27.7,-6c-0.2,-0.1 -0.5,-0.1 -0.7,-0.2c-12.5,-3.1 -25,-6.5 -37.4,-10.3c-3.3,-1 -6.4,-1.5 -9.3,-1.5c-8.4,0 -12.7,4.3 -13.4,8.6c-0.8,5.1 3.4,9.8 11,12.2c64.4,20.2 131.5,30.5 199.4,30.5c8.2,0 16.4,-0.2 24.6,-0.5c75.3,-2.8 148.6,-18 218,-45.3c11.4,-4.5 15.6,-11.1 14.7,-15.7c-0.8,-4.2 -5.4,-6.9 -11.8,-6.9c-3.6,0 -7.6,0.8 -11.8,2.5c-66.8,26.5 -137.5,41.2 -210,43.9zM231.6,359.4c7.6,0 15.3,-0.1 22.9,-0.4c39,-1.5 77.5,-6.5 115.1,-15.1l-26.5,-49.3l-7.6,-14.1c-29.1,12.7 -56.9,15.4 -83,8.1c-17.8,-5 -31.3,-13.7 -41.1,-21c-16.9,32.9 -42,38.2 -63.2,35l-21.9,47.8c34.6,6 69.8,9 105.3,9zM478.7,151.9l12.4,-19c-19,-27.9 -55.3,-67.7 -72.9,-79.5c-3,-2 -4.7,-5.4 -4.4,-9l1.6,-22.8c-80,5.8 -82.2,39.9 -84.6,75.9c-1.1,16.7 -2.3,34.9 -13.3,47.4c5.2,40.1 -12.5,59 -23.9,66.8c-10.2,6.9 -22.7,10.4 -35.7,10.4c-13.7,0 -28,-3.8 -40.8,-11.4c-23.8,-14.1 -37.4,-38.2 -37.2,-65.6c-4.7,-1.3 -9.6,-2.2 -15,-2.6c-35.5,-2.3 -51.3,13.3 -68.1,29.7c-10.2,10.1 -20.7,20.3 -35.2,25.5c6.6,3.2 13.7,4.6 21.1,4.1c10.4,-0.7 17.7,-4.9 17.8,-4.9c3.3,-2 7.5,-1.9 10.7,0.3c3.2,2.2 4.9,6 4.3,9.8l-20.4,137.2c3.6,0.9 7.3,1.6 10.9,2.4l27.4,-59.6c2,-4.4 6.9,-6.7 11.6,-5.5c25.7,6.6 42.1,-3.7 53.3,-33.3c1.1,-3 3.6,-5.3 6.7,-6.1c3.1,-0.8 6.4,-0.1 8.9,1.9l1.7,1.4c17.2,13.9 52.2,42.3 110.5,17.4l-2.4,-4.4c-2.6,-4.8 -0.8,-10.9 4.1,-13.5c4.8,-2.6 10.9,-0.8 13.5,4.1l7.4,13.7l40.9,76.3c2,-0.5 4,-1 6,-1.6l-12.8,-188.8c-0.2,-2.7 0.7,-5.4 2.5,-7.4c1.8,-2 4.4,-3.2 7.1,-3.3c33.9,-1.2 70.7,9 86.3,14z" />
		</g>
	</g>
</svg>