<svg xmlns="http://www.w3.org/2000/svg" viewBox="0 0 323 306" width="323" height="306">
	<style>
		tspan { white-space:pre }
		.shp0 { fill: #7f7f7f } 
	</style>
	<g id="Layer">
		<g id="Layer">
			<g id="Layer">
				<path id="Layer" class="shp0" d="M322,177.8c-1.2,1.6 -2.8,2.8 -4.8,2.8c-9.2,0 -88,3.6 -88,95.2c0,2.8 -2.4,5.2 -5.2,5.2c-2.8,0 -5.2,-2.4 -5.2,-5.2c0,-92 -78.8,-95.2 -88,-95.2c-0.4,0 -0.4,0 -0.4,0c-2,0 -4,-1.2 -4.8,-2.8c-0.8,-1.6 -0.8,-3.6 0,-5.2c0.4,-0.4 0.8,-1.2 1.6,-1.6c0.8,-0.8 2,-1.2 3.2,-1.2c8.8,0 88,-3.2 88,-95.2c0,-2.8 2.4,-5.2 5.2,-5.2c2.8,0 5.2,2.4 5.2,5.2c0,92 79.2,95.2 88.4,95.2c1.6,0.4 3.6,1.2 4.4,2.8c1.2,1.6 1.2,3.6 0.4,5.2zM286,175c-22.4,-7.2 -50.8,-23.6 -62.4,-61.6c-11.6,38 -40,54.4 -62.4,61.6c22.4,7.2 50.8,23.6 62.4,61.6c11.6,-38 40,-54.4 62.4,-61.6z" />
				<path id="Layer" class="shp0" d="M157.2,68.6c-4.8,0 -48,1.6 -48,52c0,2.8 -2.4,5.2 -4.8,4.8c-2.8,0 -5.2,-2.4 -5.2,-5.2c0,-50.4 -42.8,-52 -48,-52c-2.8,0 -5.2,-2.4 -5.2,-5.2c0,-2.8 2,-4.8 4.8,-5.2c0,0 0,0 0.4,0c4.8,0 48,-1.6 48,-52c0,-2.8 2.4,-5.2 5.2,-5.2c2.8,0 5.2,2.4 5.2,5.2c0,50.4 43.2,52 48,52c2.8,0 5.2,2.4 5.2,5.2c0,3.2 -2.4,5.6 -5.2,5.6zM132.8,63c-10.8,-4.8 -22.4,-13.2 -28.8,-28.4c-6.4,14.4 -17.2,23.6 -28.8,28.4c10.8,4.8 22.4,13.2 28.8,28.4c6.4,-14.4 17.2,-23.6 28.8,-28.4z" />
				<path id="Layer" class="shp0" d="M116.8,243.4c0,3.2 -2.4,5.6 -5.2,5.6h-0.4c-4.8,0 -48,1.6 -48,52c0,3.2 -2.4,5.6 -4.8,4.8c-2.8,0 -5.2,-2.4 -5.2,-5.2c0,-50.4 -42.8,-52 -48,-52c-2.8,0 -5.2,-2.4 -5.2,-5.2c0,-2.8 2,-4.8 4.8,-5.2c0,0 0,0 0.4,0c4.8,0 48,-1.6 48,-52c0,-2.8 2.4,-5.2 5.2,-5.2c2.8,0 5.2,2.4 5.2,5.2c0,50.4 43.2,52 48,52c2.8,0 5.2,2.4 5.2,5.2zM86.8,243.8c-10.8,-4.8 -22.4,-13.2 -28.8,-28.4c-6.4,14.4 -17.2,23.6 -28.8,28.4c10.8,4.8 22,13.2 28.8,28.4c6.4,-14.4 17.2,-23.6 28.8,-28.4z" />
			</g>
		</g>
	</g>
</svg>