<svg xmlns="http://www.w3.org/2000/svg" viewBox="0 0 506 512" width="506" height="512">
	<style>
		tspan { white-space:pre }
		.shp0 { fill: #7f7f7f } 
	</style>
	<g id="Layer">
		<g id="Layer">
			<g id="Layer">
				<path id="Layer" class="shp0" d="M476.8,464.4c0,10.6 -7,18.6 -19.4,21.2h-0.9l-120.1,7.9c-2.7,0 -5.3,1.8 -6.2,4.4c-3.6,8.8 -12.4,14.1 -22.1,14.1h-146.5c-9.8,0 -18.6,-5.3 -23,-14.1c-0.9,-2.6 -3.6,-4.4 -6.2,-4.4l-112.1,-7.9c-12.3,-2.7 -19.4,-10.6 -19.4,-21.2c0,-13.3 10.6,-23 23,-23h108.5c-96.6,-38.6 -113.1,-134.6 -113.8,-229.5c0,-4.5 1.8,-8.9 5.3,-12.4c3.6,-3.5 8,-5.3 12.4,-5.3h406.1c4.5,0 8.9,1.8 12.4,5.3c3.5,3.6 5.3,8 5.3,12.4c0,0.3 0,0.5 0,0.8c25.4,5.1 45,34.6 45,69.8c0,49.7 -29.3,103.6 -94.5,113.5c-16,18.9 -37,34.4 -64.4,45.4h107.6c13.3,0 23,10.6 23,23zM428.8,369.6c-0.7,1.3 -1.5,2.5 -2.2,3.8c44,-15 59.9,-56.5 59.9,-90.9c0,-24.7 -11.5,-45.9 -26.5,-51.2c-1.7,44.5 -6.8,95.8 -31.2,138.3zM239.4,441.4c176.5,0 202.1,-110.3 203,-229.5h-406.1c0.9,119.1 26.6,229.5 203.1,229.5zM460,464.4c0,-2.7 -2.7,-5.3 -5.3,-5.3h-430.8c-2.7,0 -5.3,2.7 -5.3,5.3c0,0.9 0,2.6 4.4,3.5l110.3,7.9c8.8,0.9 16.8,6.2 21.2,14.1c1.8,2.6 4.5,4.4 7.1,4.4h147.4c2.7,0 5.3,-1.8 7.1,-4.4c4.4,-7.9 12.4,-13.2 21.2,-14.1l118.3,-7.9c4.4,-0.9 4.4,-2.7 4.4,-3.5z" />
				<path id="Layer" class="shp0" d="M233.1,73.3c-13.2,13.2 -20.3,26.5 -20.3,40.6c0,14.1 7.1,28.2 20.3,42.4c1.8,1.8 3.5,2.6 6.2,2.6c2.7,0 4.4,-0.9 6.2,-2.6c3.5,-3.5 3.5,-8.8 0,-12.4c-9.7,-10.6 -15,-20.3 -15,-30c0,-9.7 5.3,-19.4 15,-28.2c13.2,-12.4 20.3,-26.5 20.3,-40.6c0,-14.1 -6.2,-29.1 -20.3,-42.4c-3.5,-3.5 -8.8,-3.5 -12.4,0c-3.5,3.5 -3.5,8.8 0,12.4c9.7,10.6 15,20.3 15,30c0,9.7 -5.3,19.3 -15,28.2z" />
				<path id="Layer" class="shp0" d="M309.9,113.9c0,14.1 7.1,28.2 20.3,42.4c1.8,1.8 3.5,2.6 6.2,2.6c1.8,0 4.4,-0.9 5.3,-2.6c3.5,-3.5 3.5,-8.8 0,-12.4c-9.7,-10.6 -15,-20.3 -15,-30c0,-9.7 5.3,-19.4 15,-28.2c14.1,-12.4 21.2,-26.5 21.2,-40.6c0,-15 -6.2,-29.1 -20.3,-42.4c-3.5,-3.5 -8.8,-3.5 -12.4,0c-3.6,3.5 -3.5,8.8 0,12.4c9.7,10.6 15,20.3 15,30c0,9.7 -5.3,18.5 -15,28.2c-13.2,13.2 -20.3,26.5 -20.3,40.6z" />
				<path id="Layer" class="shp0" d="M124.6,113.9c0,14.1 7.1,28.2 20.3,42.4c1.8,1.8 3.5,2.6 6.2,2.6c1.8,0 4.4,-0.9 5.3,-2.6c3.5,-3.5 3.5,-8.8 0,-12.4c-9.7,-10.6 -15,-20.3 -15,-30c0,-9.7 5.3,-19.4 15,-28.2c14.1,-12.4 21.2,-26.5 21.2,-40.6c0,-15 -6.2,-29.1 -20.3,-42.4c-3.5,-3.5 -8.8,-3.5 -12.4,0c-3.5,3.5 -3.5,8.8 0,12.4c9.7,10.6 15,20.3 15,30c0,9.7 -5.3,18.5 -15,28.2c-13.3,13.2 -20.3,26.5 -20.3,40.6z" />
				<path id="Layer" class="shp0" d="M188.1,397.2c-62.7,-10.6 -94.5,-45.9 -107.7,-116.5c-0.9,-4.4 -6.2,-7.9 -10.6,-7.1c-4.4,0.8 -7.9,6.2 -7.1,10.6c14.1,78.6 52.1,118.3 121.8,130.6c0.9,0 0.9,0 1.8,0c4.4,0 7.9,-2.6 8.8,-7.1c1,-5.2 -2.6,-9.6 -7,-10.5z" />
			</g>
		</g>
	</g>
</svg>