<?xml version="1.0" encoding="utf-8"?>
<!-- Generator: Adobe Illustrator 22.0.1, SVG Export Plug-In . SVG Version: 6.00 Build 0)  -->
<svg version="1.1" id="Layer_1" xmlns="http://www.w3.org/2000/svg" xmlns:xlink="http://www.w3.org/1999/xlink" x="0px" y="0px"
	 viewBox="0 0 203.4 29" style="enable-background:new 0 0 203.4 29;" xml:space="preserve">
<style type="text/css">
	.st0{fill:#EF4136;}
	.st1{fill:#B5B3AD;}
	.st2{fill:#D1D3D4;}
	.st3{fill:#00B04C;}
	.st4{fill:#D2DE26;}
	.st5{fill:#16ACE3;}
	.st6{fill:#FED727;}
	.st7{fill:#5FCBED;}
	.st8{fill:#EF5BA1;}
	.st9{fill:#FAA836;}
	.st10{fill:#F287B7;}
	.st11{fill:#606062;}
</style>
<g>
	<g>
		<path class="st0" d="M16.5,11.8l2.7-9.4l-4.4,8.7C15.4,11.1,16,11.4,16.5,11.8z"/>
		<path class="st1" d="M17.7,11.2c-1.8-1.8-4.7-1.8-6.5,0s-1.8,4.7,0,6.5c0.3,0.3,0.6,0.5,0.9,0.7l-2.3,8.2l3.8-7.6
			c1.5,0.3,3-0.1,4.2-1.3C19.5,16,19.5,13,17.7,11.2z M16.9,16.9c-0.8,0.8-1.8,1.1-2.8,1c-0.1,0-0.1,0-0.2,0l0,0
			c-0.1,0-0.3-0.1-0.4-0.1l0,0c-0.1,0-0.1,0-0.2-0.1l0,0c-0.1-0.1-0.3-0.1-0.4-0.2l0,0c-0.1-0.1-0.3-0.2-0.4-0.3
			c-0.1-0.1-0.2-0.2-0.4-0.3c-1.3-1.3-1.3-3.5,0-4.9c1.3-1.3,3.5-1.3,4.9,0C18.2,13.4,18.2,15.6,16.9,16.9z"/>
		<g>
			<g>
				<path class="st2" d="M8.9,16.2l-4.8,2.9l5.4-1.6C9.3,17,9.1,16.6,8.9,16.2z"/>
				<path class="st2" d="M12.8,9L9.9,4.2l1.6,5.4C11.9,9.3,12.4,9.1,12.8,9z"/>
				<path class="st2" d="M20,12.8l4.8-2.9l-5.4,1.6C19.7,12,19.9,12.4,20,12.8z"/>
				<path class="st2" d="M17.4,19.5c-0.4,0.2-0.8,0.4-1.3,0.6l2.9,4.8L17.4,19.5z"/>
				<path class="st2" d="M9.4,11.8l-5.5-1.4l4.9,2.7C9,12.6,9.2,12.2,9.4,11.8z"/>
				<path class="st2" d="M20.1,15.9c-0.1,0.5-0.3,0.9-0.5,1.3l5.5,1.4L20.1,15.9z"/>
			</g>
		</g>
		<path class="st3" d="M28.9,18.1l-1.8-4l1.6-4c0.1-0.3,0-0.7-0.4-0.8l0,0c-0.3-0.1-0.7,0-0.8,0.4l-1.5,4l-4,0.7l4,0.5l1.7,3.9
			c0.1,0.3,0.5,0.5,0.9,0.3l0,0C28.9,18.8,29,18.4,28.9,18.1z"/>
		<path class="st4" d="M27.2,6.9l-4-1.5l-1.8-4c-0.1-0.3-0.5-0.5-0.9-0.3l0,0C20.2,1.2,20,1.6,20.2,2l1.7,3.9l-2.4,3.3l3.2-2.5
			l4,1.5c0.3,0.1,0.7,0,0.8-0.4l0,0C27.7,7.4,27.5,7,27.2,6.9z"/>
		<path class="st5" d="M27.9,20.6L27.9,20.6c-0.1-0.3-0.5-0.5-0.9-0.3L23.2,22l-3.3-2.4l2.5,3.2l-1.5,4c-0.1,0.3,0,0.7,0.4,0.8l0,0
			c0.3,0.1,0.7,0,0.8-0.4l1.5-4l4-1.8C27.9,21.3,28.1,20.9,27.9,20.6z"/>
		<path class="st6" d="M18.9,0.4L18.9,0.4c-0.1-0.3-0.5-0.5-0.9-0.3l-4,1.8l-4-1.6c-0.3-0.1-0.7,0-0.8,0.4l0,0
			C9.1,1,9.2,1.4,9.6,1.5l4,1.5l0.7,4l0.5-4l3.9-1.7C18.9,1.2,19.1,0.8,18.9,0.4z"/>
		<path class="st7" d="M19.3,27.5l-4-1.5l-0.7-4l-0.5,4l-3.9,1.7c-0.3,0.1-0.5,0.5-0.3,0.9l0,0c0.1,0.3,0.5,0.5,0.9,0.3l4-1.8l4,1.6
			c0.3,0.1,0.7,0,0.8-0.4C19.8,28,19.6,27.6,19.3,27.5z"/>
		<path class="st8" d="M7,23.2l2.3-3.3l-3.2,2.5l-4-1.5c-0.3-0.1-0.7,0-0.8,0.4l0,0c-0.1,0.3,0,0.7,0.4,0.8l4,1.6l1.8,4
			C7.6,28,8,28.2,8.4,28l0,0c0.3-0.1,0.5-0.5,0.3-0.9L7,23.2z"/>
		<path class="st9" d="M9.1,9.4L6.6,6.2l1.5-4c0.1-0.3,0-0.7-0.4-0.8l0,0C7.4,1.3,7,1.4,6.9,1.8l-1.6,4L1.4,7.6
			C1.1,7.7,0.9,8.1,1.1,8.5l0,0C1.2,8.8,1.6,9,2,8.8l3.9-1.7L9.1,9.4z"/>
		<path class="st10" d="M7,14.7l-4-0.5l-1.7-3.9C1.2,10,0.8,9.8,0.4,10l0,0c-0.3,0.1-0.5,0.5-0.3,0.9l1.8,4l-1.5,4
			c-0.1,0.3,0,0.7,0.4,0.8l0,0c0.3,0.1,0.7,0,0.8-0.4l1.5-4L7,14.7z"/>
		<circle class="st0" cx="14.5" cy="14.5" r="2.2"/>
	</g>
	<g>
		<g>
			<path class="st11" d="M37.9,9.5c0-1.2,0.8-1.4,4-1.4c4.5,0,7.3,2.4,7.3,6.3c0,3.9-2.6,6.4-7.5,6.4c-2.6,0-3.7-0.2-3.8-0.2V9.5z
				 M40.1,18.8c0.1,0.1,0.8,0.1,1.9,0.1c3.3,0,5-1.6,5-4.4c0-2.6-1.5-4.4-5-4.4c-1.1,0-1.8,0.1-1.9,0.1V18.8z"/>
			<path class="st11" d="M53.4,8.8c0,0.7-0.5,1.2-1.2,1.2S51,9.5,51,8.8s0.5-1.2,1.2-1.2S53.4,8.1,53.4,8.8z M51.1,12.6
				c0-0.7,0.4-1,1.1-1c0.4,0,0.8,0.1,1,0.2v8.8h-2L51.1,12.6L51.1,12.6z"/>
			<path class="st11" d="M55.6,18.4c0.3,0.2,1.8,0.9,3.7,0.9c1.2,0,2.1-0.3,2.1-1.1c0-0.7-0.4-1-1.7-1.1l-1.4-0.2
				c-1.9-0.2-3.3-1-3.3-2.7c0-1.5,1.1-2.8,4.1-2.8c2.5,0,3.9,0.6,3.9,1.5c0,0.5-0.5,0.9-0.6,1c-0.2-0.2-1.3-0.9-3.3-0.9
				c-1.4,0-2.1,0.4-2.1,1.1c0,0.6,0.5,0.9,1.5,1l1.8,0.2c2,0.3,3.1,1,3.1,2.6c0,1.8-1.5,3-4.2,3c-2.6,0-4.3-0.9-4.5-1.1L55.6,18.4z"
				/>
			<path class="st11" d="M73.1,20c-0.6,0.4-1.6,0.9-3.3,0.9c-2.7,0-4.9-1.7-4.9-4.7c0-3.1,2.1-4.8,4.9-4.8c2.4,0,3.2,0.8,3.2,1.5
				c0,0.5-0.4,0.9-0.7,1.1c-0.4-0.4-1.2-0.9-2.4-0.9c-1.6,0-2.9,1-2.9,2.9c0,2.1,1.4,3,3,3c1.2,0,1.9-0.5,2.2-0.6L73.1,20z"/>
			<path class="st11" d="M83.6,16.1c0,2.7-2.1,4.8-4.9,4.8s-4.9-2.1-4.9-4.8s2.1-4.8,4.9-4.8C81.5,11.4,83.6,13.4,83.6,16.1z
				 M81.5,16.1c0-1.7-1.1-3-2.8-3s-2.8,1.3-2.8,3S77,19,78.7,19S81.5,17.8,81.5,16.1z"/>
			<path class="st11" d="M88.2,20.7c-2.3-4.2-3.8-7.5-3.8-8.1c0-0.5,0.3-0.9,1-0.9c0.5,0,0.8,0.1,0.9,0.2c1,2.6,2.3,5.4,2.9,6.7
				c0.9-1.7,2.3-5,2.6-5.9c0.2-0.6,0.5-1,1.2-1s1.1,0.3,1.2,0.4c-0.4,1.5-3,6.8-4,8.6H88.2L88.2,20.7z"/>
			<path class="st11" d="M103.3,20c-0.4,0.3-1.7,0.9-3.6,0.9c-2.7,0-4.8-1.7-4.8-4.7c0-2.9,2.1-4.8,4.9-4.8c2.5,0,3.9,1.4,3.9,3
				c0,1.7-1.1,2.8-5.2,2.8c-0.5,0-0.9,0-1.4,0c0.2,1.2,1.2,2,3,2c1.2,0,2.1-0.5,2.4-0.6L103.3,20z M98.6,15.7c2.7,0,3.1-0.7,3.1-1.4
				c0-0.9-0.8-1.4-1.9-1.4c-1.8,0-2.7,1.4-2.8,2.8C97.6,15.7,98.1,15.7,98.6,15.7z"/>
			<path class="st11" d="M105.2,14.8c0-2.2,1.4-3.5,3.8-3.5c1.5,0,2.5,0.4,2.5,1.3c0,0.4-0.3,0.9-0.5,1c-0.4-0.2-1-0.4-1.8-0.4
				c-1.4,0-2.1,0.7-2.1,2.2v5.2h-2L105.2,14.8L105.2,14.8z"/>
		</g>
	</g>
	<g>
		<g>
			<path class="st11" d="M113.5,20.7c1.2-3.2,3-7.5,4.7-11.4c0.4-1,0.9-1.3,1.8-1.3c0.6,0,1.2,0.3,1.3,0.4c1.1,2,4.6,10.7,5.2,12.2
				h-2.3c-0.2-0.6-0.8-2.3-1.2-3.2h-6c-0.5,1.3-1,2.5-1.2,3.2L113.5,20.7L113.5,20.7z M122.2,15.6c-0.7-1.8-1.8-4.5-2.3-5.4
				c-0.6,1.3-1.6,3.5-2.3,5.4H122.2z"/>
			<path class="st11" d="M127.1,18.9c1.6-1.4,4.5-4.1,5.8-5.4h-4.8c-0.8,0-1.1-0.3-1.1-0.9c0-0.4,0.2-0.8,0.2-1h7.3
				c0.7,0,1.1,0.3,1.1,1c0,0.5-0.2,0.8-0.8,1.4c-1.2,1.2-4.1,3.8-5.3,4.8h6.1v1.8h-8.7L127.1,18.9L127.1,18.9z"/>
			<path class="st11" d="M144.9,20c-0.4,0.3-1.7,0.9-3.6,0.9c-2.7,0-4.8-1.7-4.8-4.7c0-2.9,2.1-4.8,4.9-4.8c2.5,0,3.9,1.4,3.9,3
				c0,1.7-1.1,2.8-5.2,2.8c-0.5,0-0.9,0-1.4,0c0.2,1.2,1.2,2,3,2c1.2,0,2.1-0.5,2.4-0.6L144.9,20z M140.1,15.7
				c2.7,0,3.1-0.7,3.1-1.4c0-0.9-0.8-1.4-1.9-1.4c-1.8,0-2.7,1.4-2.8,2.8C139.1,15.7,139.6,15.7,140.1,15.7z"/>
			<path class="st11" d="M146.8,14.9c0-2.2,1.4-3.5,3.8-3.5c1.5,0,2.5,0.4,2.5,1.3c0,0.4-0.3,0.9-0.5,1c-0.4-0.2-1-0.4-1.8-0.4
				c-1.4,0-2.1,0.7-2.1,2.2v5.2h-2L146.8,14.9L146.8,14.9z"/>
			<path class="st11" d="M154,8.4c0-0.6,0.4-1,1.1-1c0.4,0,0.8,0.1,1,0.2v5.1c0.6-0.8,1.7-1.4,3.1-1.4c2.6,0,4.6,2,4.6,4.8
				s-2,4.8-4.8,4.8s-4.8-1.7-4.8-5.2L154,8.4L154,8.4z M161.6,16.1c0-1.7-1.1-2.9-2.8-2.9s-2.8,1.3-2.8,2.9c0,1.7,1.1,2.9,2.8,2.9
				C160.5,19.1,161.6,17.8,161.6,16.1z"/>
			<path class="st11" d="M173.6,20.6c-0.5,0.1-2.1,0.3-4,0.3c-3.7,0-4.6-1.4-4.6-2.9c0-2,1.1-3,4.3-3c0.9,0,1.8,0.1,2.2,0.1
				c0-1.7-1.1-2.1-2.8-2.1c-1.4,0-2.2,0.4-2.5,0.6c-0.1-0.1-0.5-0.5-0.5-1c0-0.7,0.6-1.3,3-1.3c2.8,0,4.8,1,4.8,3.8L173.6,20.6
				L173.6,20.6z M171.5,16.6c-0.2,0-0.8-0.2-2.2-0.2c-1.6,0-2.3,0.5-2.3,1.5c0,0.9,0.6,1.4,2.5,1.4c1.1,0,1.7-0.1,2-0.2V16.6
				L171.5,16.6z"/>
			<path class="st11" d="M178,8.8c0,0.7-0.5,1.2-1.2,1.2s-1.2-0.5-1.2-1.2s0.5-1.2,1.2-1.2S178,8.1,178,8.8z M175.8,12.6
				c0-0.7,0.4-1,1.1-1c0.4,0,0.8,0.1,1,0.2v8.8h-2L175.8,12.6L175.8,12.6z"/>
			<path class="st11" d="M177.2,22.5c0.3,0.1,0.8,0.3,1.3,0.3c0.8,0,1.6-0.3,1.6-1.6v-8.5c0-0.7,0.4-1,1.1-1c0.4,0,0.8,0.1,1,0.2V21
				c0,2.7-1.6,3.4-3.3,3.4c-1,0-1.9-0.3-2.2-0.5L177.2,22.5z M182.4,8.8c0,0.7-0.5,1.2-1.2,1.2S180,9.5,180,8.8s0.5-1.2,1.2-1.2
				C181.8,7.6,182.4,8.1,182.4,8.8z"/>
			<path class="st11" d="M192.4,20.6c-0.5,0.1-2.1,0.3-4,0.3c-3.7,0-4.6-1.4-4.6-2.9c0-2,1.1-3,4.3-3c0.9,0,1.8,0.1,2.2,0.1
				c0-1.7-1.1-2.1-2.8-2.1c-1.4,0-2.2,0.4-2.5,0.6c-0.1-0.1-0.5-0.5-0.5-1c0-0.7,0.6-1.3,3-1.3c2.8,0,4.8,1,4.8,3.8L192.4,20.6
				L192.4,20.6z M190.4,16.6c-0.2,0-0.8-0.2-2.2-0.2c-1.6,0-2.3,0.5-2.3,1.5c0,0.9,0.6,1.4,2.5,1.4c1.1,0,1.7-0.1,2-0.2V16.6
				L190.4,16.6z"/>
			<path class="st11" d="M194.6,15.2c0-2.4,1.9-3.8,4.4-3.8s4.4,1.4,4.4,3.8v5.4h-2v-4.9c0-1.6-0.8-2.5-2.3-2.5
				c-1.6,0-2.3,0.9-2.3,2.5v4.9h-2v-5.4H194.6z"/>
		</g>
	</g>
</g>
</svg>
