<svg xmlns="http://www.w3.org/2000/svg" viewBox="0 0 512 512" width="512" height="512">
	<style>
		tspan { white-space:pre }
		.shp0 { fill: #7f7f7f } 
	</style>
	<g id="Layer">
		<g id="Layer">
			<g id="Layer">
				<path id="Layer" class="shp0" d="M502.8,348.1l-128.9,102.4c-8.6,7.7 -18,12.8 -28.2,14.5c-3.4,0.8 -7.6,1.7 -11.9,1.7l-110.9,17.1c-17.1,0.9 -35,2.6 -52.1,2.6h-110.9v25.6h-59.7v-222.1h59.8v17.9c23.5,-15 71.6,-40.1 102.4,-17c13.6,10.3 30.7,15.4 48.6,15.4h33.3c24.7,0 47.7,12 61.4,31.6c7.7,11.1 9.4,20.5 5.1,28.2c21.3,0 44.4,-1.7 54.6,-7.7l73.4,-45.2c37.6,-19.6 52.9,-19.6 68.3,0.9c7.6,10.3 5.9,25.6 -4.3,34.1zM42.8,307.2h-25.6v187.7h25.6zM494.2,326.8c-6.8,-10.3 -10.3,-14.5 -46.1,3.4l-73.4,45.2c-19.6,10.2 -57.2,11.1 -97.3,10.2c-1.7,0 -3.4,0 -4.3,0c-1.6,0 -3,0 -4.3,0c-2.8,0 -80.9,0 -82.7,0c-25.6,0 -25.6,12.8 -25.6,17.1c0,5.1 -3.4,8.5 -8.5,8.5c-5.1,0 -8.5,-3.4 -8.5,-8.5c0,-21.3 16.2,-34.1 42.7,-34.1c1.7,0 80.6,0 82.8,0c1.1,0 2.3,0 3.4,0c11.1,-0.8 21.3,-2.5 23.9,-6.8c0.9,-1.7 0,-6.8 -3.4,-11.9c-11.1,-17.1 -29,-25.6 -48.6,-25.6h-33.3c-21.4,0 -42.7,-6.9 -58.9,-18.8c-23.9,-18.8 -71.7,8.5 -92.2,23v141h110.8c16.2,0 33.3,-0.8 49.5,-3.4l112.6,-17.1c3.4,0 6,0 9.4,-0.9h0.9c6.9,-0.9 12.8,-4.3 18.8,-9.4l0.9,-0.9l129.7,-100.7c3.5,-2.6 3.5,-7.7 1.7,-10.3z" />
				<path id="Layer" class="shp0" d="M36,226.8c-1.8,-2.5 -1.8,-6 -0.9,-8.5c0.9,-2.5 4.3,-5.1 7.7,-5.1h17.4c4.3,-101.5 85.9,-183.1 187.5,-187.5v-8.7h-17.1c-5.1,0 -8.5,-3.4 -8.5,-8.5c0,-5.1 3.4,-8.5 8.5,-8.5h51.2c5.1,0 8.4,3.5 8.4,8.6c0,5.1 -3.4,8.5 -8.5,8.5h-17.1v8.7c101.5,4.3 183.1,85.9 187.5,187.5h17.3c3.4,0 6,1.8 7.7,4.3c1.7,2.5 0.8,5.9 -0.9,8.5l-30.7,42.7c-0.8,2.6 -3.4,4.3 -6.8,4.3h-365.2c-2.5,0 -5.1,-1.7 -6.8,-3.4zM77,213.4h358.4c-4.3,-94.8 -82.8,-170.7 -179.2,-170.7c-95.6,0 -174.1,75.9 -179.2,170.7zM59.9,230.4l17.9,25.6h356.7l17.9,-25.6z" />
				<path id="Layer" class="shp0" d="M256.2,59.7c-57.2,0 -110.9,30.7 -140.8,81.1c-1.7,4.3 -0.9,9.4 3.4,11.9c1.7,0.9 2.6,0.9 4.3,0.9c3.4,0 6,-1.7 7.7,-4.3c25.5,-44.3 74.2,-72.5 125.4,-72.5c5.1,0 8.5,-3.4 8.5,-8.5c0,-5.1 -3.4,-8.6 -8.5,-8.6z" />
			</g>
		</g>
	</g>
</svg>