<svg xmlns="http://www.w3.org/2000/svg" viewBox="0 0 513 472" width="513" height="472">
	<style>
		tspan { white-space:pre }
		.shp0 { fill: #7f7f7f } 
	</style>
	<g id="Layer">
		<g id="Layer">
			<g id="Layer">
				<path id="Layer" class="shp0" d="M511.8,115.7c-0.8,4.1 -4.4,7 -8.6,7h-22.4v24.3c0,4.9 -3.9,8.8 -8.8,8.8h-10.5v31.1c0,4.9 -3.9,8.8 -8.8,8.8h-20.8v178.7h20.8c4.9,0 8.8,3.9 8.8,8.8v31.1h20.1c4.9,0 8.8,3.9 8.8,8.8v39.9c0,4.9 -3.9,8.8 -8.8,8.8h-451.1c-4.9,0 -8.8,-3.9 -8.8,-8.8v-39.9c0,-4.9 3.9,-8.8 8.8,-8.8h20.1v-31.1c0,-4.9 3.9,-8.8 8.8,-8.8h20.7v-178.7h-20.8c-4.9,0 -8.8,-3.9 -8.8,-8.8v-31.1h-10.5c-4.9,0 -8.8,-3.9 -8.8,-8.8v-24.4h-22.4c-4.2,0 -7.8,-2.9 -8.6,-7c-0.8,-4 1.4,-8.2 5.2,-9.8l247.1,-105c2.2,-0.9 4.7,-0.9 6.9,0l247.2,105c3.9,1.7 6.1,5.8 5.2,9.9zM52,105.1h408l-204,-86.6zM39.3,431.9v22.3h433.4v-22.3zM68.2,392v22.3h375.6v-22.3zM133.4,374.4v-178.7h-35.6v178.7zM220.7,374.4v-178.7h-69.7v178.7zM273.8,374.4v-178.7h-35.6v178.7zM361,374.4v-178.7h-69.6v178.7zM414.2,374.4v-178.7h-35.6v178.7zM443.9,155.8h-375.7v22.3h375.6zM463.2,122.7h-414.4v15.5h414.4z" />
				<path id="Layer" class="shp0" d="M281.8,66.4c0,14.2 -11.6,25.8 -25.8,25.8c-14.2,0 -25.8,-11.6 -25.8,-25.8c0,-14.2 11.6,-25.8 25.8,-25.8c14.2,0 25.8,11.6 25.8,25.8zM264.2,66.4c0,-4.5 -3.7,-8.2 -8.2,-8.2c-4.5,0 -8.2,3.7 -8.2,8.2c0,4.5 3.7,8.2 8.2,8.2c4.5,0 8.2,-3.7 8.2,-8.2z" />
			</g>
		</g>
	</g>
</svg>