<svg xmlns="http://www.w3.org/2000/svg" viewBox="0 0 513 513" width="513" height="513">
	<style>
		tspan { white-space:pre }
		.shp0 { fill: #7f7f7f } 
	</style>
	<g id="Layer">
		<g id="Layer">
			<path id="Layer" class="shp0" d="M512.4,308.1v51.2c0,2.5 -1.7,5.1 -3.4,6.8c-1.7,0.9 -3.4,0.9 -5.1,0.9c-0.9,0 -1.7,0 -2.6,-0.9l-202.2,-69.6v121.9l63.1,26.3c3.4,1.7 5.1,4.3 5.1,7.7v51.2c0,2.5 -1.7,5.1 -3.4,6.8c-1.7,1.7 -3.4,1.7 -5.1,1.7c-0.8,0 -2.5,0 -3.4,-0.9l-99,-41l-99,41.8c-2.6,0.8 -6,0.8 -7.7,-0.9c-2.6,-1.7 -4.3,-4.3 -4.3,-7.7v-51.2c0,-3.4 1.7,-6.8 5.1,-7.7l63.1,-26.3v-122.5l-202.2,71.2c-0.9,0 -1.7,0 -2.6,0c-1.7,0 -3.4,-0.9 -5.1,-1.7c-1.7,-0.8 -3.4,-3.4 -3.4,-6.8v-51.2c0,-2.5 0.8,-5.1 3.4,-6.8l39.3,-29.9v-40.1c0,-14.5 11.1,-25.6 25.6,-25.6c14.5,0 25.6,11.1 25.6,25.6v1.2l34.1,-25.9v-43.6c0,-14.5 11.1,-25.6 25.6,-25.6c14.5,0 25.6,11.1 25.6,25.6v4.6l34.1,-25.9v-42.7c0,-26.5 4.3,-52.1 13.7,-76.8c4.3,-12.8 16.2,-21.3 29,-21.3c12.8,0 24.7,7.7 29,20.5c9.4,24.7 13.7,50.3 13.7,76.8v44.5l34.1,25.9v-5.5c0,-14.5 11.1,-25.6 25.6,-25.6c14.5,0 25.6,11.1 25.6,25.6v44.4l34.1,25.9v-2.1c0,-14.5 11.1,-25.6 25.6,-25.6c14.5,0 25.6,11.1 25.6,25.6v41l39.3,29.8c1.7,1.7 3.4,4.3 3.5,6.9zM435.4,244.9l17.1,12.8v-27.3c0,-5.1 -3.4,-8.5 -8.5,-8.5c-5.1,0 -8.5,3.4 -8.5,8.5zM350,180l17.1,12.8v-30.7c0,-5.1 -3.4,-8.5 -8.5,-8.5c-5.1,0 -8.5,3.4 -8.5,8.5zM145.2,192.7l17.1,-13v-17.6c0,-4.2 -3.4,-8.5 -8.5,-8.5c-5.1,0 -8.5,3.4 -8.5,8.5zM59.9,257.6l17.1,-13v-14.2c0,-4.2 -3.4,-8.5 -8.5,-8.5c-5.1,0 -8.5,3.4 -8.5,8.5zM213.6,279v-116l-121.8,92.2c-0.3,0.3 -0.6,0.5 -1,0.8l-8,6l-65.5,49.5v35zM350.1,458.3l-93.9,-39.3l-93.9,39.3v32.4l90.5,-37.5c0.8,0 2.6,-0.9 3.4,-0.9c0.8,0 2.5,0 3.4,0.9l90.5,37.5zM281.9,411.2v-314c0,-23.9 -4.3,-47.8 -12.8,-70.8c-2.6,-6.8 -7.7,-9.4 -12.8,-9.4c-5.1,0 -10.2,2.6 -12.8,9.4c-8.5,23.1 -12.8,47 -12.8,71.7v313l22.2,-9.2c1.7,-0.9 4.2,-0.9 6.8,0zM495.2,311.5l-65.4,-49.5l-8,-6c-0.1,-0.1 -0.1,-0.1 -0.2,-0.2l-49.6,-37.5c-0.4,-0.2 -0.9,-0.5 -1.4,-0.7l-34.1,-25.6c-0.5,-0.5 -1,-1.1 -1.5,-1.7l-36.1,-27.3v116l196.3,67.5z" />
		</g>
	</g>
</svg>