<?xml version="1.0" encoding="utf-8"?>
<!-- Generator: Adobe Illustrator 22.0.1, SVG Export Plug-In . SVG Version: 6.00 Build 0)  -->
<svg version="1.1" id="Layer_1" xmlns="http://www.w3.org/2000/svg" xmlns:xlink="http://www.w3.org/1999/xlink" x="0px" y="0px"
	 viewBox="0 0 390 90" style="enable-background:new 0 0 390 90;" xml:space="preserve">
<style type="text/css">
	.st0{fill:#FFFFFF;}
</style>
<g>
	<path class="st0" d="M45,0C45,0,45,0,45,0C45,0,45,0,45,0C45,0,45,0,45,0C45,0,45,0,45,0C45,0,45,0,45,0C44.9,0,44.9,0,45,0
		C44.9,0,44.9,0,45,0C44.9,0,44.9,0,45,0C44.9,0,44.9,0,45,0C44.9,0,44.9,0,45,0c-0.1,0-0.1,0-0.1,0c0,0,0,0,0,0c0,0,0,0,0,0
		c0,0,0,0,0,0c0,0,0,0,0,0c0,0,0,0,0,0c-0.3,0-0.5,0-0.8,0c-0.6,0-1,0.5-1,1c0,0.5,0.5,1,1,1c0,0,0,0,0,0c0.3,0,0.6,0,1,0
		c0.4,0,0.7-0.2,0.9-0.5C46,1.8,46.3,2,46.7,2c0.3,0,0.6,0,1,0c0,0,0,0,0.1,0c0.5,0,1-0.4,1-0.9c0-0.6-0.4-1-0.9-1.1
		c-0.2,0-0.3,0-0.5,0c0,0,0,0,0,0c0,0,0,0,0,0c0,0,0,0,0,0c0,0,0,0,0,0c0,0,0,0,0,0c0,0,0,0,0,0c0,0,0,0,0,0c0,0,0,0,0,0
		c-0.1,0-0.3,0-0.4,0c0,0,0,0,0,0c-0.4,0-0.7,0.2-0.9,0.5C45.7,0.2,45.4,0,45,0L45,0L45,0z M40.1,0.3c0,0-0.1,0-0.1,0
		c-0.3,0-0.6,0.1-1,0.1c0,0,0,0,0,0c0,0,0,0,0,0c0,0,0,0,0,0c0,0,0,0,0,0c0,0,0,0,0,0c0,0,0,0,0,0c-0.5,0.1-0.9,0.6-0.9,1.1
		c0.1,0.5,0.5,0.9,1,0.9c0,0,0.1,0,0.1,0c0.3,0,0.6-0.1,0.9-0.1c0.5-0.1,0.9-0.6,0.9-1.1C41.1,0.6,40.6,0.3,40.1,0.3L40.1,0.3z
		 M35.3,1.1c-0.1,0-0.1,0-0.2,0c-0.1,0-0.2,0-0.3,0.1l0,0c0,0,0,0,0,0c0,0,0,0,0,0c0,0,0,0,0,0c0,0,0,0,0,0c0,0,0,0,0,0c0,0,0,0,0,0
		c0,0,0,0,0,0c-0.1,0-0.3,0.1-0.4,0.1c0,0,0,0,0,0c0,0,0,0,0,0c0,0,0,0,0,0c0,0,0,0,0,0c0,0,0,0,0,0c0,0,0,0,0,0c-0.1,0-0.1,0-0.2,0
		c-0.5,0.1-0.9,0.7-0.7,1.2c0.1,0.5,0.5,0.8,1,0.8c0.1,0,0.2,0,0.2,0c0.3-0.1,0.6-0.2,0.9-0.2c0.5-0.1,0.9-0.7,0.8-1.2
		C36.2,1.4,35.8,1.1,35.3,1.1L35.3,1.1z M30.6,2.4c-0.1,0-0.2,0-0.3,0.1c0,0-0.1,0-0.1,0c0,0,0,0,0,0c0,0,0,0,0,0c0,0,0,0,0,0
		c0,0,0,0,0,0c0,0,0,0,0,0c0,0,0,0,0,0c-0.2,0.1-0.5,0.2-0.7,0.3l0,0c0,0,0,0,0,0c0,0,0,0,0,0c0,0,0,0,0,0c0,0,0,0,0,0c0,0,0,0,0,0
		c0,0,0,0,0,0c0,0,0,0,0,0c0,0,0,0-0.1,0c-0.5,0.2-0.8,0.8-0.6,1.3c0.1,0.4,0.5,0.7,0.9,0.7c0.1,0,0.2,0,0.3-0.1
		c0.3-0.1,0.6-0.2,0.9-0.3c0.5-0.2,0.8-0.8,0.6-1.3C31.4,2.7,31,2.4,30.6,2.4L30.6,2.4z M26.1,4.3c-0.1,0-0.3,0-0.4,0.1
		c-0.1,0-0.1,0.1-0.2,0.1c0,0,0,0,0,0c0,0,0,0,0,0c0,0,0,0,0,0c0,0,0,0,0,0c0,0,0,0,0,0c0,0,0,0,0,0c0,0,0,0,0,0c0,0,0,0,0,0
		c0,0,0,0,0,0h0c-0.2,0.1-0.4,0.2-0.7,0.3c-0.5,0.2-0.7,0.9-0.4,1.3c0.2,0.3,0.5,0.5,0.9,0.5c0.2,0,0.3,0,0.4-0.1
		c0.3-0.1,0.6-0.3,0.9-0.4C27,5.9,27.2,5.3,27,4.8C26.8,4.5,26.5,4.3,26.1,4.3L26.1,4.3z M21.8,6.6c-0.2,0-0.4,0-0.5,0.2
		c-0.2,0.1-0.4,0.3-0.6,0.4c0,0,0,0,0,0c0,0,0,0,0,0c0,0,0,0,0,0c0,0,0,0,0,0c0,0,0,0,0,0c0,0,0,0,0,0c0,0,0,0,0,0c0,0,0,0,0,0
		c0,0,0,0,0,0c0,0,0,0,0,0c0,0,0,0,0,0c0,0,0,0,0,0c0,0,0,0,0,0c0,0,0,0,0,0c0,0-0.1,0.1-0.1,0.1c-0.5,0.3-0.6,0.9-0.3,1.4
		C20.3,9,20.6,9.1,21,9.1c0.2,0,0.4-0.1,0.5-0.2c0.3-0.2,0.5-0.3,0.8-0.5c0.5-0.3,0.6-0.9,0.3-1.4C22.5,6.8,22.1,6.6,21.8,6.6
		L21.8,6.6z M17.8,9.4c-0.2,0-0.4,0.1-0.6,0.2c-0.3,0.2-0.5,0.4-0.8,0.6c-0.4,0.4-0.5,1-0.1,1.4c0.2,0.2,0.5,0.4,0.8,0.4
		c0.2,0,0.4-0.1,0.6-0.2c0.2-0.2,0.5-0.4,0.7-0.6c0.4-0.3,0.5-1,0.2-1.4C18.4,9.5,18.1,9.4,17.8,9.4L17.8,9.4z M14.1,12.6
		c-0.3,0-0.5,0.1-0.7,0.3c-0.2,0.2-0.5,0.5-0.7,0.7c-0.4,0.4-0.4,1,0,1.4c0.2,0.2,0.4,0.3,0.7,0.3c0.3,0,0.5-0.1,0.7-0.3
		c0.2-0.2,0.4-0.5,0.7-0.7c0.4-0.4,0.4-1,0-1.4C14.6,12.7,14.4,12.6,14.1,12.6L14.1,12.6z M10.8,16.3c-0.3,0-0.6,0.1-0.8,0.4l0,0
		c0,0,0,0,0,0c0,0,0,0,0,0c0,0,0,0,0,0l0,0c-0.2,0.3-0.4,0.5-0.6,0.8c-0.3,0.4-0.3,1.1,0.2,1.4C9.8,19,10,19,10.2,19
		c0.3,0,0.6-0.1,0.8-0.4c0.2-0.3,0.4-0.5,0.6-0.7c0.3-0.4,0.3-1.1-0.1-1.4C11.3,16.3,11.1,16.3,10.8,16.3L10.8,16.3z M8,20.2
		c-0.3,0-0.7,0.2-0.8,0.5c0,0-0.1,0.1-0.1,0.1l0,0c0,0,0,0,0,0c0,0,0,0,0,0c0,0,0,0,0,0c0,0,0,0,0,0c0,0,0,0,0,0c0,0,0,0,0,0
		c0,0,0,0,0,0c-0.1,0.2-0.3,0.4-0.4,0.7c-0.3,0.5-0.1,1.1,0.3,1.4C7.1,23,7.3,23,7.5,23c0.3,0,0.7-0.2,0.9-0.5
		c0.2-0.3,0.3-0.5,0.5-0.8c0.3-0.5,0.2-1.1-0.3-1.4C8.3,20.3,8.2,20.2,8,20.2L8,20.2z M5.6,24.5c-0.4,0-0.7,0.2-0.9,0.6c0,0,0,0,0,0
		c0,0,0,0,0,0c0,0,0,0,0,0c0,0,0,0,0,0c0,0,0,0,0,0c0,0,0,0,0,0c0,0,0,0,0,0c0,0,0,0,0,0c0,0,0,0,0,0c0,0,0,0,0,0c0,0,0,0,0,0
		c0,0,0,0,0,0c0,0,0,0,0,0c0,0,0,0,0,0c0,0,0,0,0,0c0,0,0,0,0,0c0,0,0,0,0,0c0,0,0,0,0,0c0,0,0,0,0,0c0,0,0,0,0,0c0,0,0,0,0,0
		c0,0,0,0,0,0c0,0,0,0,0,0c0,0,0,0,0,0c0,0,0,0,0,0c0,0,0,0,0,0c0,0,0,0,0,0c0,0,0,0,0,0c0,0,0,0,0,0c0,0,0,0,0,0c0,0,0,0,0,0
		c0,0,0,0,0,0c0,0,0,0,0,0c0,0,0,0,0,0c0,0,0,0,0,0c0,0,0,0,0,0c0,0,0,0,0,0c0,0,0,0,0,0c0,0,0,0,0,0c0,0,0,0,0,0c0,0,0,0,0,0
		c0,0,0,0,0,0c0,0,0,0,0,0c0,0,0,0,0,0c0,0,0,0,0,0c0,0,0,0,0,0c-0.1,0.2-0.2,0.4-0.3,0.5c-0.2,0.5,0,1.1,0.5,1.3
		c0.1,0.1,0.3,0.1,0.4,0.1c0.4,0,0.7-0.2,0.9-0.6c0.1-0.3,0.3-0.6,0.4-0.9c0.2-0.5,0-1.1-0.5-1.3C5.9,24.5,5.7,24.5,5.6,24.5
		L5.6,24.5z M3.6,29c-0.4,0-0.8,0.3-0.9,0.7c0,0.1-0.1,0.1-0.1,0.2l0,0c0,0,0,0,0,0l0,0c0,0,0,0,0,0c0,0,0,0,0,0c0,0,0,0,0,0
		c0,0,0,0,0,0c0,0,0,0,0,0c0,0,0,0,0,0c0,0,0,0,0,0c0,0,0,0,0,0c0,0,0,0,0,0c0,0,0,0,0,0c0,0,0,0,0,0c0,0,0,0,0,0c0,0,0,0,0,0
		c0,0,0,0,0,0c0,0,0,0,0,0c-0.1,0.2-0.1,0.4-0.2,0.6c-0.2,0.5,0.1,1.1,0.6,1.3c0.1,0,0.2,0.1,0.3,0.1c0.4,0,0.8-0.3,0.9-0.7
		c0.1-0.3,0.2-0.6,0.3-0.9C4.8,29.8,4.5,29.2,4,29C3.9,29,3.8,29,3.6,29L3.6,29z M2.2,33.6c-0.5,0-0.9,0.3-1,0.8
		c-0.1,0.3-0.2,0.6-0.2,1c-0.1,0.5,0.2,1.1,0.8,1.2c0.1,0,0.1,0,0.2,0c0.5,0,0.9-0.3,1-0.8c0.1-0.3,0.1-0.6,0.2-0.9
		c0.1-0.5-0.2-1.1-0.7-1.2C2.4,33.6,2.3,33.6,2.2,33.6L2.2,33.6z M1.3,38.4c-0.5,0-0.9,0.4-1,0.9c0,0.3-0.1,0.7-0.1,1
		c-0.1,0.5,0.3,1,0.9,1.1c0,0,0.1,0,0.1,0c0.5,0,0.9-0.4,1-0.9c0-0.3,0.1-0.6,0.1-0.9c0.1-0.5-0.3-1-0.9-1.1
		C1.4,38.4,1.4,38.4,1.3,38.4L1.3,38.4z M1,43.3c-0.5,0-1,0.4-1,1c0,0,0,0.1,0,0.1c0,0,0,0,0,0c0,0,0,0,0,0c0,0,0,0,0,0c0,0,0,0,0,0
		c0,0,0,0,0,0c0,0,0,0,0,0c0,0,0,0,0,0c0,0,0,0,0,0c0,0,0,0,0,0c0,0,0,0,0,0c0,0,0,0,0,0l0,0c0,0,0,0,0,0l0,0c0,0,0,0.1,0,0.1v0
		c0,0,0,0.1,0,0.1l0,0c0,0,0,0,0,0c0,0,0,0,0,0c0,0,0,0,0,0.1l0,0c0,0,0,0,0,0c0,0,0,0,0,0c0,0,0,0,0,0c0,0,0,0,0,0c0,0,0,0,0,0
		c0,0,0,0,0,0c0,0,0,0,0,0c0,0,0,0,0,0c0,0,0,0,0,0c0,0,0,0,0,0c0,0,0,0,0,0c0,0,0,0,0,0c0,0,0,0,0,0c0,0,0,0,0,0c0,0,0,0,0,0l0,0
		c0,0,0,0,0,0c0,0,0,0,0,0c0,0,0,0,0,0c0,0,0,0,0,0c0,0.1,0,0.2,0,0.3c0,0,0,0,0,0v0c0,0.5,0.4,1,1,1c0,0,0,0,0,0c0.6,0,1-0.5,1-1
		L2,45c0-0.2,0-0.4,0-0.7C2,43.8,1.6,43.3,1,43.3C1,43.3,1,43.3,1,43.3L1,43.3z M1.2,48.2C1.2,48.2,1.1,48.2,1.2,48.2
		c-0.6,0.1-1,0.5-1,1.1c0,0.1,0,0.2,0,0.3c0,0,0,0,0,0c0,0,0,0,0,0c0,0,0,0,0,0c0,0,0,0,0,0.1c0,0,0,0,0,0c0,0,0,0,0,0s0,0,0,0
		c0,0,0,0,0,0c0,0,0,0,0,0c0,0,0,0,0,0c0,0,0,0,0,0c0,0,0,0,0,0c0,0,0,0,0,0l0,0c0,0.2,0,0.3,0.1,0.5c0.1,0.5,0.5,0.9,1,0.9
		c0,0,0.1,0,0.1,0c0.5-0.1,0.9-0.6,0.9-1.1c0-0.3-0.1-0.6-0.1-1C2.1,48.6,1.7,48.2,1.2,48.2L1.2,48.2z M1.9,53c-0.1,0-0.1,0-0.2,0
		c-0.5,0.1-0.9,0.6-0.8,1.2C1,54.5,1.1,54.8,1.1,55c0,0,0,0,0,0c0,0,0,0,0,0c0,0,0,0,0,0c0,0,0,0,0,0c0,0,0,0,0,0c0,0,0,0,0,0
		c0,0,0,0,0,0c0,0,0,0,0,0c0,0,0,0,0,0c0,0,0,0,0,0c0,0,0,0,0,0c0,0,0,0,0,0c0,0,0,0,0,0c0,0,0,0,0,0c0,0,0,0,0,0c0,0,0,0,0,0
		c0,0,0,0,0,0c0,0,0,0,0,0c0,0,0,0,0,0c0,0,0,0,0,0c0,0,0,0,0,0c0,0,0,0,0,0c0,0,0,0,0,0c0.1,0.5,0.5,0.8,1,0.8c0.1,0,0.2,0,0.2,0
		c0.5-0.1,0.9-0.7,0.7-1.2C3,54.5,3,54.1,2.9,53.8C2.8,53.4,2.4,53,1.9,53L1.9,53z M3.2,57.8c-0.1,0-0.2,0-0.3,0.1
		c-0.5,0.2-0.8,0.7-0.6,1.3c0,0.1,0.1,0.2,0.1,0.4c0,0,0,0,0,0c0,0,0,0,0,0c0,0,0,0,0,0c0,0,0,0,0,0c0,0,0,0,0,0c0,0,0,0,0,0
		c0,0,0,0,0,0c0,0,0,0,0,0c0,0,0,0,0,0c0,0,0,0,0,0c0,0,0,0,0,0c0,0,0,0,0,0c0,0,0,0,0,0c0,0,0,0,0,0c0,0,0,0,0,0c0,0,0,0,0,0
		c0,0,0,0,0,0l0,0c0,0.1,0.1,0.3,0.1,0.4c0,0,0,0,0,0c0,0,0,0,0,0c0,0,0,0,0,0c0.1,0.4,0.5,0.7,0.9,0.7c0.1,0,0.2,0,0.3-0.1
		c0.5-0.2,0.8-0.8,0.6-1.3c-0.1-0.3-0.2-0.6-0.3-0.9C4,58,3.6,57.8,3.2,57.8L3.2,57.8z M5,62.3c-0.1,0-0.3,0-0.4,0.1
		c-0.5,0.2-0.7,0.8-0.5,1.3c0.1,0.3,0.3,0.6,0.4,0.8c0,0,0,0,0,0c0,0,0,0,0,0c0,0,0,0,0,0.1C4.7,65,5,65.2,5.4,65.2
		c0.1,0,0.3,0,0.4-0.1c0.5-0.2,0.7-0.8,0.5-1.3c-0.1-0.3-0.3-0.6-0.4-0.9C5.7,62.5,5.4,62.3,5,62.3L5,62.3z M7.3,66.6
		c-0.2,0-0.4,0-0.5,0.1c-0.5,0.3-0.6,0.9-0.3,1.4c0,0.1,0.1,0.1,0.1,0.2l0,0c0,0,0,0,0,0c0,0,0,0,0,0c0,0,0,0,0,0c0,0,0,0,0,0
		c0,0,0,0,0,0c0,0,0,0,0,0c0,0,0,0,0,0c0.1,0.2,0.2,0.4,0.4,0.6c0.2,0.3,0.5,0.5,0.8,0.5c0.2,0,0.4,0,0.5-0.2
		c0.5-0.3,0.6-0.9,0.3-1.4c-0.2-0.3-0.3-0.5-0.5-0.8C7.9,66.8,7.6,66.6,7.3,66.6L7.3,66.6z M10,70.7c-0.2,0-0.4,0.1-0.6,0.2
		c-0.4,0.3-0.5,1-0.2,1.4c0.1,0.1,0.1,0.1,0.2,0.2c0,0,0,0,0,0c0,0,0,0,0,0c0,0,0,0,0,0c0,0,0,0,0,0c0,0,0,0,0,0c0,0,0,0,0,0
		c0,0,0,0,0,0l0,0c0,0,0,0,0,0l0,0c0.1,0.1,0.2,0.3,0.3,0.4c0,0,0,0,0,0c0,0,0,0,0,0c0,0,0,0,0,0c0,0,0,0,0,0c0,0,0,0,0,0
		c0,0,0,0,0,0c0,0,0,0,0.1,0.1c0.2,0.2,0.5,0.4,0.8,0.4c0.2,0,0.4-0.1,0.6-0.2c0.4-0.3,0.5-1,0.2-1.4c-0.2-0.2-0.4-0.5-0.6-0.8
		C10.6,70.8,10.3,70.7,10,70.7L10,70.7z M13.2,74.4c-0.2,0-0.5,0.1-0.7,0.3c-0.4,0.4-0.4,1,0,1.4c0.1,0.1,0.2,0.2,0.3,0.3l0,0
		c0,0,0,0,0,0l0,0c0,0,0,0,0,0c0,0,0,0,0,0c0,0,0,0,0,0l0,0c0,0,0,0,0,0l0,0c0,0,0,0,0.1,0.1c0,0,0,0,0,0c0,0,0,0,0,0c0,0,0,0,0,0
		c0,0,0,0,0,0c0,0,0,0,0,0c0,0,0,0,0,0c0,0,0,0,0,0c0,0,0,0,0,0c0,0,0,0,0,0c0,0,0,0,0,0c0,0,0,0,0,0c0,0,0,0,0,0c0,0,0,0,0,0
		c0,0,0,0,0,0c0,0,0,0,0,0c0,0,0,0,0,0c0,0,0,0,0,0c0,0,0,0,0,0c0,0,0,0,0,0c0,0,0,0,0,0c0,0,0,0,0.1,0.1c0,0,0,0,0,0c0,0,0,0,0,0
		c0,0,0,0,0,0c0,0,0,0,0,0c0,0,0,0,0,0c0,0,0,0,0,0c0,0,0,0,0,0c0,0,0,0,0,0c0,0,0,0,0,0c0,0,0,0,0.1,0.1c0,0,0,0,0,0c0,0,0,0,0,0
		c0,0,0,0,0,0c0,0,0,0,0,0c0,0,0,0,0,0c0,0,0,0,0,0c0,0,0,0,0,0c0,0,0,0,0,0c0.2,0.2,0.5,0.3,0.7,0.3c0.3,0,0.5-0.1,0.7-0.3
		c0.4-0.4,0.4-1,0-1.4c-0.2-0.2-0.4-0.5-0.7-0.7C13.7,74.5,13.4,74.4,13.2,74.4L13.2,74.4z M16.7,77.7c-0.3,0-0.6,0.1-0.8,0.4
		c-0.4,0.4-0.3,1.1,0.1,1.4c0,0,0,0,0,0c0,0,0,0,0,0c0,0,0,0,0,0c0,0,0,0,0,0c0,0,0,0,0,0c0,0,0,0,0,0c0,0,0,0,0,0c0,0,0,0,0,0
		c0,0,0,0,0,0c0,0,0,0,0,0c0,0,0,0,0,0c0,0,0,0,0,0c0,0,0,0,0,0c0,0,0,0,0,0l0,0c0,0,0,0,0,0l0,0c0,0,0,0,0,0c0,0,0,0,0,0
		c0,0,0,0,0,0c0,0,0,0,0,0c0,0,0,0,0,0c0,0,0,0,0,0c0,0,0,0,0,0c0,0,0,0,0,0c0,0,0,0,0,0c0,0,0,0,0,0c0,0,0,0,0,0c0,0,0,0,0,0
		c0,0,0,0,0,0c0,0,0,0,0,0c0,0,0,0,0,0c0,0,0,0,0,0c0,0,0,0,0,0c0,0,0,0,0,0c0,0,0,0,0,0c0,0,0,0,0,0c0,0,0,0,0,0
		c0.2,0.1,0.3,0.3,0.5,0.4c0.2,0.1,0.4,0.2,0.6,0.2c0.3,0,0.6-0.1,0.8-0.4c0.3-0.4,0.3-1.1-0.2-1.4c-0.2-0.2-0.5-0.4-0.7-0.6
		C17.2,77.8,17,77.7,16.7,77.7L16.7,77.7z M20.7,80.7c-0.3,0-0.6,0.2-0.8,0.4c-0.3,0.5-0.2,1.1,0.3,1.4c0,0,0,0,0,0c0,0,0,0,0,0
		c0,0,0,0,0,0c0,0,0,0,0,0c0,0,0,0,0,0c0,0,0,0,0,0c0,0,0,0,0,0c0,0,0,0,0,0c0,0,0,0,0,0c0,0,0,0,0,0c0,0,0,0,0,0c0,0,0,0,0,0
		c0,0,0,0,0,0c0,0,0,0,0,0c0,0,0,0,0,0c0,0,0,0,0,0c0,0,0,0,0,0c0,0,0,0,0,0c0,0,0,0,0,0c0,0,0,0,0,0c0,0,0,0,0,0c0,0,0,0,0,0
		c0,0,0,0,0,0c0,0,0,0,0,0c0,0,0,0,0,0c0,0,0,0,0,0c0,0,0,0,0,0c0,0,0,0,0,0c0.2,0.1,0.4,0.3,0.6,0.4c0.2,0.1,0.3,0.2,0.5,0.2
		c0.3,0,0.7-0.2,0.8-0.5c0.3-0.5,0.2-1.1-0.3-1.4c-0.3-0.2-0.5-0.3-0.8-0.5C21,80.7,20.8,80.7,20.7,80.7L20.7,80.7z M24.9,83.1
		c-0.4,0-0.7,0.2-0.9,0.5c-0.3,0.5-0.1,1.1,0.4,1.3c0,0,0.1,0,0.1,0.1c0,0,0,0,0,0c0,0,0,0,0,0c0,0,0,0,0,0c0,0,0,0,0,0
		c0.3,0.1,0.5,0.3,0.8,0.4c0.1,0.1,0.3,0.1,0.4,0.1c0.4,0,0.7-0.2,0.9-0.6c0.2-0.5,0-1.1-0.5-1.3c-0.3-0.1-0.6-0.3-0.9-0.4
		C25.2,83.2,25,83.1,24.9,83.1L24.9,83.1z M29.3,85.1c-0.4,0-0.8,0.2-0.9,0.6c-0.2,0.5,0.1,1.1,0.6,1.3c0.3,0.1,0.6,0.2,0.9,0.3
		c0.1,0,0.2,0.1,0.3,0.1c0.4,0,0.8-0.3,0.9-0.7c0.2-0.5-0.1-1.1-0.6-1.3c-0.3-0.1-0.6-0.2-0.9-0.3C29.6,85.1,29.4,85.1,29.3,85.1
		L29.3,85.1z M34,86.6c-0.4,0-0.9,0.3-1,0.8c-0.1,0.5,0.2,1.1,0.7,1.2c0,0,0.1,0,0.1,0l0,0c0,0,0,0,0,0c0,0,0,0,0,0c0,0,0,0,0,0
		c0,0,0,0,0,0c0,0,0,0,0,0c0,0,0,0,0,0c0,0,0,0,0,0c0,0,0,0,0,0c0,0,0,0,0,0c0,0,0,0,0,0c0,0,0,0,0,0c0,0,0,0,0,0c0,0,0,0,0,0
		c0,0,0,0,0.1,0c0,0,0,0,0,0c0,0,0,0,0,0c0,0,0,0,0,0c0,0,0,0,0,0c0,0,0,0,0,0c0,0,0,0,0,0c0,0,0,0,0,0c0,0,0,0,0,0c0,0,0,0,0,0
		c0,0,0.1,0,0.1,0c0,0,0,0,0,0c0,0,0,0,0,0c0,0,0,0,0,0c0,0,0,0,0,0c0,0,0,0,0,0c0,0,0,0,0,0c0,0,0,0,0,0c0,0,0,0,0,0c0,0,0,0,0,0
		c0,0,0,0,0.1,0c0,0,0,0,0,0c0,0,0,0,0,0c0,0,0,0,0,0c0,0,0,0,0,0c0,0,0,0,0,0c0,0,0,0,0,0c0,0,0,0,0,0c0.1,0,0.2,0.1,0.4,0.1
		c0.1,0,0.2,0,0.2,0c0.5,0,0.9-0.3,1-0.8c0.1-0.5-0.2-1.1-0.7-1.2c-0.3-0.1-0.6-0.1-0.9-0.2C34.1,86.6,34.1,86.6,34,86.6L34,86.6z
		 M38.8,87.6c-0.5,0-0.9,0.4-1,0.9c-0.1,0.5,0.3,1.1,0.8,1.1c0,0,0,0,0,0c0,0,0,0,0,0c0,0,0,0,0,0c0,0,0,0,0,0c0,0,0,0,0,0
		c0,0,0,0,0,0c0,0,0,0,0,0c0,0,0,0,0,0c0.3,0,0.6,0.1,0.9,0.1c0,0,0.1,0,0.1,0c0.5,0,0.9-0.4,1-0.9c0.1-0.5-0.3-1-0.9-1.1
		c-0.3,0-0.6-0.1-0.9-0.1C38.9,87.6,38.8,87.6,38.8,87.6L38.8,87.6z M43.6,88c-0.5,0-1,0.4-1,1c0,0.6,0.4,1,1,1c0.1,0,0.2,0,0.3,0
		c0,0,0,0,0,0c0,0,0,0,0,0c0,0,0,0,0,0c0,0,0,0,0,0c0,0,0,0,0,0c0,0,0,0,0,0c0,0,0,0,0,0c0,0,0,0,0,0c0.2,0,0.4,0,0.6,0c0,0,0,0,0,0
		c0.5,0,1-0.4,1-1c0-0.6-0.4-1-1-1C44.3,88,44,88,43.6,88C43.7,88,43.7,88,43.6,88L43.6,88z M49.5,87.8c0,0-0.1,0-0.1,0
		c-0.3,0-0.6,0.1-1,0.1c-0.6,0-1,0.5-0.9,1.1c0,0.5,0.5,0.9,1,0.9c0,0,0.1,0,0.1,0c0.1,0,0.2,0,0.3,0l0,0c0,0,0,0,0,0c0,0,0,0,0,0
		c0,0,0,0,0,0c0,0,0,0,0,0c0,0,0,0,0,0c0,0,0,0,0,0c0,0,0,0,0,0c0,0,0,0,0,0c0,0,0,0,0,0c0,0,0,0,0,0c0,0,0,0,0,0c0,0,0,0,0,0
		c0,0,0,0,0,0c0,0,0,0,0,0c0,0,0,0,0,0c0,0,0,0,0,0c0,0,0,0,0,0c0,0,0,0,0,0c0,0,0,0,0,0c0,0,0,0,0,0c0,0,0,0,0,0c0,0,0,0,0,0
		c0,0,0,0,0,0c0,0,0,0,0,0c0,0,0,0,0,0c0,0,0,0,0,0c0,0,0,0,0,0c0,0,0,0,0,0c0,0,0,0,0,0c0,0,0,0,0,0c0,0,0,0,0,0c0,0,0,0,0.1,0
		c0,0,0,0,0,0c0,0,0,0,0,0c0,0,0,0,0,0c0,0,0,0,0,0c0,0,0,0,0,0c0,0,0,0,0,0c0,0,0,0,0,0c0,0,0,0,0.1,0c0,0,0,0,0,0c0,0,0,0,0,0
		c0,0,0,0,0,0c0,0,0,0,0,0c0,0,0,0,0,0c0,0,0,0,0,0c0,0,0,0,0,0c0,0,0,0,0,0c0,0,0,0,0,0c0,0,0,0,0.1,0c0,0,0,0,0,0c0,0,0,0,0,0
		c0,0,0,0,0,0c0,0,0,0,0,0c0,0,0,0,0,0c0,0,0,0,0,0c0,0,0,0,0,0c0,0,0,0,0,0c0,0,0,0,0,0c0,0,0,0,0,0c0.5-0.1,0.9-0.5,0.9-1.1
		C50.4,88.2,50,87.8,49.5,87.8L49.5,87.8z M54.3,87c-0.1,0-0.1,0-0.2,0c-0.3,0.1-0.6,0.1-0.9,0.2c-0.5,0.1-0.9,0.6-0.8,1.2
		c0.1,0.5,0.5,0.8,1,0.8c0.1,0,0.1,0,0.2,0c0.1,0,0.2,0,0.2,0c0,0,0,0,0,0c0,0,0,0,0,0c0,0,0,0,0,0c0,0,0,0,0,0c0,0,0,0,0,0
		c0,0,0,0,0,0c0,0,0,0,0,0c0,0,0,0,0,0c0.2,0,0.5-0.1,0.7-0.1c0.5-0.1,0.9-0.6,0.8-1.2C55.2,87.3,54.8,87,54.3,87L54.3,87z M59,85.7
		c-0.1,0-0.2,0-0.3,0.1c-0.3,0.1-0.6,0.2-0.9,0.3c-0.5,0.2-0.8,0.7-0.7,1.3c0.1,0.4,0.5,0.7,1,0.7c0.1,0,0.2,0,0.3,0
		c0.2,0,0.3-0.1,0.5-0.2l0,0c0,0,0.1,0,0.1,0l0,0c0,0,0,0,0,0c0,0,0,0,0,0c0,0,0,0,0,0c0,0,0,0,0,0c0,0,0,0,0,0l0,0c0,0,0,0,0,0
		c0,0,0,0,0,0c0,0,0,0,0,0c0,0,0,0,0,0c0,0,0,0,0,0l0,0c0,0,0,0,0.1,0l0,0c0,0,0,0,0,0c0,0,0,0,0,0c0,0,0,0,0,0c0,0,0,0,0,0
		c0,0,0,0,0,0c0,0,0,0,0,0c0,0,0,0,0,0c0,0,0,0,0,0c0,0,0,0,0,0c0,0,0,0,0,0c0,0,0,0,0,0c0,0,0,0,0,0c0,0,0,0,0.1,0l0,0c0,0,0,0,0,0
		c0,0,0,0,0,0c0,0,0,0,0,0c0,0,0,0,0,0c0,0,0,0,0,0c0,0,0,0,0,0c0.5-0.2,0.8-0.7,0.6-1.3C59.8,86,59.5,85.7,59,85.7L59,85.7z
		 M63.6,83.9c-0.1,0-0.3,0-0.4,0.1c-0.3,0.1-0.6,0.3-0.9,0.4c-0.5,0.2-0.7,0.8-0.5,1.3c0.2,0.4,0.5,0.6,0.9,0.6c0.1,0,0.3,0,0.4-0.1
		c0,0,0.1,0,0.1,0c0,0,0,0,0,0c0,0,0,0,0,0c0.2-0.1,0.5-0.2,0.7-0.3c0,0,0,0,0,0c0,0,0,0,0,0c0,0,0,0,0,0c0,0,0,0,0,0c0,0,0,0,0,0
		c0,0,0,0,0,0c0,0,0,0,0,0c0,0,0,0,0,0c0,0,0.1,0,0.1,0c0.5-0.2,0.7-0.8,0.5-1.3C64.3,84.1,64,83.9,63.6,83.9L63.6,83.9z M67.9,81.6
		c-0.2,0-0.4,0-0.5,0.1c-0.3,0.2-0.5,0.3-0.8,0.5c-0.5,0.3-0.6,0.9-0.4,1.4c0.2,0.3,0.5,0.5,0.9,0.5c0.2,0,0.3,0,0.5-0.1
		c0,0,0,0,0.1,0c0,0,0,0,0,0c0,0,0,0,0,0c0,0,0,0,0,0c0,0,0,0,0,0c0,0,0,0,0,0c0,0,0.1,0,0.1-0.1c0,0,0,0,0,0c0,0,0,0,0,0
		c0,0,0,0,0,0c0,0,0,0,0,0c0,0,0,0,0,0c0,0,0,0,0,0c0,0,0,0,0,0c0,0,0,0,0,0c0,0,0,0,0,0c0.2-0.1,0.3-0.2,0.5-0.3c0,0,0,0,0,0
		c0,0,0,0,0,0c0,0,0,0,0,0c0,0,0,0,0,0c0,0,0,0,0,0c0,0,0,0,0,0c0,0,0,0,0,0c0,0,0,0,0,0c0,0,0,0,0,0c0,0,0,0,0,0c0,0,0,0,0,0l0,0
		c0,0,0.1,0,0.1-0.1c0.5-0.3,0.6-0.9,0.3-1.4C68.5,81.8,68.2,81.6,67.9,81.6L67.9,81.6z M71.9,78.8c-0.2,0-0.4,0.1-0.6,0.2
		c-0.3,0.2-0.5,0.4-0.8,0.6c-0.4,0.3-0.5,1-0.2,1.4c0.2,0.3,0.5,0.4,0.8,0.4c0.2,0,0.4-0.1,0.6-0.2c0,0,0,0,0,0c0,0,0,0,0,0
		c0,0,0,0,0,0c0,0,0,0,0,0c0,0,0,0,0,0c0,0,0,0,0,0c0,0,0,0,0,0c0.2-0.1,0.3-0.2,0.5-0.4c0,0,0,0,0,0c0,0,0,0,0,0c0,0,0,0,0,0
		c0,0,0,0,0,0c0,0,0,0,0,0c0,0,0,0,0,0c0,0,0,0,0,0c0,0,0,0,0,0c0,0,0,0,0,0c0,0,0,0,0,0c0,0,0,0,0,0c0,0,0,0,0,0c0,0,0,0,0,0
		c0,0,0,0,0,0c0,0,0,0,0,0c0,0,0,0,0,0c0,0,0,0,0,0c0,0,0,0,0,0c0,0,0,0,0,0c0,0,0,0,0,0c0,0,0,0,0,0c0,0,0,0,0,0c0,0,0,0,0,0
		c0,0,0,0,0,0c0,0,0,0,0,0c0,0,0,0,0,0c0,0,0,0,0,0c0,0,0,0,0,0c0,0,0,0,0,0c0,0,0,0,0,0c0,0,0,0,0,0c0,0,0,0,0,0c0,0,0,0,0,0l0,0
		c0.4-0.3,0.5-1,0.2-1.4C72.5,79,72.2,78.8,71.9,78.8L71.9,78.8z M75.6,75.6c-0.3,0-0.5,0.1-0.7,0.3c-0.2,0.2-0.5,0.4-0.7,0.7
		c-0.4,0.4-0.4,1-0.1,1.4c0.2,0.2,0.5,0.3,0.7,0.3c0.2,0,0.5-0.1,0.7-0.3c0,0,0,0,0,0c0,0,0,0,0,0c0,0,0,0,0,0c0,0,0,0,0,0
		c0,0,0,0,0,0c0,0,0,0,0,0c0,0,0,0,0,0c0,0,0,0,0,0c0,0,0,0,0,0c0,0,0,0,0,0c0,0,0,0,0,0c0,0,0,0,0,0c0,0,0,0,0,0c0,0,0,0,0,0
		c0,0,0,0,0,0c0,0,0,0,0,0c0,0,0,0,0,0c0.1-0.1,0.3-0.3,0.4-0.4c0,0,0,0,0,0c0,0,0,0,0,0c0,0,0,0,0,0c0,0,0,0,0,0c0,0,0,0,0,0
		c0,0,0,0,0,0c0,0,0,0,0,0c0,0,0,0,0,0c0,0,0,0,0,0l0,0c0,0,0.1-0.1,0.1-0.1c0.4-0.4,0.4-1,0-1.4C76.1,75.7,75.9,75.6,75.6,75.6
		L75.6,75.6z M78.9,72c-0.3,0-0.6,0.1-0.8,0.4c-0.2,0.2-0.4,0.5-0.6,0.7c-0.4,0.4-0.3,1,0.1,1.4c0.2,0.2,0.4,0.2,0.7,0.2
		c0.3,0,0.6-0.1,0.8-0.3c0.1-0.1,0.3-0.3,0.4-0.4c0,0,0,0,0,0c0,0,0,0,0,0c0,0,0,0,0,0c0,0,0,0,0,0c0,0,0,0,0,0c0,0,0,0,0,0
		c0,0,0,0,0,0c0,0,0,0,0,0c0,0,0,0,0,0c0,0,0,0,0,0c0,0,0,0,0,0c0,0,0,0,0,0c0,0,0,0,0,0c0,0,0,0,0,0c0,0,0,0,0,0c0,0,0,0,0,0
		c0.1-0.1,0.1-0.1,0.2-0.2c0.4-0.4,0.3-1.1-0.1-1.4C79.4,72.1,79.1,72,78.9,72L78.9,72z M81.8,68.1c-0.3,0-0.6,0.2-0.8,0.5
		c-0.2,0.3-0.4,0.5-0.5,0.8c-0.3,0.5-0.2,1.1,0.3,1.4c0.2,0.1,0.4,0.2,0.6,0.2c0.3,0,0.6-0.2,0.8-0.4c0.1-0.1,0.1-0.2,0.2-0.2
		c0,0,0,0,0,0c0,0,0,0,0,0c0.1-0.2,0.3-0.4,0.4-0.6c0.3-0.5,0.2-1.1-0.3-1.4C82.2,68.2,82,68.1,81.8,68.1L81.8,68.1z M84.3,63.9
		c-0.4,0-0.7,0.2-0.9,0.5c-0.1,0.3-0.3,0.6-0.4,0.8c-0.3,0.5-0.1,1.1,0.4,1.4c0.2,0.1,0.3,0.1,0.5,0.1c0.4,0,0.7-0.2,0.9-0.5
		c0,0,0,0,0,0c0,0,0,0,0,0c0,0,0,0,0,0c0,0,0,0,0,0c0,0,0,0,0,0c0,0,0,0,0,0c0,0,0,0,0,0c0,0,0,0,0,0c0,0,0,0,0,0c0,0,0,0,0,0
		c0,0,0,0,0,0c0,0,0,0,0,0c0,0,0,0,0,0c0,0,0,0,0,0c0,0,0,0,0,0c0,0,0,0,0,0c0,0,0-0.1,0.1-0.1c0,0,0,0,0,0c0,0,0,0,0,0c0,0,0,0,0,0
		c0,0,0,0,0,0c0,0,0,0,0,0c0,0,0,0,0,0c0,0,0,0,0,0c0,0,0,0,0,0c0,0,0,0,0,0c0,0,0,0,0,0c0,0,0,0,0,0c0,0,0,0,0,0c0,0,0,0,0,0
		c0,0,0,0,0,0c0,0,0,0,0,0c0,0,0,0,0,0c0,0,0,0,0,0c0,0,0,0,0,0c0,0,0,0,0,0c0,0,0,0,0,0c0,0,0,0,0,0c0,0,0,0,0,0c0,0,0,0,0,0
		c0,0,0,0,0,0c0,0,0,0,0,0c0,0,0,0,0,0c0,0,0,0,0,0l0,0c0.1-0.1,0.2-0.3,0.2-0.4c0.2-0.5,0.1-1.1-0.4-1.3
		C84.6,63.9,84.4,63.9,84.3,63.9L84.3,63.9z M86.2,59.4c-0.4,0-0.8,0.2-0.9,0.7c-0.1,0.3-0.2,0.6-0.3,0.9c-0.2,0.5,0,1.1,0.6,1.3
		c0.1,0,0.2,0.1,0.4,0.1c0.4,0,0.8-0.2,0.9-0.6c0,0,0-0.1,0-0.1c0,0,0,0,0,0c0,0,0,0,0,0c0,0,0,0,0,0c0,0,0,0,0,0c0,0,0,0,0,0
		c0,0,0,0,0,0c0,0,0,0,0,0c0,0,0,0,0,0c0,0,0,0,0,0c0,0,0,0,0,0c0,0,0,0,0,0l0,0c0,0,0,0,0,0l0,0c0,0,0,0,0,0c0,0,0,0,0,0
		c0,0,0,0,0,0l0,0c0,0,0,0,0,0v0c0.1-0.2,0.2-0.5,0.3-0.7c0.2-0.5-0.1-1.1-0.6-1.3C86.5,59.4,86.3,59.4,86.2,59.4L86.2,59.4z
		 M87.7,54.7c-0.4,0-0.9,0.3-1,0.8c-0.1,0.3-0.2,0.6-0.2,0.9c-0.1,0.5,0.2,1.1,0.7,1.2c0.1,0,0.2,0,0.3,0c0.4,0,0.8-0.3,1-0.7
		c0.1-0.3,0.2-0.6,0.3-1c0.1-0.5-0.2-1.1-0.7-1.2C87.8,54.7,87.8,54.7,87.7,54.7L87.7,54.7z M88.6,49.9c-0.5,0-0.9,0.4-1,0.9
		c0,0.3-0.1,0.6-0.1,0.9c-0.1,0.5,0.3,1.1,0.8,1.1c0.1,0,0.1,0,0.2,0c0.5,0,0.9-0.4,1-0.8c0-0.1,0-0.2,0-0.3c0,0,0,0,0,0
		c0,0,0,0,0,0c0,0,0,0,0,0c0,0,0,0,0,0c0,0,0,0,0,0c0,0,0,0,0,0c0,0,0,0,0,0c0,0,0,0,0,0c0-0.2,0.1-0.5,0.1-0.7
		c0.1-0.5-0.3-1.1-0.9-1.1C88.7,49.9,88.6,49.9,88.6,49.9L88.6,49.9z M89,45.1c-0.5,0-1,0.4-1,1c0,0.3,0,0.6,0,1c0,0.6,0.4,1,1,1
		c0,0,0,0,0,0c0.5,0,1-0.4,1-1c0-0.2,0-0.3,0-0.5l0,0c0,0,0,0,0,0c0,0,0,0,0,0c0,0,0,0,0,0c0,0,0,0,0,0c0,0,0,0,0,0c0,0,0,0,0,0
		c0,0,0,0,0,0c0,0,0,0,0,0c0,0,0,0,0,0c0-0.1,0-0.3,0-0.4C90,45.5,89.6,45.1,89,45.1C89,45.1,89,45.1,89,45.1L89,45.1z M88.8,40.2
		C88.8,40.2,88.8,40.2,88.8,40.2c-0.6,0.1-1,0.5-1,1.1c0,0.3,0.1,0.6,0.1,1c0,0.5,0.5,0.9,1,0.9c0,0,0,0,0.1,0c0.6,0,1-0.5,0.9-1.1
		c0-0.3,0-0.7-0.1-1C89.8,40.6,89.3,40.2,88.8,40.2L88.8,40.2z M88.1,35.3c-0.1,0-0.1,0-0.2,0c-0.5,0.1-0.9,0.6-0.8,1.2
		c0.1,0.3,0.1,0.6,0.2,0.9c0.1,0.5,0.5,0.8,1,0.8c0.1,0,0.1,0,0.2,0c0.5-0.1,0.9-0.6,0.8-1.2c0-0.2-0.1-0.4-0.1-0.6c0,0,0,0,0,0
		c0,0,0,0,0,0c0,0,0,0,0,0c0,0,0,0,0,0c0,0,0,0,0,0c0,0,0,0,0,0c0,0,0,0,0,0l0,0c0,0,0,0,0,0l0,0c0,0,0,0,0,0c0,0,0,0,0,0
		c0-0.1,0-0.2,0-0.2C89,35.7,88.6,35.3,88.1,35.3L88.1,35.3z M86.9,30.6c-0.1,0-0.2,0-0.3,0c-0.5,0.2-0.8,0.7-0.6,1.3
		c0.1,0.3,0.2,0.6,0.3,0.9c0.1,0.4,0.5,0.7,1,0.7c0.1,0,0.2,0,0.3,0c0.5-0.2,0.8-0.7,0.7-1.2c-0.1-0.3-0.2-0.6-0.3-1
		C87.7,30.9,87.3,30.6,86.9,30.6L86.9,30.6z M85.2,26c-0.1,0-0.3,0-0.4,0.1c-0.5,0.2-0.7,0.8-0.5,1.3c0.1,0.3,0.3,0.6,0.4,0.9
		c0.2,0.4,0.5,0.6,0.9,0.6c0.1,0,0.3,0,0.4-0.1c0.5-0.2,0.7-0.8,0.5-1.3c0-0.1-0.1-0.2-0.1-0.3c0,0,0,0,0,0c0,0,0,0,0,0c0,0,0,0,0,0
		c0,0,0,0,0,0c0,0,0,0,0,0c0,0,0,0,0,0c0,0,0,0,0,0s0,0,0,0c0,0,0,0,0,0c0,0,0,0,0,0c0,0,0,0,0,0c0,0,0,0,0,0c0,0,0,0,0,0l0,0
		c-0.1-0.2-0.1-0.3-0.2-0.5C85.9,26.3,85.6,26,85.2,26L85.2,26z M82.9,21.7c-0.2,0-0.3,0-0.5,0.1c-0.5,0.3-0.6,0.9-0.4,1.4
		c0.2,0.3,0.3,0.6,0.5,0.8c0.2,0.3,0.5,0.5,0.9,0.5c0.2,0,0.3,0,0.5-0.1c0.5-0.3,0.7-0.9,0.4-1.4c-0.2-0.3-0.3-0.6-0.5-0.9l0,0
		C83.6,21.9,83.3,21.7,82.9,21.7L82.9,21.7z M80.2,17.6c-0.2,0-0.4,0.1-0.6,0.2c-0.4,0.3-0.5,1-0.2,1.4c0.2,0.3,0.4,0.5,0.6,0.8
		c0.2,0.3,0.5,0.4,0.8,0.4c0.2,0,0.4-0.1,0.6-0.2c0.4-0.3,0.6-0.9,0.2-1.4c-0.2-0.2-0.3-0.5-0.5-0.7l0,0c0,0,0,0,0,0l0,0
		c0,0,0,0,0,0l0,0c0,0,0,0,0,0c0,0,0,0,0,0c0,0,0,0,0,0c0,0,0,0,0,0c0,0,0,0,0,0l0,0c0,0,0,0,0,0l0,0c0,0,0,0,0,0l0,0
		C80.8,17.8,80.5,17.6,80.2,17.6L80.2,17.6z M77.1,13.9c-0.2,0-0.5,0.1-0.7,0.3c-0.4,0.4-0.4,1,0,1.4c0.2,0.2,0.4,0.5,0.6,0.7
		c0.2,0.2,0.5,0.3,0.7,0.3c0.2,0,0.5-0.1,0.7-0.3c0.4-0.4,0.4-1,0.1-1.4c0,0,0,0,0,0l0,0c0,0,0,0,0,0c0,0,0,0,0,0c0,0,0,0,0,0
		c0,0,0,0,0,0c0,0,0,0,0,0c0,0,0,0,0,0c0,0,0,0,0,0c0,0,0,0,0,0c0,0,0,0,0,0c0,0,0,0,0,0c0,0,0,0,0,0c-0.2-0.2-0.4-0.4-0.6-0.6
		C77.6,14,77.4,13.9,77.1,13.9L77.1,13.9z M73.5,10.5c-0.3,0-0.6,0.1-0.8,0.4c-0.4,0.4-0.3,1.1,0.1,1.4c0.2,0.2,0.5,0.4,0.7,0.6
		c0.2,0.2,0.4,0.3,0.7,0.3c0.3,0,0.5-0.1,0.7-0.3c0.4-0.4,0.3-1-0.1-1.4c-0.2-0.1-0.3-0.3-0.5-0.4c0,0,0,0,0,0c0,0,0,0,0,0
		c0,0,0,0,0,0c0,0,0,0,0,0c0,0,0,0,0,0c0,0,0,0,0,0c0,0,0,0,0,0c0,0,0,0,0,0c0,0,0,0,0,0l0,0c-0.1-0.1-0.2-0.1-0.2-0.2
		C74,10.6,73.8,10.5,73.5,10.5L73.5,10.5z M69.7,7.6c-0.3,0-0.6,0.2-0.8,0.4c-0.3,0.5-0.2,1.1,0.3,1.4c0.3,0.2,0.5,0.4,0.8,0.5
		c0.2,0.1,0.4,0.2,0.6,0.2c0.3,0,0.6-0.1,0.8-0.4c0.3-0.4,0.2-1.1-0.2-1.4c-0.3-0.2-0.5-0.4-0.8-0.5c0,0,0,0,0,0c0,0,0,0,0,0
		c0,0,0,0,0,0c0,0,0,0,0,0c0,0,0,0,0,0c0,0,0,0,0,0c0,0,0,0,0,0C70.1,7.6,69.9,7.6,69.7,7.6L69.7,7.6z M65.5,5
		c-0.4,0-0.7,0.2-0.9,0.5c-0.3,0.5-0.1,1.1,0.4,1.4c0.3,0.1,0.6,0.3,0.8,0.5c0.2,0.1,0.3,0.1,0.5,0.1c0.4,0,0.7-0.2,0.9-0.5
		c0.3-0.5,0.1-1.1-0.4-1.4c-0.1,0-0.2-0.1-0.3-0.1l0,0c0,0,0,0,0,0c0,0,0,0,0,0c0,0,0,0,0,0c0,0,0,0,0,0c0,0,0,0,0,0c0,0,0,0,0,0
		c0,0,0,0,0,0c0,0,0,0,0,0c0,0,0,0,0,0c0,0,0,0,0,0c0,0,0,0,0,0c0,0,0,0,0,0c0,0,0,0,0,0c0,0,0,0,0,0c0,0,0,0,0,0c0,0,0,0-0.1,0
		c0,0,0,0,0,0c0,0,0,0,0,0c0,0,0,0,0,0c0,0,0,0,0,0c0,0,0,0,0,0c0,0,0,0,0,0c0,0,0,0,0,0c0,0,0,0,0,0c0,0,0,0,0,0
		c-0.1-0.1-0.3-0.1-0.4-0.2C65.8,5.1,65.6,5,65.5,5L65.5,5z M61,3c-0.4,0-0.8,0.2-0.9,0.6c-0.2,0.5,0.1,1.1,0.6,1.3
		c0.3,0.1,0.6,0.2,0.9,0.4c0.1,0.1,0.3,0.1,0.4,0.1c0.4,0,0.8-0.2,0.9-0.6c0.2-0.5,0-1.1-0.5-1.3c-0.3-0.1-0.6-0.3-0.9-0.4
		C61.3,3,61.1,3,61,3L61,3z M56.4,1.5c-0.4,0-0.8,0.3-1,0.7c-0.1,0.5,0.2,1.1,0.7,1.2c0.3,0.1,0.6,0.2,0.9,0.3c0.1,0,0.2,0,0.3,0
		c0.4,0,0.8-0.3,1-0.7c0.2-0.5-0.1-1.1-0.7-1.2c0,0-0.1,0-0.1,0c0,0,0,0,0,0c0,0,0,0,0,0c0,0,0,0,0,0c0,0,0,0,0,0c0,0,0,0,0,0
		c0,0,0,0,0,0c0,0,0,0,0,0l0,0c0,0,0,0,0,0l0,0c-0.1,0-0.3-0.1-0.4-0.1c0,0,0,0,0,0c0,0,0,0,0,0c0,0,0,0,0,0c0,0,0,0,0,0
		c0,0,0,0,0,0c0,0,0,0,0,0c0,0,0,0,0,0c0,0,0,0,0,0c0,0,0,0,0,0c0,0,0,0,0,0c-0.1,0-0.2-0.1-0.3-0.1C56.6,1.5,56.5,1.5,56.4,1.5
		L56.4,1.5z M51.6,0.5c-0.5,0-0.9,0.4-1,0.9c-0.1,0.5,0.3,1.1,0.8,1.1c0.3,0,0.6,0.1,0.9,0.2c0.1,0,0.1,0,0.2,0c0.5,0,0.9-0.3,1-0.8
		c0.1-0.5-0.3-1.1-0.8-1.2c-0.2,0-0.5-0.1-0.7-0.1c0,0,0,0,0,0c0,0,0,0,0,0c0,0,0,0,0,0c0,0,0,0,0,0c0,0,0,0,0,0c0,0,0,0,0,0
		c-0.1,0-0.2,0-0.2,0C51.7,0.5,51.7,0.5,51.6,0.5L51.6,0.5z"/>
</g>
<g>
	<path class="st0" d="M195,0C195,0,195,0,195,0C195,0,195,0,195,0C195,0,195,0,195,0C195,0,195,0,195,0C195,0,195,0,195,0
		C194.9,0,194.9,0,195,0C194.9,0,194.9,0,195,0C194.9,0,194.9,0,195,0C194.9,0,194.9,0,195,0C194.9,0,194.9,0,195,0
		c-0.1,0-0.1,0-0.1,0c0,0,0,0,0,0c0,0,0,0,0,0c0,0,0,0,0,0c0,0,0,0,0,0c0,0,0,0,0,0c-0.3,0-0.5,0-0.8,0c-0.6,0-1,0.5-1,1
		c0,0.5,0.5,1,1,1c0,0,0,0,0,0c0.3,0,0.6,0,1,0c0.4,0,0.7-0.2,0.9-0.5c0.2,0.3,0.5,0.5,0.8,0.5c0.3,0,0.6,0,1,0c0,0,0,0,0.1,0
		c0.5,0,1-0.4,1-0.9c0-0.6-0.4-1-0.9-1.1c-0.3,0-0.6,0-0.9,0c0,0,0,0,0,0c0,0,0,0,0,0c0,0,0,0,0,0c0,0,0,0,0,0c0,0-0.1,0-0.1,0
		c0,0,0,0,0,0c-0.4,0-0.7,0.2-0.9,0.5C195.7,0.2,195.4,0,195,0L195,0L195,0z M190.1,0.3c0,0-0.1,0-0.1,0c-0.3,0-0.5,0.1-0.8,0.1
		c0,0,0,0,0,0c0,0,0,0,0,0c0,0,0,0,0,0c0,0,0,0,0,0c0,0,0,0,0,0c0,0,0,0,0,0c0,0,0,0,0,0c0,0,0,0,0,0c0,0,0,0,0,0c0,0,0,0,0,0
		c0,0,0,0,0,0c0,0,0,0,0,0c0,0,0,0,0,0c0,0,0,0,0,0c0,0,0,0,0,0c0,0,0,0,0,0c0,0,0,0,0,0c0,0,0,0,0,0c0,0,0,0,0,0c0,0,0,0,0,0
		c0,0,0,0,0,0l0,0c-0.5,0.1-0.9,0.6-0.9,1.1c0.1,0.5,0.5,0.9,1,0.9c0,0,0.1,0,0.1,0c0.3,0,0.6-0.1,0.9-0.1c0.5-0.1,0.9-0.6,0.9-1.1
		C191.1,0.6,190.6,0.3,190.1,0.3L190.1,0.3z M185.3,1.1c-0.1,0-0.1,0-0.2,0c-0.1,0-0.2,0.1-0.4,0.1c0,0,0,0,0,0c0,0,0,0,0,0
		c0,0,0,0,0,0c0,0,0,0,0,0c-0.2,0-0.4,0.1-0.6,0.1c-0.5,0.1-0.9,0.7-0.7,1.2c0.1,0.5,0.5,0.8,1,0.8c0.1,0,0.2,0,0.2,0
		c0.3-0.1,0.6-0.2,0.9-0.2c0.5-0.1,0.9-0.7,0.8-1.2C186.2,1.4,185.8,1.1,185.3,1.1L185.3,1.1z M180.6,2.4c-0.1,0-0.2,0-0.3,0.1
		c0,0,0,0,0,0s0,0,0,0c0,0,0,0,0,0c0,0,0,0,0,0c0,0,0,0,0,0c0,0,0,0,0,0c0,0,0,0,0,0c0,0,0,0,0,0c0,0,0,0,0,0c0,0,0,0,0,0
		c0,0,0,0,0,0c-0.2,0.1-0.4,0.2-0.6,0.2c0,0,0,0,0,0c0,0,0,0,0,0c0,0,0,0,0,0c0,0,0,0,0,0c0,0,0,0,0,0c0,0,0,0,0,0c0,0,0,0,0,0
		c0,0,0,0,0,0c0,0,0,0,0,0c0,0,0,0,0,0c0,0,0,0,0,0l0,0c0,0,0,0,0,0c0,0,0,0,0,0c0,0-0.1,0-0.1,0c-0.5,0.2-0.8,0.8-0.6,1.3
		c0.1,0.4,0.5,0.7,0.9,0.7c0.1,0,0.2,0,0.3-0.1c0.3-0.1,0.6-0.2,0.9-0.3c0.5-0.2,0.8-0.8,0.6-1.3C181.4,2.7,181,2.4,180.6,2.4
		L180.6,2.4z M176.1,4.3c-0.1,0-0.3,0-0.4,0.1c0,0,0,0-0.1,0c0,0,0,0,0,0c0,0,0,0,0,0c0,0,0,0,0,0c0,0,0,0,0,0c0,0,0,0,0,0
		c0,0,0,0,0,0c-0.2,0.1-0.4,0.2-0.6,0.3c0,0,0,0,0,0c0,0,0,0,0,0c0,0,0,0,0,0c0,0,0,0,0,0c0,0,0,0,0,0c0,0,0,0,0,0c0,0,0,0,0,0l0,0
		c-0.1,0-0.1,0.1-0.2,0.1c-0.5,0.2-0.7,0.9-0.4,1.3c0.2,0.3,0.5,0.5,0.9,0.5c0.2,0,0.3,0,0.4-0.1c0.3-0.1,0.6-0.3,0.9-0.4
		c0.5-0.2,0.7-0.8,0.5-1.3C176.8,4.5,176.5,4.3,176.1,4.3L176.1,4.3z M171.8,6.6c-0.2,0-0.4,0-0.5,0.1c-0.2,0.1-0.4,0.2-0.6,0.4
		c0,0,0,0,0,0c0,0,0,0-0.1,0c0,0,0,0,0,0c0,0,0,0,0,0c0,0,0,0,0,0c0,0,0,0,0,0c0,0,0,0,0,0c0,0,0,0,0,0c0,0,0,0,0,0c0,0,0,0,0,0
		c0,0,0,0,0,0c0,0,0,0,0,0c0,0,0,0,0,0c0,0-0.1,0.1-0.1,0.1c-0.5,0.3-0.6,0.9-0.3,1.4c0.2,0.3,0.5,0.5,0.8,0.5
		c0.2,0,0.4-0.1,0.5-0.2c0.3-0.2,0.5-0.3,0.8-0.5c0.5-0.3,0.6-0.9,0.3-1.4C172.5,6.8,172.1,6.6,171.8,6.6L171.8,6.6z M167.8,9.4
		c-0.2,0-0.4,0.1-0.6,0.2c-0.2,0.2-0.4,0.4-0.7,0.5c0,0,0,0,0,0c0,0,0,0,0,0c0,0-0.1,0.1-0.1,0.1c-0.4,0.4-0.5,1-0.1,1.4
		c0.2,0.2,0.5,0.4,0.8,0.4c0.2,0,0.4-0.1,0.6-0.2c0.2-0.2,0.5-0.4,0.7-0.6c0.4-0.3,0.5-1,0.2-1.4C168.4,9.5,168.1,9.4,167.8,9.4
		L167.8,9.4z M164.1,12.6c-0.3,0-0.5,0.1-0.7,0.3c0,0,0,0,0,0c0,0,0,0,0,0c0,0,0,0,0,0c0,0,0,0,0,0c0,0,0,0,0,0c0,0,0,0,0,0l0,0
		c-0.2,0.2-0.4,0.4-0.5,0.6l0,0c0,0,0,0,0,0c0,0,0,0,0,0c0,0,0,0,0,0c0,0,0,0,0,0c0,0,0,0,0,0c0,0,0,0,0,0c0,0,0,0,0,0
		c0,0-0.1,0.1-0.1,0.1c-0.4,0.4-0.4,1,0,1.4c0.2,0.2,0.4,0.3,0.7,0.3c0.3,0,0.5-0.1,0.7-0.3c0.2-0.2,0.4-0.5,0.7-0.7
		c0.4-0.4,0.4-1,0-1.4C164.6,12.7,164.4,12.6,164.1,12.6L164.1,12.6z M160.8,16.3c-0.3,0-0.6,0.1-0.8,0.4c0,0-0.1,0.1-0.1,0.1
		c0,0,0,0,0,0c0,0,0,0,0,0c0,0,0,0,0,0c0,0,0,0,0,0c0,0,0,0,0,0c0,0,0,0,0,0c0,0,0,0,0,0c0,0,0,0,0,0c0,0,0,0,0,0l0,0c0,0,0,0,0,0
		l0,0c-0.1,0.1-0.2,0.2-0.2,0.3c0,0,0,0,0,0c0,0,0,0,0,0c0,0,0,0,0,0c0,0,0,0,0,0c0,0,0,0,0,0c0,0,0,0,0,0c0,0,0,0,0,0c0,0,0,0,0,0
		c0,0,0,0,0,0c0,0,0,0,0,0c-0.1,0.1-0.1,0.1-0.2,0.2c-0.3,0.4-0.3,1.1,0.2,1.4c0.2,0.1,0.4,0.2,0.6,0.2c0.3,0,0.6-0.1,0.8-0.4
		c0.2-0.3,0.4-0.5,0.6-0.7c0.3-0.4,0.3-1.1-0.1-1.4C161.3,16.3,161.1,16.3,160.8,16.3L160.8,16.3z M158,20.2c-0.3,0-0.7,0.2-0.8,0.5
		c-0.2,0.3-0.4,0.6-0.5,0.8c-0.3,0.5-0.1,1.1,0.3,1.4c0.2,0.1,0.3,0.1,0.5,0.1c0.3,0,0.7-0.2,0.9-0.5c0.2-0.3,0.3-0.5,0.5-0.8
		c0.3-0.5,0.2-1.1-0.3-1.4C158.3,20.3,158.2,20.2,158,20.2L158,20.2z M155.6,24.5c-0.4,0-0.7,0.2-0.9,0.6c-0.1,0.2-0.2,0.3-0.2,0.5
		l0,0c0,0,0,0,0,0c0,0,0,0,0,0c0,0,0,0,0,0c0,0,0,0,0,0c0,0,0,0,0,0c0,0,0,0,0,0c0,0,0,0,0,0c0,0,0,0,0,0c0,0,0,0,0,0
		c-0.1,0.1-0.1,0.2-0.2,0.4c-0.2,0.5,0,1.1,0.5,1.3c0.1,0.1,0.3,0.1,0.4,0.1c0.4,0,0.7-0.2,0.9-0.6c0.1-0.3,0.3-0.6,0.4-0.9
		c0.2-0.5,0-1.1-0.5-1.3C155.9,24.5,155.7,24.5,155.6,24.5L155.6,24.5z M153.6,29c-0.4,0-0.8,0.3-0.9,0.7c0,0.1-0.1,0.2-0.1,0.2
		c0,0,0,0,0,0c0,0,0,0,0,0c-0.1,0.2-0.2,0.5-0.2,0.7c-0.2,0.5,0.1,1.1,0.6,1.3c0.1,0,0.2,0.1,0.3,0.1c0.4,0,0.8-0.3,0.9-0.7
		c0.1-0.3,0.2-0.6,0.3-0.9c0.2-0.5-0.1-1.1-0.6-1.3C153.9,29,153.8,29,153.6,29L153.6,29z M152.2,33.6c-0.5,0-0.9,0.3-1,0.8
		c0,0.1,0,0.2-0.1,0.3l0,0c0,0,0,0,0,0c0,0,0,0,0,0c0,0,0,0,0,0l0,0c0,0,0,0,0,0c0,0,0,0,0,0c-0.1,0.2-0.1,0.4-0.2,0.7
		c-0.1,0.5,0.2,1.1,0.8,1.2c0.1,0,0.1,0,0.2,0c0.5,0,0.9-0.3,1-0.8c0.1-0.3,0.1-0.6,0.2-0.9c0.1-0.5-0.2-1.1-0.7-1.2
		C152.4,33.6,152.3,33.6,152.2,33.6L152.2,33.6z M151.3,38.4c-0.5,0-0.9,0.4-1,0.9c0,0.3-0.1,0.7-0.1,1c-0.1,0.5,0.3,1,0.9,1.1
		c0,0,0.1,0,0.1,0c0.5,0,0.9-0.4,1-0.9c0-0.3,0.1-0.6,0.1-0.9c0.1-0.5-0.3-1-0.9-1.1C151.4,38.4,151.4,38.4,151.3,38.4L151.3,38.4z
		 M151,43.3c-0.5,0-1,0.4-1,1c0,0,0,0.1,0,0.1c0,0,0,0,0,0c0,0,0,0,0,0c0,0,0,0,0,0c0,0,0,0,0,0c0,0,0,0,0,0c0,0,0,0,0,0
		c0,0,0,0,0,0c0,0,0,0,0,0c0,0,0,0,0,0c0,0,0,0,0,0c0,0,0,0,0,0c0,0,0,0,0,0c0,0,0,0.1,0,0.1l0,0c0,0,0,0.1,0,0.1l0,0c0,0,0,0,0,0
		c0,0,0,0,0,0c0,0,0,0,0,0.1l0,0c0,0,0,0,0,0c0,0,0,0,0,0c0,0,0,0,0,0c0,0,0,0,0,0c0,0,0,0,0,0c0,0,0,0,0,0c0,0,0,0,0,0c0,0,0,0,0,0
		c0,0,0,0,0,0c0,0,0,0,0,0c0,0,0,0,0,0c0,0,0,0,0,0c0,0,0,0,0,0c0,0,0,0,0,0c0,0,0,0,0,0l0,0c0,0,0,0,0,0c0,0,0,0,0,0c0,0,0,0,0,0
		c0,0,0,0,0,0c0,0.1,0,0.2,0,0.3c0,0,0,0,0,0v0c0,0.5,0.4,1,1,1c0,0,0,0,0,0c0.6,0,1-0.5,1-1l0-0.3c0-0.2,0-0.4,0-0.7
		C152,43.8,151.6,43.3,151,43.3C151,43.3,151,43.3,151,43.3L151,43.3z M151.2,48.2C151.2,48.2,151.1,48.2,151.2,48.2
		c-0.6,0.1-1,0.5-1,1.1c0,0.1,0,0.3,0,0.4c0,0,0,0,0,0c0,0,0,0,0,0c0,0,0,0,0,0c0,0,0,0,0,0c0,0,0,0,0,0c0,0,0,0.1,0,0.1
		c0,0,0,0,0,0c0,0.1,0,0.3,0,0.4c0.1,0.5,0.5,0.9,1,0.9c0,0,0.1,0,0.1,0c0.5-0.1,0.9-0.6,0.9-1.1c0-0.3-0.1-0.6-0.1-1
		C152.1,48.6,151.7,48.2,151.2,48.2L151.2,48.2z M151.9,53c-0.1,0-0.1,0-0.2,0c-0.5,0.1-0.9,0.6-0.8,1.2c0,0.1,0,0.1,0,0.2
		c0,0,0,0,0,0c0,0,0,0,0,0c0,0,0,0,0,0c0,0,0,0,0,0c0,0,0,0,0,0c0,0,0,0,0,0c0,0,0,0,0,0c0,0,0,0,0,0c0,0,0,0,0,0c0,0,0,0,0,0
		c0,0,0,0,0,0c0,0,0,0,0,0c0,0,0,0,0,0c0,0,0,0,0,0c0,0,0,0,0,0c0,0,0,0,0,0c0,0,0,0,0,0c0,0,0,0,0,0c0,0,0,0,0,0c0,0,0,0,0,0
		c0,0,0,0,0,0c0,0,0,0,0,0c0,0,0,0,0,0c0,0,0,0,0,0c0,0,0,0,0,0c0,0,0,0,0,0c0,0,0,0,0,0.1c0,0,0,0,0,0c0,0,0,0,0,0c0,0,0,0,0,0
		c0,0,0,0,0,0c0,0,0,0,0,0c0,0,0,0,0,0c0,0,0,0,0,0c0,0,0,0,0,0c0,0,0,0,0,0c0,0,0,0,0,0c0,0,0,0,0,0c0,0,0,0,0,0c0,0,0,0,0,0
		c0,0,0,0,0,0c0,0,0,0,0,0c0,0,0,0,0,0c0,0,0,0,0,0c0,0,0,0,0,0c0,0,0,0,0,0c0,0,0,0,0,0c0,0,0,0,0,0c0,0,0,0,0,0c0,0,0,0,0,0
		c0,0,0,0,0,0c0,0,0,0,0,0l0,0c0,0,0,0,0,0.1l0,0c0,0,0,0,0,0c0,0,0,0,0,0c0,0,0,0,0,0l0,0c0,0.1,0,0.1,0,0.2c0.1,0.5,0.5,0.8,1,0.8
		c0.1,0,0.2,0,0.2,0c0.5-0.1,0.9-0.7,0.7-1.2c-0.1-0.3-0.1-0.6-0.2-0.9C152.8,53.4,152.4,53,151.9,53L151.9,53z M153.2,57.8
		c-0.1,0-0.2,0-0.3,0.1c-0.5,0.2-0.8,0.7-0.6,1.3c0,0,0,0,0,0c0.1,0.2,0.1,0.3,0.2,0.5c0,0,0,0,0,0c0,0,0,0,0,0c0,0,0,0,0,0
		c0,0,0,0,0,0c0,0,0,0,0,0c0,0,0,0,0,0c0,0,0,0,0,0c0,0,0,0,0,0c0,0,0,0,0,0c0,0,0,0,0,0c0,0,0,0,0,0c0,0,0,0,0,0c0,0,0,0,0,0.1
		c0,0,0,0,0,0c0,0,0,0,0,0c0,0,0,0,0,0c0,0,0,0,0,0c0,0,0,0,0,0c0,0,0,0,0,0c0,0,0,0,0,0c0,0,0,0,0,0c0,0,0,0,0,0c0,0,0,0.1,0,0.1
		c0,0,0,0,0,0c0,0,0,0,0,0c0,0,0,0,0,0c0,0,0,0,0,0c0,0,0,0,0,0c0,0,0,0,0,0c0,0,0,0,0,0c0,0,0,0,0,0c0,0,0,0,0,0c0,0,0,0,0,0
		c0,0,0,0.1,0,0.1c0.1,0.4,0.5,0.7,0.9,0.7c0.1,0,0.2,0,0.3-0.1c0.5-0.2,0.8-0.8,0.6-1.3c-0.1-0.3-0.2-0.6-0.3-0.9
		C154,58,153.6,57.8,153.2,57.8L153.2,57.8z M155,62.3c-0.1,0-0.3,0-0.4,0.1c-0.5,0.2-0.7,0.8-0.5,1.3c0.1,0.2,0.2,0.5,0.3,0.7
		c0,0,0,0,0,0c0,0,0,0,0,0c0,0,0,0,0,0c0,0,0,0,0,0c0,0,0,0,0,0c0,0,0,0,0,0c0,0,0,0,0,0l0,0c0,0,0,0.1,0.1,0.1
		c0.2,0.4,0.5,0.6,0.9,0.6c0.1,0,0.3,0,0.4-0.1c0.5-0.2,0.7-0.8,0.5-1.3c-0.1-0.3-0.3-0.6-0.4-0.9C155.7,62.5,155.4,62.3,155,62.3
		L155,62.3z M157.3,66.6c-0.2,0-0.4,0-0.5,0.1c-0.5,0.3-0.6,0.9-0.3,1.4c0,0,0,0,0,0c0,0,0,0,0,0c0,0,0,0,0,0c0,0,0,0,0,0l0,0
		c0.1,0.2,0.2,0.4,0.4,0.6c0,0.1,0.1,0.2,0.1,0.2c0.2,0.3,0.5,0.5,0.8,0.5c0.2,0,0.4,0,0.5-0.2c0.5-0.3,0.6-0.9,0.3-1.4
		c-0.2-0.3-0.3-0.5-0.5-0.8C157.9,66.8,157.6,66.6,157.3,66.6L157.3,66.6z M160,70.7c-0.2,0-0.4,0.1-0.6,0.2c-0.4,0.3-0.5,1-0.2,1.4
		c0,0,0,0,0,0c0,0,0,0,0,0c0,0,0,0,0,0c0,0,0,0,0,0c0,0,0,0,0,0c0,0,0,0,0,0c0,0,0,0,0,0c0,0,0,0,0,0c0,0,0,0,0,0c0,0,0,0,0,0
		c0,0,0,0,0,0c0,0,0,0,0,0c0,0,0,0,0,0c0,0,0,0,0,0c0,0,0,0,0,0c0,0,0,0,0,0c0,0,0,0,0,0c0,0,0,0,0,0c0,0,0,0,0,0c0,0,0,0,0,0.1
		c0,0,0,0,0,0c0,0,0,0,0,0c0,0,0,0,0,0c0,0,0,0,0,0c0,0,0,0,0,0c0,0,0,0,0,0c0,0,0,0,0,0c0,0,0,0,0,0c0,0,0,0,0,0c0,0,0,0,0,0
		c0,0,0,0,0,0c0,0,0,0,0,0c0,0,0,0,0,0c0.1,0.2,0.3,0.3,0.4,0.5c0.2,0.2,0.5,0.4,0.8,0.4c0.2,0,0.4-0.1,0.6-0.2
		c0.4-0.3,0.5-1,0.2-1.4c-0.2-0.2-0.4-0.5-0.6-0.8C160.6,70.8,160.3,70.7,160,70.7L160,70.7z M163.2,74.4c-0.2,0-0.5,0.1-0.7,0.3
		c-0.4,0.4-0.4,1,0,1.4c0.2,0.2,0.5,0.5,0.7,0.7c0.2,0.2,0.5,0.3,0.7,0.3s0.5-0.1,0.7-0.3c0.4-0.4,0.4-1,0-1.4
		c-0.2-0.2-0.4-0.5-0.7-0.7C163.7,74.5,163.4,74.4,163.2,74.4L163.2,74.4z M166.7,77.7c-0.3,0-0.6,0.1-0.8,0.4
		c-0.4,0.4-0.3,1.1,0.1,1.4c0,0,0.1,0.1,0.1,0.1c0,0,0,0,0,0c0,0,0,0,0,0c0,0,0,0,0,0c0,0,0,0,0,0c0,0,0,0,0,0c0,0,0,0,0,0
		c0,0,0,0,0,0c0,0,0,0,0,0c0,0,0,0,0,0c0,0,0,0,0,0c0,0,0,0,0,0c0,0,0,0,0,0c0,0,0,0,0,0c0,0,0,0,0,0c0,0,0.1,0.1,0.1,0.1l0,0
		c0,0,0,0,0,0l0,0c0,0,0,0,0,0c0,0,0,0,0,0c0,0,0.1,0,0.1,0.1c0,0,0,0,0,0c0,0,0,0,0,0c0,0,0,0,0,0c0,0,0,0,0,0c0,0,0,0,0,0
		c0,0,0,0,0,0c0,0,0,0,0,0c0,0,0,0,0,0c0,0,0,0,0,0c0,0,0,0,0,0c0,0,0,0,0,0c0,0,0,0,0,0c0.1,0.1,0.2,0.1,0.3,0.2
		c0.2,0.1,0.4,0.2,0.6,0.2c0.3,0,0.6-0.1,0.8-0.4c0.3-0.4,0.3-1.1-0.2-1.4c-0.2-0.2-0.5-0.4-0.7-0.6C167.2,77.8,167,77.7,166.7,77.7
		L166.7,77.7z M170.7,80.7c-0.3,0-0.6,0.2-0.8,0.4c-0.3,0.5-0.2,1.1,0.3,1.4c0,0,0.1,0.1,0.1,0.1c0,0,0,0,0,0c0,0,0,0,0,0
		c0,0,0,0,0,0c0,0,0,0,0,0c0,0,0,0,0,0c0,0,0,0,0,0c0,0,0,0,0,0c0,0,0,0,0,0c0,0,0,0,0,0c0,0,0,0,0,0c0,0,0,0,0,0c0,0,0,0,0,0
		c0,0,0,0,0,0c0,0,0,0,0,0c0,0,0,0,0,0c0,0,0,0,0,0c0,0,0,0,0,0l0,0c0,0,0,0,0,0l0,0c0,0,0,0,0,0c0,0,0,0,0,0c0,0,0,0,0,0
		c0,0,0,0,0,0c0,0,0,0,0,0l0,0c0,0,0,0,0,0l0,0c0.1,0.1,0.3,0.2,0.4,0.3l0,0c0,0,0,0,0,0c0,0,0,0,0,0c0,0,0,0,0,0c0,0,0,0,0,0
		c0,0,0,0,0,0c0,0,0,0,0,0c0,0,0,0,0,0c0,0,0,0,0,0c0,0,0,0,0,0c0,0,0,0,0,0c0.2,0.1,0.4,0.2,0.5,0.2c0.3,0,0.7-0.2,0.8-0.5
		c0.3-0.5,0.2-1.1-0.3-1.4c-0.3-0.2-0.5-0.3-0.8-0.5C171,80.7,170.8,80.7,170.7,80.7L170.7,80.7z M174.9,83.1
		c-0.4,0-0.7,0.2-0.9,0.5c-0.3,0.5-0.1,1.1,0.4,1.3c0,0,0,0,0.1,0l0,0c0,0,0,0,0,0c0,0,0,0,0,0c0,0,0,0,0,0c0,0,0,0,0,0c0,0,0,0,0,0
		c0.3,0.1,0.5,0.3,0.8,0.4c0.1,0.1,0.3,0.1,0.4,0.1c0.4,0,0.7-0.2,0.9-0.6c0.2-0.5,0-1.1-0.5-1.3c-0.3-0.1-0.6-0.3-0.9-0.4
		C175.2,83.2,175,83.1,174.9,83.1L174.9,83.1z M179.3,85.1c-0.4,0-0.8,0.2-0.9,0.6c-0.2,0.5,0.1,1.1,0.6,1.3c0.1,0,0.2,0.1,0.3,0.1
		c0,0,0,0,0,0c0,0,0,0,0,0l0,0c0,0,0,0,0,0c0,0,0,0,0,0c0,0,0,0,0,0c0,0,0,0,0,0c0,0,0,0,0,0c0,0,0,0,0,0c0,0,0,0,0,0c0,0,0,0,0,0
		c0,0,0,0,0,0c0,0,0,0,0,0c0,0,0,0,0,0c0,0,0,0,0,0c0,0,0,0,0,0c0,0,0,0,0,0c0,0,0,0,0,0c0,0,0,0,0,0c0,0,0,0,0,0c0,0,0,0,0,0
		c0,0,0,0,0,0c0,0,0,0,0,0c0,0,0,0,0,0c0,0,0,0,0,0c0,0,0,0,0,0c0,0,0,0,0,0c0,0,0,0,0,0c0,0,0,0,0,0c0,0,0,0,0,0c0,0,0,0,0,0
		c0,0,0,0,0,0c0,0,0,0,0,0c0,0,0,0,0,0c0,0,0,0,0,0c0,0,0,0,0,0c0,0,0,0,0,0c0,0,0,0,0,0c0,0,0,0,0,0c0,0,0,0,0,0c0,0,0,0,0,0
		c0,0,0,0,0,0c0,0,0,0,0,0c0,0,0,0,0,0c0,0,0,0,0,0c0.1,0,0.2,0.1,0.3,0.1c0.1,0,0.2,0.1,0.3,0.1c0.4,0,0.8-0.3,0.9-0.7
		c0.2-0.5-0.1-1.1-0.6-1.3c-0.3-0.1-0.6-0.2-0.9-0.3C179.6,85.1,179.4,85.1,179.3,85.1L179.3,85.1z M184,86.6c-0.4,0-0.9,0.3-1,0.8
		c-0.1,0.5,0.2,1.1,0.7,1.2c0,0,0,0,0,0l0,0c0,0,0,0,0,0c0,0,0,0,0,0c0,0,0,0,0,0c0,0,0,0,0,0c0,0,0,0,0,0c0,0,0,0,0,0c0,0,0,0,0,0
		c0.3,0.1,0.6,0.2,0.9,0.2c0.1,0,0.2,0,0.2,0c0.5,0,0.9-0.3,1-0.8c0.1-0.5-0.2-1.1-0.7-1.2c-0.3-0.1-0.6-0.1-0.9-0.2
		C184.1,86.6,184.1,86.6,184,86.6L184,86.6z M188.8,87.6c-0.5,0-0.9,0.4-1,0.9c-0.1,0.5,0.3,1.1,0.8,1.1c0.3,0,0.7,0.1,1,0.1
		c0,0,0.1,0,0.1,0c0.5,0,0.9-0.4,1-0.9c0.1-0.5-0.3-1-0.9-1.1c-0.3,0-0.6-0.1-0.9-0.1C188.9,87.6,188.8,87.6,188.8,87.6L188.8,87.6z
		 M193.6,88c-0.5,0-1,0.4-1,1c0,0.6,0.4,1,1,1c0.1,0,0.2,0,0.3,0c0,0,0,0,0,0c0,0,0,0,0,0c0,0,0,0,0,0c0,0,0,0,0,0c0,0,0,0,0,0
		c0,0,0,0,0,0c0,0,0,0,0,0c0,0,0,0,0,0c0.2,0,0.4,0,0.6,0c0,0,0,0,0,0c0.5,0,1-0.4,1-1c0-0.6-0.4-1-1-1C194.3,88,194,88,193.6,88
		C193.7,88,193.7,88,193.6,88L193.6,88z M199.5,87.8c0,0-0.1,0-0.1,0c-0.3,0-0.6,0.1-1,0.1c-0.6,0-1,0.5-0.9,1.1
		c0,0.5,0.5,0.9,1,0.9c0,0,0.1,0,0.1,0c0.3,0,0.7-0.1,1-0.1c0.5-0.1,0.9-0.5,0.9-1.1C200.4,88.2,200,87.8,199.5,87.8L199.5,87.8z
		 M204.3,87c-0.1,0-0.1,0-0.2,0c-0.3,0.1-0.6,0.1-0.9,0.2c-0.5,0.1-0.9,0.6-0.8,1.2c0.1,0.5,0.5,0.8,1,0.8c0.1,0,0.1,0,0.2,0
		c0.3-0.1,0.7-0.1,1-0.2c0.5-0.1,0.9-0.6,0.8-1.2C205.2,87.3,204.8,87,204.3,87L204.3,87z M209,85.7c-0.1,0-0.2,0-0.3,0.1
		c-0.3,0.1-0.6,0.2-0.9,0.3c-0.5,0.2-0.8,0.7-0.7,1.3c0.1,0.4,0.5,0.7,1,0.7c0.1,0,0.2,0,0.3,0c0,0,0,0,0.1,0c0,0,0,0,0,0
		c0,0,0,0,0,0c0.2-0.1,0.3-0.1,0.5-0.2l0,0c0,0,0,0,0,0c0,0,0,0,0,0c0,0,0,0,0,0c0,0,0,0,0,0c0,0,0,0,0,0l0,0c0,0,0,0,0,0
		c0,0,0,0,0,0c0,0,0,0,0,0c0,0,0,0,0,0c0,0,0,0,0,0l0,0c0.1,0,0.2-0.1,0.3-0.1c0.5-0.2,0.8-0.7,0.6-1.3
		C209.8,86,209.5,85.7,209,85.7L209,85.7z M213.6,83.9c-0.1,0-0.3,0-0.4,0.1c-0.3,0.1-0.6,0.3-0.9,0.4c-0.5,0.2-0.7,0.8-0.5,1.3
		c0.2,0.4,0.5,0.6,0.9,0.6c0.1,0,0.3,0,0.4-0.1c0,0,0,0,0,0c0,0,0,0,0,0c0,0,0,0,0,0s0,0,0,0c0,0,0,0,0,0c0.2-0.1,0.5-0.2,0.7-0.3
		c0,0,0,0,0,0c0,0,0,0,0,0c0,0,0,0,0,0c0,0,0,0,0,0c0.1,0,0.1,0,0.2-0.1c0.5-0.2,0.7-0.8,0.5-1.3C214.3,84.1,214,83.9,213.6,83.9
		L213.6,83.9z M217.9,81.6c-0.2,0-0.4,0-0.5,0.1c-0.3,0.2-0.5,0.3-0.8,0.5c-0.5,0.3-0.6,0.9-0.4,1.4c0.2,0.3,0.5,0.5,0.9,0.5
		c0.2,0,0.3,0,0.5-0.1c0.2-0.1,0.4-0.3,0.7-0.4c0,0,0,0,0,0c0,0,0,0,0,0c0,0,0,0,0,0l0,0c0,0,0,0,0,0l0,0c0.1,0,0.1-0.1,0.2-0.1
		c0.5-0.3,0.6-0.9,0.3-1.4C218.5,81.8,218.2,81.6,217.9,81.6L217.9,81.6z M221.9,78.8c-0.2,0-0.4,0.1-0.6,0.2
		c-0.3,0.2-0.5,0.4-0.8,0.6c-0.4,0.3-0.5,1-0.2,1.4c0.2,0.3,0.5,0.4,0.8,0.4c0.2,0,0.4-0.1,0.6-0.2c0.3-0.2,0.5-0.4,0.8-0.6
		c0.4-0.3,0.5-1,0.2-1.4C222.5,79,222.2,78.8,221.9,78.8L221.9,78.8z M225.6,75.6c-0.3,0-0.5,0.1-0.7,0.3c-0.2,0.2-0.5,0.4-0.7,0.7
		c-0.4,0.4-0.4,1-0.1,1.4c0.2,0.2,0.5,0.3,0.7,0.3c0.2,0,0.5-0.1,0.7-0.3c0.1-0.1,0.2-0.2,0.3-0.2l0,0c0,0,0,0,0,0c0,0,0,0,0,0
		c0,0,0,0,0,0c0,0,0,0,0,0c0,0,0,0,0,0c0,0,0,0,0,0c0,0,0,0,0,0c0,0,0,0,0,0c0,0,0,0,0,0c0,0,0,0,0,0c0,0,0,0,0,0c0,0,0,0,0,0
		c0,0,0,0,0,0c0,0,0,0,0,0c0,0,0,0,0,0c0,0,0,0,0,0c0,0,0,0,0,0c0,0,0,0,0,0c0,0,0,0,0,0c0,0,0,0,0,0c0,0,0,0,0,0c0,0,0,0,0,0
		c0,0,0,0,0,0c0,0,0,0,0,0c0,0,0,0,0,0c0,0,0,0,0,0c0,0,0,0,0,0c0,0,0,0,0,0c0,0,0,0,0,0c0,0,0,0,0,0c0,0,0,0,0,0l0,0
		c0.1-0.1,0.2-0.2,0.3-0.3c0.4-0.4,0.4-1,0-1.4C226.1,75.7,225.9,75.6,225.6,75.6L225.6,75.6z M228.9,72c-0.3,0-0.6,0.1-0.8,0.4
		c-0.2,0.2-0.4,0.5-0.6,0.7c-0.4,0.4-0.3,1,0.1,1.4c0.2,0.2,0.4,0.2,0.7,0.2c0.3,0,0.6-0.1,0.8-0.3c0.1-0.1,0.1-0.2,0.2-0.3
		c0,0,0,0,0,0c0,0,0,0,0,0c0,0,0,0,0,0c0,0,0,0,0,0c0,0,0,0,0,0c0,0,0,0,0,0c0,0,0,0,0,0c0,0,0,0,0,0c0,0,0,0,0,0c0,0,0,0,0,0
		c0,0,0,0,0,0c0,0,0,0,0,0c0.1-0.1,0.2-0.2,0.3-0.3c0,0,0,0,0,0c0,0,0,0,0,0c0,0,0,0,0,0c0,0,0,0,0,0c0,0,0,0,0,0c0,0,0,0,0,0
		c0,0,0,0,0,0c0,0,0,0,0,0c0,0,0,0,0,0c0,0,0,0,0,0c0,0,0,0,0,0c0,0,0,0,0,0c0,0,0,0,0,0c0,0,0,0,0,0c0,0,0,0,0,0l0,0c0,0,0,0,0,0
		c0,0,0,0,0,0c0.4-0.4,0.3-1.1-0.1-1.4C229.4,72.1,229.1,72,228.9,72L228.9,72z M231.8,68.1c-0.3,0-0.6,0.2-0.8,0.5
		c-0.2,0.3-0.4,0.5-0.5,0.8c-0.3,0.5-0.2,1.1,0.3,1.4c0.2,0.1,0.4,0.2,0.6,0.2c0.3,0,0.6-0.2,0.8-0.4c0.2-0.3,0.3-0.5,0.5-0.8l0,0
		c0,0,0,0,0,0c0,0,0,0,0,0c0,0,0,0,0,0c0,0,0,0,0,0c0,0,0,0,0,0c0,0,0,0,0,0c0,0,0,0,0,0c0,0,0,0,0,0c0,0,0,0,0,0c0,0,0,0,0,0
		c0.3-0.5,0.2-1.1-0.3-1.4C232.2,68.2,232,68.1,231.8,68.1L231.8,68.1z M234.3,63.9c-0.4,0-0.7,0.2-0.9,0.5
		c-0.1,0.3-0.3,0.6-0.4,0.8c-0.3,0.5-0.1,1.1,0.4,1.4c0.2,0.1,0.3,0.1,0.5,0.1c0.4,0,0.7-0.2,0.9-0.5c0.1-0.1,0.1-0.3,0.2-0.4
		c0,0,0,0,0,0c0,0,0,0,0,0c0,0,0,0,0,0c0,0,0,0,0,0c0,0,0,0,0,0c0,0,0,0,0,0c0,0,0,0,0,0c0,0,0,0,0,0c0,0,0,0,0,0c0,0,0,0,0,0
		c0,0,0,0,0,0c0,0,0,0,0,0c0,0,0,0,0,0c0,0,0,0,0-0.1c0,0,0,0,0,0c0,0,0,0,0,0c0,0,0,0,0,0c0,0,0,0,0,0c0,0,0,0,0,0c0,0,0,0,0,0
		c0,0,0,0,0,0c0,0,0,0,0,0c0,0,0,0,0,0c0-0.1,0.1-0.2,0.1-0.3c0.2-0.5,0.1-1.1-0.4-1.3C234.6,63.9,234.4,63.9,234.3,63.9L234.3,63.9
		z M236.2,59.4c-0.4,0-0.8,0.2-0.9,0.7c-0.1,0.3-0.2,0.6-0.3,0.9c-0.2,0.5,0,1.1,0.6,1.3c0.1,0,0.2,0.1,0.4,0.1
		c0.4,0,0.8-0.2,0.9-0.6c0-0.1,0.1-0.2,0.1-0.3l0,0c0,0,0,0,0,0c0,0,0,0,0,0c0,0,0,0,0,0c0,0,0,0,0,0c0,0,0,0,0,0c0,0,0,0,0,0
		c0,0,0,0,0,0c0,0,0,0,0,0c0,0,0,0,0,0c0,0,0,0,0,0c0,0,0,0,0,0c0.1-0.1,0.1-0.3,0.2-0.4c0,0,0,0,0,0c0,0,0,0,0,0c0,0,0,0,0,0
		c0,0,0,0,0,0c0,0,0,0,0,0c0,0,0,0,0,0c0,0,0,0,0,0c0,0,0,0,0,0c0,0,0,0,0,0c0,0,0,0,0,0c0,0,0,0,0,0c0.2-0.5-0.1-1.1-0.6-1.3
		C236.5,59.4,236.3,59.4,236.2,59.4L236.2,59.4z M237.7,54.7c-0.4,0-0.9,0.3-1,0.8c-0.1,0.3-0.2,0.6-0.2,0.9
		c-0.1,0.5,0.2,1.1,0.7,1.2c0.1,0,0.2,0,0.3,0c0.4,0,0.8-0.3,1-0.7c0.1-0.2,0.1-0.5,0.2-0.7c0,0,0,0,0,0c0,0,0,0,0,0c0,0,0,0,0,0
		c0,0,0,0,0,0c0,0,0,0,0,0l0,0c0-0.1,0-0.1,0-0.2c0.1-0.5-0.2-1.1-0.7-1.2C237.8,54.7,237.8,54.7,237.7,54.7L237.7,54.7z
		 M238.6,49.9c-0.5,0-0.9,0.4-1,0.9c0,0.3-0.1,0.6-0.1,0.9c-0.1,0.5,0.3,1.1,0.8,1.1c0.1,0,0.1,0,0.2,0c0.5,0,0.9-0.4,1-0.8
		c0.1-0.3,0.1-0.7,0.1-1c0.1-0.5-0.3-1.1-0.9-1.1C238.7,49.9,238.6,49.9,238.6,49.9L238.6,49.9z M239,45.1c-0.5,0-1,0.4-1,1
		c0,0.3,0,0.6,0,1c0,0.6,0.4,1,1,1c0,0,0,0,0,0c0.5,0,1-0.4,1-1c0-0.1,0-0.3,0-0.4v0c0,0,0,0,0,0l0,0c0,0,0,0,0,0c0,0,0,0,0,0
		c0,0,0,0,0,0l0,0c0,0,0,0,0,0c0,0,0,0,0,0c0,0,0,0,0,0c0,0,0,0,0,0c0,0,0,0,0,0c0,0,0,0,0,0c0,0,0,0,0,0c0,0,0,0,0,0c0,0,0,0,0,0
		c0-0.2,0-0.3,0-0.5C240,45.5,239.6,45.1,239,45.1C239,45.1,239,45.1,239,45.1L239,45.1z M238.8,40.2
		C238.8,40.2,238.8,40.2,238.8,40.2c-0.6,0.1-1,0.5-1,1.1c0,0.3,0.1,0.6,0.1,1c0,0.5,0.5,0.9,1,0.9c0,0,0,0,0.1,0
		c0.6,0,1-0.5,0.9-1.1c0-0.1,0-0.2,0-0.2c0,0,0,0,0,0c0,0,0,0,0,0c0,0,0,0,0,0c0,0,0,0,0,0c0,0,0,0,0,0c0,0,0,0,0-0.1c0,0,0,0,0,0
		c0,0,0,0,0,0c0,0,0,0,0,0c0,0,0,0,0,0c0,0,0,0,0,0c0,0,0,0,0,0c0,0,0,0,0,0c0-0.2,0-0.4,0-0.6C239.8,40.6,239.3,40.2,238.8,40.2
		L238.8,40.2z M238.1,35.3c-0.1,0-0.1,0-0.2,0c-0.5,0.1-0.9,0.6-0.8,1.2c0.1,0.3,0.1,0.6,0.2,0.9c0.1,0.5,0.5,0.8,1,0.8
		c0.1,0,0.1,0,0.2,0c0.5-0.1,0.9-0.6,0.8-1.2c0-0.1,0-0.1,0-0.2c0,0,0,0,0,0c0,0,0,0,0,0c0,0,0,0,0,0c0,0,0,0,0,0c0,0,0,0,0,0
		c0,0,0,0,0-0.1c0,0,0,0,0,0c0,0,0,0,0,0c0,0,0,0,0,0c0,0,0,0,0,0c0,0,0,0,0,0c0,0,0,0,0,0c0,0,0,0,0,0c0,0,0,0,0,0c0,0,0,0,0,0
		c0,0,0,0,0,0c0,0,0,0,0,0c0,0,0,0,0,0c0,0,0,0,0,0c0,0,0,0,0,0c0,0,0,0,0,0c0,0,0,0,0,0c0,0,0,0,0,0c0,0,0,0,0,0c0,0,0,0,0,0
		c0,0,0,0,0,0c0,0,0,0,0,0c0,0,0,0,0,0c0,0,0,0,0,0c0,0,0,0,0,0c0,0,0,0,0,0c0,0,0,0,0,0c0,0,0,0,0,0l0,0c0,0,0,0,0-0.1c0,0,0,0,0,0
		c0,0,0,0,0,0c0,0,0,0,0,0c0,0,0,0,0,0c0,0,0,0,0,0c0,0,0,0,0,0c0,0,0,0,0,0c0,0,0,0,0,0c0,0,0,0,0,0c0,0,0,0,0,0c0,0,0,0,0,0
		c0,0,0,0,0,0c0,0,0,0,0,0c0,0,0,0,0,0c0,0,0,0,0,0c0,0,0,0,0,0c0,0,0,0,0,0c0,0,0,0,0,0c0,0,0,0,0,0c0,0,0,0,0,0c0,0,0,0,0,0
		c0,0,0,0,0,0c0-0.1,0-0.1,0-0.2C239,35.7,238.6,35.3,238.1,35.3L238.1,35.3z M236.9,30.6c-0.1,0-0.2,0-0.3,0
		c-0.5,0.2-0.8,0.7-0.6,1.3c0.1,0.3,0.2,0.6,0.3,0.9c0.1,0.4,0.5,0.7,1,0.7c0.1,0,0.2,0,0.3,0c0.5-0.2,0.8-0.7,0.7-1.2
		c0,0,0-0.1,0-0.1c0,0,0,0,0,0c0,0,0,0,0,0c0,0,0,0,0,0c0,0,0,0,0,0c0,0,0,0,0,0c0,0,0,0,0,0c0,0,0,0,0,0c0,0,0,0,0,0c0,0,0,0,0,0
		c0,0,0,0,0,0c0,0,0,0,0,0c0,0,0,0,0,0c0,0,0,0,0,0c0,0,0,0,0,0c0,0,0,0,0,0c0,0,0,0,0,0c0,0,0,0,0,0c0,0,0,0,0,0c0,0,0,0,0,0
		c0,0,0,0,0,0c0,0,0,0,0,0c0,0,0,0,0,0c0,0,0,0,0,0c0,0,0,0,0,0c0,0,0,0,0,0c0,0,0,0,0,0c-0.1-0.2-0.1-0.4-0.2-0.6l0,0c0,0,0,0,0,0
		c0,0,0,0,0,0c0,0,0,0,0,0c0,0,0,0,0,0c0,0,0,0,0,0c0,0,0,0,0,0c0,0,0,0,0,0c0,0,0,0,0,0c0,0,0,0,0,0c0,0,0,0,0,0
		C237.7,30.9,237.3,30.6,236.9,30.6L236.9,30.6z M235.2,26c-0.1,0-0.3,0-0.4,0.1c-0.5,0.2-0.7,0.8-0.5,1.3c0.1,0.3,0.3,0.6,0.4,0.9
		c0.2,0.4,0.5,0.6,0.9,0.6c0.1,0,0.3,0,0.4-0.1c0.5-0.2,0.7-0.8,0.5-1.3c0-0.1-0.1-0.1-0.1-0.2c0,0,0,0,0,0c0,0,0,0,0,0l0,0
		c0,0,0,0,0,0c0,0,0,0,0,0c0,0,0,0,0,0c0,0,0,0,0,0c0,0,0,0,0,0c0,0,0,0,0,0c0,0,0,0,0,0c0,0,0,0,0,0c0,0,0,0,0,0
		c-0.1-0.2-0.2-0.4-0.3-0.6C235.9,26.3,235.6,26,235.2,26L235.2,26z M232.9,21.7c-0.2,0-0.3,0-0.5,0.1c-0.5,0.3-0.6,0.9-0.4,1.4
		c0.2,0.3,0.3,0.6,0.5,0.8c0.2,0.3,0.5,0.5,0.9,0.5c0.2,0,0.3,0,0.5-0.1c0.5-0.3,0.7-0.9,0.4-1.4c-0.2-0.3-0.3-0.6-0.5-0.9
		C233.6,21.9,233.3,21.7,232.9,21.7L232.9,21.7z M230.2,17.6c-0.2,0-0.4,0.1-0.6,0.2c-0.4,0.3-0.5,1-0.2,1.4
		c0.2,0.3,0.4,0.5,0.6,0.8c0.2,0.3,0.5,0.4,0.8,0.4c0.2,0,0.4-0.1,0.6-0.2c0.4-0.3,0.6-0.9,0.2-1.4c-0.1-0.2-0.3-0.4-0.4-0.6
		c0,0,0,0,0,0c0,0,0,0,0,0c0,0,0,0,0,0c0,0,0,0,0,0c0,0,0,0,0,0c0,0,0,0,0,0c0,0,0,0,0,0c0,0,0,0,0,0c0,0,0,0,0,0c0,0,0,0,0,0
		c0,0,0,0,0,0c0,0,0,0,0,0c0,0,0,0,0,0c0,0,0,0,0,0c0,0,0,0,0,0c0,0,0,0,0,0c0-0.1-0.1-0.1-0.1-0.2
		C230.8,17.8,230.5,17.6,230.2,17.6L230.2,17.6z M227.1,13.9c-0.2,0-0.5,0.1-0.7,0.3c-0.4,0.4-0.4,1,0,1.4c0.2,0.2,0.4,0.5,0.6,0.7
		c0.2,0.2,0.5,0.3,0.7,0.3c0.2,0,0.5-0.1,0.7-0.3c0.4-0.4,0.4-1,0.1-1.4c-0.1-0.1-0.2-0.2-0.3-0.4c0,0,0,0,0,0c0,0,0,0,0,0
		c0,0,0,0,0,0c0,0,0,0,0,0c0,0,0,0,0,0c0,0,0,0,0,0c0,0,0,0,0,0c0,0,0,0,0,0c0,0,0,0,0,0c0,0,0,0,0,0c0,0,0,0,0,0c0,0,0,0,0,0
		c0,0,0,0,0,0c0,0,0,0,0,0c0,0,0,0,0,0c0,0,0,0,0,0c0,0,0,0,0,0c0,0,0,0,0,0c0,0,0,0,0,0c0,0,0,0,0,0c0,0,0,0,0,0c0,0,0,0,0,0
		c0,0,0,0,0,0c0,0,0,0,0,0c0,0,0,0,0,0c0,0,0,0,0,0c0,0,0,0,0,0c0,0,0,0,0,0c0,0,0,0,0,0c0,0,0,0,0,0c0,0,0,0,0,0c0,0,0,0,0,0
		c0,0,0,0,0,0c-0.1-0.1-0.1-0.1-0.2-0.2C227.6,14,227.4,13.9,227.1,13.9L227.1,13.9z M223.5,10.5c-0.3,0-0.6,0.1-0.8,0.4
		c-0.4,0.4-0.3,1.1,0.1,1.4c0.2,0.2,0.5,0.4,0.7,0.6c0.2,0.2,0.4,0.3,0.7,0.3c0.3,0,0.5-0.1,0.7-0.3c0.4-0.4,0.3-1-0.1-1.4
		c-0.2-0.2-0.4-0.4-0.6-0.5l0,0c0,0,0,0,0,0c0,0,0,0,0,0c0,0,0,0,0,0c0,0,0,0,0,0c0,0,0,0,0,0c0,0,0,0,0,0c0,0,0,0,0,0
		c0,0-0.1-0.1-0.1-0.1C224,10.6,223.8,10.5,223.5,10.5L223.5,10.5z M219.7,7.6c-0.3,0-0.6,0.2-0.8,0.4c-0.3,0.5-0.2,1.1,0.3,1.4
		c0.3,0.2,0.5,0.4,0.8,0.5c0.2,0.1,0.4,0.2,0.6,0.2c0.3,0,0.6-0.1,0.8-0.4c0.3-0.4,0.2-1.1-0.2-1.4c-0.1-0.1-0.2-0.2-0.3-0.2
		c0,0,0,0,0,0c0,0,0,0,0,0c0,0,0,0,0,0c0,0,0,0,0,0c0,0,0,0,0,0c0,0,0,0,0,0c0,0,0,0,0,0c0,0,0,0,0,0c-0.1-0.1-0.3-0.2-0.4-0.3
		C220.1,7.6,219.9,7.6,219.7,7.6L219.7,7.6z M215.5,5c-0.4,0-0.7,0.2-0.9,0.5c-0.3,0.5-0.1,1.1,0.4,1.4c0.3,0.1,0.6,0.3,0.8,0.5
		c0.2,0.1,0.3,0.1,0.5,0.1c0.4,0,0.7-0.2,0.9-0.5c0.3-0.5,0.1-1.1-0.4-1.4c-0.1,0-0.2-0.1-0.2-0.1c0,0,0,0,0,0c0,0,0,0,0,0
		c0,0,0,0,0,0c0,0,0,0,0,0c0,0,0,0,0,0c0,0,0,0,0,0c0,0,0,0,0,0c0,0,0,0,0,0c0,0,0,0,0,0c0,0,0,0,0,0c0,0,0,0,0,0l0,0c0,0,0,0,0,0
		c0,0,0,0,0,0c-0.2-0.1-0.4-0.2-0.6-0.3C215.8,5.1,215.6,5,215.5,5L215.5,5z M211,3c-0.4,0-0.8,0.2-0.9,0.6
		c-0.2,0.5,0.1,1.1,0.6,1.3c0.3,0.1,0.6,0.2,0.9,0.4c0.1,0.1,0.3,0.1,0.4,0.1c0.4,0,0.8-0.2,0.9-0.6c0.2-0.5,0-1.1-0.5-1.3
		c-0.2-0.1-0.4-0.2-0.6-0.2c0,0,0,0,0,0c0,0,0,0,0,0c0,0,0,0,0,0c0,0,0,0,0,0c0,0,0,0,0,0c0,0,0,0,0,0c0,0,0,0,0,0c0,0,0,0,0,0
		c0,0,0,0,0,0c0,0,0,0,0,0c0,0,0,0,0,0l0,0c-0.1,0-0.2-0.1-0.2-0.1C211.3,3,211.2,3,211,3L211,3z M206.4,1.5c-0.4,0-0.8,0.3-1,0.7
		c-0.1,0.5,0.2,1.1,0.7,1.2c0.3,0.1,0.6,0.2,0.9,0.3c0.1,0,0.2,0,0.3,0c0.4,0,0.8-0.3,1-0.7c0.2-0.5-0.1-1.1-0.7-1.2
		c-0.2-0.1-0.4-0.1-0.6-0.2c0,0,0,0,0,0c0,0,0,0,0,0c0,0,0,0,0,0c0,0,0,0,0,0c0,0,0,0,0,0c0,0,0,0,0,0c0,0,0,0,0,0c0,0,0,0,0,0
		c0,0,0,0,0,0c0,0,0,0,0,0c0,0,0,0,0,0l0,0c-0.1,0-0.2-0.1-0.3-0.1C206.6,1.5,206.5,1.5,206.4,1.5L206.4,1.5z M201.6,0.5
		c-0.5,0-0.9,0.4-1,0.9c-0.1,0.5,0.3,1.1,0.8,1.1c0.3,0,0.6,0.1,0.9,0.2c0.1,0,0.1,0,0.2,0c0.5,0,0.9-0.3,1-0.8
		c0.1-0.5-0.3-1.1-0.8-1.2c-0.1,0-0.1,0-0.2,0c0,0,0,0,0,0c0,0,0,0,0,0c0,0,0,0,0,0c0,0,0,0,0,0c0,0,0,0,0,0c0,0,0,0,0,0
		c0,0,0,0,0,0c0,0,0,0,0,0c0,0,0,0,0,0c0,0,0,0,0,0c0,0,0,0,0,0l0,0c0,0,0,0,0,0c0,0,0,0,0,0c0,0,0,0,0,0c0,0,0,0,0,0c0,0,0,0,0,0
		l0,0c0,0,0,0,0,0l0,0c-0.2,0-0.4-0.1-0.6-0.1C201.7,0.5,201.7,0.5,201.6,0.5L201.6,0.5z"/>
</g>
<g>
	<path class="st0" d="M345,0C345,0,345,0,345,0C345,0,345,0,345,0C345,0,345,0,345,0C345,0,345,0,345,0C345,0,345,0,345,0
		C344.9,0,344.9,0,345,0C344.9,0,344.9,0,345,0C344.9,0,344.9,0,345,0C344.9,0,344.9,0,345,0C344.9,0,344.9,0,345,0
		c-0.1,0-0.1,0-0.1,0c0,0,0,0,0,0c0,0,0,0,0,0c0,0,0,0,0,0c0,0,0,0,0,0c0,0,0,0,0,0c-0.3,0-0.5,0-0.8,0c-0.6,0-1,0.5-1,1
		c0,0.5,0.5,1,1,1c0,0,0,0,0,0c0.3,0,0.6,0,1,0c0.4,0,0.7-0.2,0.9-0.5c0.2,0.3,0.5,0.5,0.8,0.5c0.3,0,0.6,0,1,0c0,0,0,0,0.1,0
		c0.5,0,1-0.4,1-0.9c0-0.6-0.4-1-0.9-1.1c-0.3,0-0.6,0-0.9,0c0,0,0,0,0,0c0,0,0,0,0,0c0,0,0,0,0,0c0,0,0,0,0,0c0,0-0.1,0-0.1,0
		c0,0,0,0,0,0c-0.4,0-0.7,0.2-0.9,0.5C345.7,0.2,345.4,0,345,0L345,0L345,0z M340.1,0.3c0,0-0.1,0-0.1,0c-0.3,0-0.5,0.1-0.8,0.1
		c0,0,0,0,0,0c0,0,0,0,0,0c0,0,0,0,0,0c0,0,0,0,0,0c0,0,0,0,0,0c0,0,0,0,0,0c0,0,0,0,0,0c0,0,0,0,0,0c0,0,0,0,0,0c0,0,0,0,0,0
		c0,0,0,0,0,0c0,0,0,0,0,0c0,0,0,0,0,0c0,0,0,0,0,0c0,0,0,0,0,0c0,0,0,0,0,0c0,0,0,0,0,0c0,0,0,0,0,0c0,0,0,0,0,0c0,0,0,0,0,0
		c0,0,0,0,0,0l0,0c-0.5,0.1-0.9,0.6-0.9,1.1c0.1,0.5,0.5,0.9,1,0.9c0,0,0.1,0,0.1,0c0.3,0,0.6-0.1,0.9-0.1c0.5-0.1,0.9-0.6,0.9-1.1
		C341.1,0.6,340.6,0.3,340.1,0.3L340.1,0.3z M335.3,1.1c-0.1,0-0.1,0-0.2,0c-0.1,0-0.2,0.1-0.4,0.1c0,0,0,0,0,0c0,0,0,0,0,0
		c0,0,0,0,0,0c0,0,0,0,0,0c-0.2,0-0.4,0.1-0.6,0.1c-0.5,0.1-0.9,0.7-0.7,1.2c0.1,0.5,0.5,0.8,1,0.8c0.1,0,0.2,0,0.2,0
		c0.3-0.1,0.6-0.2,0.9-0.2c0.5-0.1,0.9-0.7,0.8-1.2C336.2,1.4,335.8,1.1,335.3,1.1L335.3,1.1z M330.6,2.4c-0.1,0-0.2,0-0.3,0.1
		c0,0,0,0,0,0s0,0,0,0c0,0,0,0,0,0c0,0,0,0,0,0c0,0,0,0,0,0c0,0,0,0,0,0c0,0,0,0,0,0c0,0,0,0,0,0c0,0,0,0,0,0c0,0,0,0,0,0
		c0,0,0,0,0,0c-0.2,0.1-0.4,0.2-0.6,0.2c0,0,0,0,0,0c0,0,0,0,0,0c0,0,0,0,0,0c0,0,0,0,0,0c0,0,0,0,0,0c0,0,0,0,0,0c0,0,0,0,0,0
		c0,0,0,0,0,0c0,0,0,0,0,0c0,0,0,0,0,0c0,0,0,0,0,0l0,0c0,0,0,0,0,0c0,0,0,0,0,0c0,0-0.1,0-0.1,0c-0.5,0.2-0.8,0.8-0.6,1.3
		c0.1,0.4,0.5,0.7,0.9,0.7c0.1,0,0.2,0,0.3-0.1c0.3-0.1,0.6-0.2,0.9-0.3c0.5-0.2,0.8-0.8,0.6-1.3C331.4,2.7,331,2.4,330.6,2.4
		L330.6,2.4z M326.1,4.3c-0.1,0-0.3,0-0.4,0.1c0,0,0,0-0.1,0c0,0,0,0,0,0c0,0,0,0,0,0c0,0,0,0,0,0c0,0,0,0,0,0c0,0,0,0,0,0
		c0,0,0,0,0,0c-0.2,0.1-0.4,0.2-0.6,0.3c0,0,0,0,0,0c0,0,0,0,0,0c0,0,0,0,0,0c0,0,0,0,0,0c0,0,0,0,0,0c0,0,0,0,0,0c0,0,0,0,0,0l0,0
		c-0.1,0-0.1,0.1-0.2,0.1c-0.5,0.2-0.7,0.9-0.4,1.3c0.2,0.3,0.5,0.5,0.9,0.5c0.2,0,0.3,0,0.4-0.1c0.3-0.1,0.6-0.3,0.9-0.4
		c0.5-0.2,0.7-0.8,0.5-1.3C326.8,4.5,326.5,4.3,326.1,4.3L326.1,4.3z M321.8,6.6c-0.2,0-0.4,0-0.5,0.1c-0.2,0.1-0.4,0.2-0.6,0.4
		c0,0,0,0,0,0c0,0,0,0-0.1,0c0,0,0,0,0,0c0,0,0,0,0,0c0,0,0,0,0,0c0,0,0,0,0,0c0,0,0,0,0,0c0,0,0,0,0,0c0,0,0,0,0,0c0,0,0,0,0,0
		c0,0,0,0,0,0c0,0,0,0,0,0c0,0,0,0,0,0c0,0-0.1,0.1-0.1,0.1c-0.5,0.3-0.6,0.9-0.3,1.4c0.2,0.3,0.5,0.5,0.8,0.5
		c0.2,0,0.4-0.1,0.5-0.2c0.3-0.2,0.5-0.3,0.8-0.5c0.5-0.3,0.6-0.9,0.3-1.4C322.5,6.8,322.1,6.6,321.8,6.6L321.8,6.6z M317.8,9.4
		c-0.2,0-0.4,0.1-0.6,0.2c-0.2,0.2-0.4,0.4-0.7,0.5c0,0,0,0,0,0c0,0,0,0,0,0c0,0-0.1,0.1-0.1,0.1c-0.4,0.4-0.5,1-0.1,1.4
		c0.2,0.2,0.5,0.4,0.8,0.4c0.2,0,0.4-0.1,0.6-0.2c0.2-0.2,0.5-0.4,0.7-0.6c0.4-0.3,0.5-1,0.2-1.4C318.4,9.5,318.1,9.4,317.8,9.4
		L317.8,9.4z M314.1,12.6c-0.3,0-0.5,0.1-0.7,0.3c0,0,0,0,0,0c0,0,0,0,0,0c0,0,0,0,0,0c0,0,0,0,0,0c0,0,0,0,0,0c0,0,0,0,0,0l0,0
		c-0.2,0.2-0.4,0.4-0.5,0.6l0,0c0,0,0,0,0,0c0,0,0,0,0,0c0,0,0,0,0,0c0,0,0,0,0,0c0,0,0,0,0,0c0,0,0,0,0,0c0,0,0,0,0,0
		c0,0-0.1,0.1-0.1,0.1c-0.4,0.4-0.4,1,0,1.4c0.2,0.2,0.4,0.3,0.7,0.3c0.3,0,0.5-0.1,0.7-0.3c0.2-0.2,0.4-0.5,0.7-0.7
		c0.4-0.4,0.4-1,0-1.4C314.6,12.7,314.4,12.6,314.1,12.6L314.1,12.6z M310.8,16.3c-0.3,0-0.6,0.1-0.8,0.4c0,0-0.1,0.1-0.1,0.1
		c0,0,0,0,0,0c0,0,0,0,0,0c0,0,0,0,0,0c0,0,0,0,0,0c0,0,0,0,0,0c0,0,0,0,0,0c0,0,0,0,0,0c0,0,0,0,0,0c0,0,0,0,0,0l0,0c0,0,0,0,0,0
		l0,0c-0.1,0.1-0.2,0.2-0.2,0.3c0,0,0,0,0,0c0,0,0,0,0,0c0,0,0,0,0,0c0,0,0,0,0,0c0,0,0,0,0,0c0,0,0,0,0,0c0,0,0,0,0,0c0,0,0,0,0,0
		c0,0,0,0,0,0c0,0,0,0,0,0c-0.1,0.1-0.1,0.1-0.2,0.2c-0.3,0.4-0.3,1.1,0.2,1.4c0.2,0.1,0.4,0.2,0.6,0.2c0.3,0,0.6-0.1,0.8-0.4
		c0.2-0.3,0.4-0.5,0.6-0.7c0.3-0.4,0.3-1.1-0.1-1.4C311.3,16.3,311.1,16.3,310.8,16.3L310.8,16.3z M308,20.2c-0.3,0-0.7,0.2-0.8,0.5
		c-0.2,0.3-0.4,0.6-0.5,0.8c-0.3,0.5-0.1,1.1,0.3,1.4c0.2,0.1,0.3,0.1,0.5,0.1c0.3,0,0.7-0.2,0.9-0.5c0.2-0.3,0.3-0.5,0.5-0.8
		c0.3-0.5,0.2-1.1-0.3-1.4C308.3,20.3,308.2,20.2,308,20.2L308,20.2z M305.6,24.5c-0.4,0-0.7,0.2-0.9,0.6c-0.1,0.2-0.2,0.3-0.2,0.5
		l0,0c0,0,0,0,0,0c0,0,0,0,0,0c0,0,0,0,0,0c0,0,0,0,0,0c0,0,0,0,0,0c0,0,0,0,0,0c0,0,0,0,0,0c0,0,0,0,0,0c0,0,0,0,0,0
		c-0.1,0.1-0.1,0.2-0.2,0.4c-0.2,0.5,0,1.1,0.5,1.3c0.1,0.1,0.3,0.1,0.4,0.1c0.4,0,0.7-0.2,0.9-0.6c0.1-0.3,0.3-0.6,0.4-0.9
		c0.2-0.5,0-1.1-0.5-1.3C305.9,24.5,305.7,24.5,305.6,24.5L305.6,24.5z M303.6,29c-0.4,0-0.8,0.3-0.9,0.7c0,0.1-0.1,0.2-0.1,0.2
		c0,0,0,0,0,0c0,0,0,0,0,0c-0.1,0.2-0.2,0.5-0.2,0.7c-0.2,0.5,0.1,1.1,0.6,1.3c0.1,0,0.2,0.1,0.3,0.1c0.4,0,0.8-0.3,0.9-0.7
		c0.1-0.3,0.2-0.6,0.3-0.9c0.2-0.5-0.1-1.1-0.6-1.3C303.9,29,303.8,29,303.6,29L303.6,29z M302.2,33.6c-0.5,0-0.9,0.3-1,0.8
		c0,0.1,0,0.2-0.1,0.3l0,0c0,0,0,0,0,0c0,0,0,0,0,0c0,0,0,0,0,0l0,0c0,0,0,0,0,0c0,0,0,0,0,0c-0.1,0.2-0.1,0.4-0.2,0.7
		c-0.1,0.5,0.2,1.1,0.8,1.2c0.1,0,0.1,0,0.2,0c0.5,0,0.9-0.3,1-0.8c0.1-0.3,0.1-0.6,0.2-0.9c0.1-0.5-0.2-1.1-0.7-1.2
		C302.4,33.6,302.3,33.6,302.2,33.6L302.2,33.6z M301.3,38.4c-0.5,0-0.9,0.4-1,0.9c0,0.3-0.1,0.7-0.1,1c-0.1,0.5,0.3,1,0.9,1.1
		c0,0,0.1,0,0.1,0c0.5,0,0.9-0.4,1-0.9c0-0.3,0.1-0.6,0.1-0.9c0.1-0.5-0.3-1-0.9-1.1C301.4,38.4,301.4,38.4,301.3,38.4L301.3,38.4z
		 M301,43.3c-0.5,0-1,0.4-1,1c0,0,0,0.1,0,0.1c0,0,0,0,0,0c0,0,0,0,0,0c0,0,0,0,0,0c0,0,0,0,0,0c0,0,0,0,0,0c0,0,0,0,0,0
		c0,0,0,0,0,0c0,0,0,0,0,0c0,0,0,0,0,0c0,0,0,0,0,0c0,0,0,0,0,0c0,0,0,0,0,0c0,0,0,0.1,0,0.1v0c0,0,0,0.1,0,0.1v0c0,0,0,0,0,0
		c0,0,0,0,0,0c0,0,0,0,0,0.1v0c0,0,0,0,0,0c0,0,0,0,0,0c0,0,0,0,0,0c0,0,0,0,0,0c0,0,0,0,0,0c0,0,0,0,0,0c0,0,0,0,0,0c0,0,0,0,0,0
		c0,0,0,0,0,0c0,0,0,0,0,0c0,0,0,0,0,0c0,0,0,0,0,0c0,0,0,0,0,0c0,0,0,0,0,0c0,0,0,0,0,0l0,0c0,0,0,0,0,0c0,0,0,0,0,0c0,0,0,0,0,0
		c0,0,0,0,0,0c0,0.1,0,0.2,0,0.3c0,0,0,0,0,0v0c0,0.5,0.4,1,1,1c0,0,0,0,0,0c0.6,0,1-0.5,1-1l0-0.3c0-0.2,0-0.4,0-0.7
		C302,43.8,301.6,43.3,301,43.3C301,43.3,301,43.3,301,43.3L301,43.3z M301.2,48.2C301.2,48.2,301.1,48.2,301.2,48.2
		c-0.6,0.1-1,0.5-1,1.1c0,0.1,0,0.3,0,0.4c0,0,0,0,0,0c0,0,0,0,0,0c0,0,0,0,0,0c0,0,0,0,0,0c0,0,0,0,0,0c0,0,0,0.1,0,0.1
		c0,0,0,0,0,0c0,0.1,0,0.3,0,0.4c0.1,0.5,0.5,0.9,1,0.9c0,0,0.1,0,0.1,0c0.5-0.1,0.9-0.6,0.9-1.1c0-0.3-0.1-0.6-0.1-1
		C302.1,48.6,301.7,48.2,301.2,48.2L301.2,48.2z M301.9,53c-0.1,0-0.1,0-0.2,0c-0.5,0.1-0.9,0.6-0.8,1.2c0,0.1,0,0.1,0,0.2
		c0,0,0,0,0,0c0,0,0,0,0,0c0,0,0,0,0,0c0,0,0,0,0,0c0,0,0,0,0,0c0,0,0,0,0,0c0,0,0,0,0,0c0,0,0,0,0,0c0,0,0,0,0,0c0,0,0,0,0,0
		c0,0,0,0,0,0c0,0,0,0,0,0c0,0,0,0,0,0c0,0,0,0,0,0c0,0,0,0,0,0c0,0,0,0,0,0c0,0,0,0,0,0c0,0,0,0,0,0c0,0,0,0,0,0c0,0,0,0,0,0
		c0,0,0,0,0,0c0,0,0,0,0,0c0,0,0,0,0,0c0,0,0,0,0,0c0,0,0,0,0,0c0,0,0,0,0,0c0,0,0,0,0,0.1c0,0,0,0,0,0c0,0,0,0,0,0c0,0,0,0,0,0
		c0,0,0,0,0,0c0,0,0,0,0,0c0,0,0,0,0,0c0,0,0,0,0,0c0,0,0,0,0,0c0,0,0,0,0,0c0,0,0,0,0,0c0,0,0,0,0,0c0,0,0,0,0,0c0,0,0,0,0,0
		c0,0,0,0,0,0c0,0,0,0,0,0c0,0,0,0,0,0c0,0,0,0,0,0c0,0,0,0,0,0c0,0,0,0,0,0c0,0,0,0,0,0c0,0,0,0,0,0c0,0,0,0,0,0c0,0,0,0,0,0
		c0,0,0,0,0,0c0,0,0,0,0,0l0,0c0,0,0,0,0,0.1l0,0c0,0,0,0,0,0c0,0,0,0,0,0c0,0,0,0,0,0l0,0c0,0.1,0,0.1,0,0.2c0.1,0.5,0.5,0.8,1,0.8
		c0.1,0,0.2,0,0.2,0c0.5-0.1,0.9-0.7,0.7-1.2c-0.1-0.3-0.1-0.6-0.2-0.9C302.8,53.4,302.4,53,301.9,53L301.9,53z M303.2,57.8
		c-0.1,0-0.2,0-0.3,0.1c-0.5,0.2-0.8,0.7-0.6,1.3l0,0c0.1,0.2,0.1,0.3,0.2,0.5c0,0,0,0,0,0c0,0,0,0,0,0c0,0,0,0,0,0c0,0,0,0,0,0
		c0,0,0,0,0,0c0,0,0,0,0,0c0,0,0,0,0,0c0,0,0,0,0,0c0,0,0,0,0,0c0,0,0,0,0,0c0,0,0,0,0,0c0,0,0,0,0,0c0,0,0,0,0,0.1c0,0,0,0,0,0
		c0,0,0,0,0,0c0,0,0,0,0,0c0,0,0,0,0,0c0,0,0,0,0,0c0,0,0,0,0,0c0,0,0,0,0,0c0,0,0,0,0,0c0,0,0,0,0,0c0,0,0,0.1,0,0.1c0,0,0,0,0,0
		c0,0,0,0,0,0c0,0,0,0,0,0c0,0,0,0,0,0c0,0,0,0,0,0c0,0,0,0,0,0c0,0,0,0,0,0c0,0,0,0,0,0c0,0,0,0,0,0c0,0,0,0,0,0c0,0,0,0.1,0,0.1
		c0.1,0.4,0.5,0.7,0.9,0.7c0.1,0,0.2,0,0.3-0.1c0.5-0.2,0.8-0.8,0.6-1.3c-0.1-0.3-0.2-0.6-0.3-0.9C304,58,303.6,57.8,303.2,57.8
		L303.2,57.8z M305,62.3c-0.1,0-0.3,0-0.4,0.1c-0.5,0.2-0.7,0.8-0.5,1.3c0.1,0.2,0.2,0.5,0.3,0.7c0,0,0,0,0,0c0,0,0,0,0,0
		c0,0,0,0,0,0c0,0,0,0,0,0c0,0,0,0,0,0c0,0,0,0,0,0c0,0,0,0,0,0l0,0c0,0,0,0.1,0.1,0.1c0.2,0.4,0.5,0.6,0.9,0.6c0.1,0,0.3,0,0.4-0.1
		c0.5-0.2,0.7-0.8,0.5-1.3c-0.1-0.3-0.3-0.6-0.4-0.9C305.7,62.5,305.4,62.3,305,62.3L305,62.3z M307.3,66.6c-0.2,0-0.4,0-0.5,0.1
		c-0.5,0.3-0.6,0.9-0.3,1.4c0,0,0,0,0,0c0,0,0,0,0,0c0,0,0,0,0,0c0,0,0,0,0,0l0,0c0.1,0.2,0.2,0.4,0.4,0.6c0,0.1,0.1,0.2,0.1,0.2
		c0.2,0.3,0.5,0.5,0.8,0.5c0.2,0,0.4,0,0.5-0.2c0.5-0.3,0.6-0.9,0.3-1.4c-0.2-0.3-0.3-0.5-0.5-0.8C307.9,66.8,307.6,66.6,307.3,66.6
		L307.3,66.6z M310,70.7c-0.2,0-0.4,0.1-0.6,0.2c-0.4,0.3-0.5,1-0.2,1.4c0,0,0,0,0,0c0,0,0,0,0,0c0,0,0,0,0,0c0,0,0,0,0,0
		c0,0,0,0,0,0c0,0,0,0,0,0c0,0,0,0,0,0c0,0,0,0,0,0c0,0,0,0,0,0c0,0,0,0,0,0c0,0,0,0,0,0c0,0,0,0,0,0c0,0,0,0,0,0c0,0,0,0,0,0
		c0,0,0,0,0,0c0,0,0,0,0,0c0,0,0,0,0,0c0,0,0,0,0,0c0,0,0,0,0,0c0,0,0,0,0,0.1c0,0,0,0,0,0c0,0,0,0,0,0c0,0,0,0,0,0c0,0,0,0,0,0
		c0,0,0,0,0,0c0,0,0,0,0,0c0,0,0,0,0,0c0,0,0,0,0,0c0,0,0,0,0,0c0,0,0,0,0,0c0,0,0,0,0,0c0,0,0,0,0,0c0,0,0,0,0,0
		c0.1,0.2,0.3,0.3,0.4,0.5c0.2,0.2,0.5,0.4,0.8,0.4c0.2,0,0.4-0.1,0.6-0.2c0.4-0.3,0.5-1,0.2-1.4c-0.2-0.2-0.4-0.5-0.6-0.8
		C310.6,70.8,310.3,70.7,310,70.7L310,70.7z M313.2,74.4c-0.2,0-0.5,0.1-0.7,0.3c-0.4,0.4-0.4,1,0,1.4c0.2,0.2,0.5,0.5,0.7,0.7
		c0.2,0.2,0.5,0.3,0.7,0.3s0.5-0.1,0.7-0.3c0.4-0.4,0.4-1,0-1.4c-0.2-0.2-0.4-0.5-0.7-0.7C313.7,74.5,313.4,74.4,313.2,74.4
		L313.2,74.4z M316.7,77.7c-0.3,0-0.6,0.1-0.8,0.4c-0.4,0.4-0.3,1.1,0.1,1.4c0,0,0.1,0.1,0.1,0.1c0,0,0,0,0,0c0,0,0,0,0,0
		c0,0,0,0,0,0c0,0,0,0,0,0c0,0,0,0,0,0c0,0,0,0,0,0c0,0,0,0,0,0c0,0,0,0,0,0c0,0,0,0,0,0c0,0,0,0,0,0c0,0,0,0,0,0c0,0,0,0,0,0
		c0,0,0,0,0,0c0,0,0,0,0,0c0,0,0.1,0.1,0.1,0.1l0,0c0,0,0,0,0,0l0,0c0,0,0,0,0,0c0,0,0,0,0,0c0,0,0.1,0,0.1,0.1c0,0,0,0,0,0
		c0,0,0,0,0,0c0,0,0,0,0,0c0,0,0,0,0,0c0,0,0,0,0,0c0,0,0,0,0,0c0,0,0,0,0,0c0,0,0,0,0,0c0,0,0,0,0,0c0,0,0,0,0,0c0,0,0,0,0,0
		c0,0,0,0,0,0c0.1,0.1,0.2,0.1,0.3,0.2c0.2,0.1,0.4,0.2,0.6,0.2c0.3,0,0.6-0.1,0.8-0.4c0.3-0.4,0.3-1.1-0.2-1.4
		c-0.2-0.2-0.5-0.4-0.7-0.6C317.2,77.8,317,77.7,316.7,77.7L316.7,77.7z M320.7,80.7c-0.3,0-0.6,0.2-0.8,0.4
		c-0.3,0.5-0.2,1.1,0.3,1.4c0,0,0.1,0.1,0.1,0.1c0,0,0,0,0,0c0,0,0,0,0,0c0,0,0,0,0,0c0,0,0,0,0,0c0,0,0,0,0,0c0,0,0,0,0,0
		c0,0,0,0,0,0c0,0,0,0,0,0c0,0,0,0,0,0c0,0,0,0,0,0c0,0,0,0,0,0c0,0,0,0,0,0c0,0,0,0,0,0c0,0,0,0,0,0c0,0,0,0,0,0c0,0,0,0,0,0
		c0,0,0,0,0,0l0,0c0,0,0,0,0,0l0,0c0,0,0,0,0,0c0,0,0,0,0,0c0,0,0,0,0,0c0,0,0,0,0,0c0,0,0,0,0,0l0,0c0,0,0,0,0,0l0,0
		c0.1,0.1,0.3,0.2,0.4,0.3l0,0c0,0,0,0,0,0c0,0,0,0,0,0c0,0,0,0,0,0c0,0,0,0,0,0c0,0,0,0,0,0c0,0,0,0,0,0c0,0,0,0,0,0c0,0,0,0,0,0
		c0,0,0,0,0,0c0,0,0,0,0,0c0.2,0.1,0.4,0.2,0.5,0.2c0.3,0,0.7-0.2,0.8-0.5c0.3-0.5,0.2-1.1-0.3-1.4c-0.3-0.2-0.5-0.3-0.8-0.5
		C321,80.7,320.8,80.7,320.7,80.7L320.7,80.7z M324.9,83.1c-0.4,0-0.7,0.2-0.9,0.5c-0.3,0.5-0.1,1.1,0.4,1.3c0,0,0,0,0.1,0l0,0
		c0,0,0,0,0,0c0,0,0,0,0,0c0,0,0,0,0,0c0,0,0,0,0,0c0,0,0,0,0,0c0.3,0.1,0.5,0.3,0.8,0.4c0.1,0.1,0.3,0.1,0.4,0.1
		c0.4,0,0.7-0.2,0.9-0.6c0.2-0.5,0-1.1-0.5-1.3c-0.3-0.1-0.6-0.3-0.9-0.4C325.2,83.2,325,83.1,324.9,83.1L324.9,83.1z M329.3,85.1
		c-0.4,0-0.8,0.2-0.9,0.6c-0.2,0.5,0.1,1.1,0.6,1.3c0.1,0,0.2,0.1,0.3,0.1c0,0,0,0,0,0c0,0,0,0,0,0l0,0c0,0,0,0,0,0c0,0,0,0,0,0
		c0,0,0,0,0,0c0,0,0,0,0,0c0,0,0,0,0,0c0,0,0,0,0,0c0,0,0,0,0,0c0,0,0,0,0,0c0,0,0,0,0,0c0,0,0,0,0,0c0,0,0,0,0,0c0,0,0,0,0,0
		c0,0,0,0,0,0c0,0,0,0,0,0c0,0,0,0,0,0c0,0,0,0,0,0c0,0,0,0,0,0c0,0,0,0,0,0c0,0,0,0,0,0c0,0,0,0,0,0c0,0,0,0,0,0c0,0,0,0,0,0
		c0,0,0,0,0,0c0,0,0,0,0,0c0,0,0,0,0,0c0,0,0,0,0,0c0,0,0,0,0,0c0,0,0,0,0,0c0,0,0,0,0,0c0,0,0,0,0,0c0,0,0,0,0,0c0,0,0,0,0,0
		c0,0,0,0,0,0c0,0,0,0,0,0c0,0,0,0,0,0c0,0,0,0,0,0c0,0,0,0,0,0c0,0,0,0,0,0c0,0,0,0,0,0c0,0,0,0,0,0c0,0,0,0,0,0c0,0,0,0,0,0
		c0.1,0,0.2,0.1,0.3,0.1c0.1,0,0.2,0.1,0.3,0.1c0.4,0,0.8-0.3,0.9-0.7c0.2-0.5-0.1-1.1-0.6-1.3c-0.3-0.1-0.6-0.2-0.9-0.3
		C329.6,85.1,329.4,85.1,329.3,85.1L329.3,85.1z M334,86.6c-0.4,0-0.9,0.3-1,0.8c-0.1,0.5,0.2,1.1,0.7,1.2c0,0,0,0,0,0l0,0
		c0,0,0,0,0,0c0,0,0,0,0,0c0,0,0,0,0,0c0,0,0,0,0,0c0,0,0,0,0,0c0,0,0,0,0,0c0,0,0,0,0,0c0.3,0.1,0.6,0.2,0.9,0.2c0.1,0,0.2,0,0.2,0
		c0.5,0,0.9-0.3,1-0.8c0.1-0.5-0.2-1.1-0.7-1.2c-0.3-0.1-0.6-0.1-0.9-0.2C334.1,86.6,334.1,86.6,334,86.6L334,86.6z M338.8,87.6
		c-0.5,0-0.9,0.4-1,0.9c-0.1,0.5,0.3,1.1,0.8,1.1c0.3,0,0.7,0.1,1,0.1c0,0,0.1,0,0.1,0c0.5,0,0.9-0.4,1-0.9c0.1-0.5-0.3-1-0.9-1.1
		c-0.3,0-0.6-0.1-0.9-0.1C338.9,87.6,338.8,87.6,338.8,87.6L338.8,87.6z M343.6,88c-0.5,0-1,0.4-1,1c0,0.6,0.4,1,1,1
		c0.1,0,0.2,0,0.3,0c0,0,0,0,0,0c0,0,0,0,0,0c0,0,0,0,0,0c0,0,0,0,0,0c0,0,0,0,0,0c0,0,0,0,0,0c0,0,0,0,0,0c0,0,0,0,0,0
		c0.2,0,0.4,0,0.6,0c0,0,0,0,0,0c0.5,0,1-0.4,1-1c0-0.6-0.4-1-1-1C344.3,88,344,88,343.6,88C343.7,88,343.7,88,343.6,88L343.6,88z
		 M349.5,87.8c0,0-0.1,0-0.1,0c-0.3,0-0.6,0.1-1,0.1c-0.6,0-1,0.5-0.9,1.1c0,0.5,0.5,0.9,1,0.9c0,0,0.1,0,0.1,0c0.3,0,0.7-0.1,1-0.1
		c0.5-0.1,0.9-0.5,0.9-1.1C350.4,88.2,350,87.8,349.5,87.8L349.5,87.8z M354.3,87c-0.1,0-0.1,0-0.2,0c-0.3,0.1-0.6,0.1-0.9,0.2
		c-0.5,0.1-0.9,0.6-0.8,1.2c0.1,0.5,0.5,0.8,1,0.8c0.1,0,0.1,0,0.2,0c0.3-0.1,0.7-0.1,1-0.2c0.5-0.1,0.9-0.6,0.8-1.2
		C355.2,87.3,354.8,87,354.3,87L354.3,87z M359,85.7c-0.1,0-0.2,0-0.3,0.1c-0.3,0.1-0.6,0.2-0.9,0.3c-0.5,0.2-0.8,0.7-0.7,1.3
		c0.1,0.4,0.5,0.7,1,0.7c0.1,0,0.2,0,0.3,0c0,0,0,0,0.1,0c0,0,0,0,0,0c0,0,0,0,0,0c0.2-0.1,0.3-0.1,0.5-0.2l0,0c0,0,0,0,0,0
		c0,0,0,0,0,0c0,0,0,0,0,0c0,0,0,0,0,0c0,0,0,0,0,0l0,0c0,0,0,0,0,0c0,0,0,0,0,0c0,0,0,0,0,0c0,0,0,0,0,0c0,0,0,0,0,0l0,0
		c0.1,0,0.2-0.1,0.3-0.1c0.5-0.2,0.8-0.7,0.6-1.3C359.8,86,359.5,85.7,359,85.7L359,85.7z M363.6,83.9c-0.1,0-0.3,0-0.4,0.1
		c-0.3,0.1-0.6,0.3-0.9,0.4c-0.5,0.2-0.7,0.8-0.5,1.3c0.2,0.4,0.5,0.6,0.9,0.6c0.1,0,0.3,0,0.4-0.1c0,0,0,0,0,0c0,0,0,0,0,0
		c0,0,0,0,0,0s0,0,0,0c0,0,0,0,0,0c0.2-0.1,0.5-0.2,0.7-0.3c0,0,0,0,0,0c0,0,0,0,0,0c0,0,0,0,0,0c0,0,0,0,0,0c0.1,0,0.1,0,0.2-0.1
		c0.5-0.2,0.7-0.8,0.5-1.3C364.3,84.1,364,83.9,363.6,83.9L363.6,83.9z M367.9,81.6c-0.2,0-0.4,0-0.5,0.1c-0.3,0.2-0.5,0.3-0.8,0.5
		c-0.5,0.3-0.6,0.9-0.4,1.4c0.2,0.3,0.5,0.5,0.9,0.5c0.2,0,0.3,0,0.5-0.1c0.2-0.1,0.4-0.3,0.7-0.4c0,0,0,0,0,0c0,0,0,0,0,0
		c0,0,0,0,0,0l0,0c0,0,0,0,0,0l0,0c0.1,0,0.1-0.1,0.2-0.1c0.5-0.3,0.6-0.9,0.3-1.4C368.5,81.8,368.2,81.6,367.9,81.6L367.9,81.6z
		 M371.9,78.8c-0.2,0-0.4,0.1-0.6,0.2c-0.3,0.2-0.5,0.4-0.8,0.6c-0.4,0.3-0.5,1-0.2,1.4c0.2,0.3,0.5,0.4,0.8,0.4
		c0.2,0,0.4-0.1,0.6-0.2c0.3-0.2,0.5-0.4,0.8-0.6c0.4-0.3,0.5-1,0.2-1.4C372.5,79,372.2,78.8,371.9,78.8L371.9,78.8z M375.6,75.6
		c-0.3,0-0.5,0.1-0.7,0.3c-0.2,0.2-0.5,0.4-0.7,0.7c-0.4,0.4-0.4,1-0.1,1.4c0.2,0.2,0.5,0.3,0.7,0.3c0.2,0,0.5-0.1,0.7-0.3
		c0.1-0.1,0.2-0.2,0.3-0.2l0,0c0,0,0,0,0,0c0,0,0,0,0,0c0,0,0,0,0,0c0,0,0,0,0,0c0,0,0,0,0,0c0,0,0,0,0,0c0,0,0,0,0,0c0,0,0,0,0,0
		c0,0,0,0,0,0c0,0,0,0,0,0c0,0,0,0,0,0c0,0,0,0,0,0c0,0,0,0,0,0c0,0,0,0,0,0c0,0,0,0,0,0c0,0,0,0,0,0c0,0,0,0,0,0c0,0,0,0,0,0
		c0,0,0,0,0,0c0,0,0,0,0,0c0,0,0,0,0,0c0,0,0,0,0,0c0,0,0,0,0,0c0,0,0,0,0,0c0,0,0,0,0,0c0,0,0,0,0,0c0,0,0,0,0,0c0,0,0,0,0,0
		c0,0,0,0,0,0c0,0,0,0,0,0c0,0,0,0,0,0l0,0c0.1-0.1,0.2-0.2,0.3-0.3c0.4-0.4,0.4-1,0-1.4C376.1,75.7,375.9,75.6,375.6,75.6
		L375.6,75.6z M378.9,72c-0.3,0-0.6,0.1-0.8,0.4c-0.2,0.2-0.4,0.5-0.6,0.7c-0.4,0.4-0.3,1,0.1,1.4c0.2,0.2,0.4,0.2,0.7,0.2
		c0.3,0,0.6-0.1,0.8-0.3c0.1-0.1,0.1-0.2,0.2-0.3c0,0,0,0,0,0c0,0,0,0,0,0c0,0,0,0,0,0c0,0,0,0,0,0c0,0,0,0,0,0c0,0,0,0,0,0
		c0,0,0,0,0,0c0,0,0,0,0,0c0,0,0,0,0,0c0,0,0,0,0,0c0,0,0,0,0,0c0,0,0,0,0,0c0.1-0.1,0.2-0.2,0.3-0.3c0,0,0,0,0,0c0,0,0,0,0,0
		c0,0,0,0,0,0c0,0,0,0,0,0c0,0,0,0,0,0c0,0,0,0,0,0c0,0,0,0,0,0c0,0,0,0,0,0c0,0,0,0,0,0c0,0,0,0,0,0c0,0,0,0,0,0c0,0,0,0,0,0
		c0,0,0,0,0,0c0,0,0,0,0,0c0,0,0,0,0,0l0,0c0,0,0,0,0,0c0,0,0,0,0,0c0.4-0.4,0.3-1.1-0.1-1.4C379.4,72.1,379.1,72,378.9,72L378.9,72
		z M381.8,68.1c-0.3,0-0.6,0.2-0.8,0.5c-0.2,0.3-0.4,0.5-0.5,0.8c-0.3,0.5-0.2,1.1,0.3,1.4c0.2,0.1,0.4,0.2,0.6,0.2
		c0.3,0,0.6-0.2,0.8-0.4c0.2-0.3,0.3-0.5,0.5-0.8l0,0c0,0,0,0,0,0c0,0,0,0,0,0c0,0,0,0,0,0c0,0,0,0,0,0c0,0,0,0,0,0c0,0,0,0,0,0
		c0,0,0,0,0,0c0,0,0,0,0,0c0,0,0,0,0,0c0,0,0,0,0,0c0.3-0.5,0.2-1.1-0.3-1.4C382.2,68.2,382,68.1,381.8,68.1L381.8,68.1z
		 M384.3,63.9c-0.4,0-0.7,0.2-0.9,0.5c-0.1,0.3-0.3,0.6-0.4,0.8c-0.3,0.5-0.1,1.1,0.4,1.4c0.2,0.1,0.3,0.1,0.5,0.1
		c0.4,0,0.7-0.2,0.9-0.5c0.1-0.1,0.1-0.3,0.2-0.4c0,0,0,0,0,0c0,0,0,0,0,0c0,0,0,0,0,0c0,0,0,0,0,0c0,0,0,0,0,0c0,0,0,0,0,0
		c0,0,0,0,0,0c0,0,0,0,0,0c0,0,0,0,0,0c0,0,0,0,0,0c0,0,0,0,0,0c0,0,0,0,0,0c0,0,0,0,0,0c0,0,0,0,0-0.1c0,0,0,0,0,0c0,0,0,0,0,0
		c0,0,0,0,0,0c0,0,0,0,0,0c0,0,0,0,0,0c0,0,0,0,0,0c0,0,0,0,0,0c0,0,0,0,0,0c0,0,0,0,0,0c0-0.1,0.1-0.2,0.1-0.3
		c0.2-0.5,0.1-1.1-0.4-1.3C384.6,63.9,384.4,63.9,384.3,63.9L384.3,63.9z M386.2,59.4c-0.4,0-0.8,0.2-0.9,0.7
		c-0.1,0.3-0.2,0.6-0.3,0.9c-0.2,0.5,0,1.1,0.6,1.3c0.1,0,0.2,0.1,0.4,0.1c0.4,0,0.8-0.2,0.9-0.6c0-0.1,0.1-0.2,0.1-0.3l0,0
		c0,0,0,0,0,0c0,0,0,0,0,0c0,0,0,0,0,0c0,0,0,0,0,0c0,0,0,0,0,0c0,0,0,0,0,0c0,0,0,0,0,0c0,0,0,0,0,0c0,0,0,0,0,0c0,0,0,0,0,0
		c0,0,0,0,0,0c0.1-0.1,0.1-0.3,0.2-0.4c0,0,0,0,0,0c0,0,0,0,0,0c0,0,0,0,0,0c0,0,0,0,0,0c0,0,0,0,0,0c0,0,0,0,0,0c0,0,0,0,0,0
		c0,0,0,0,0,0c0,0,0,0,0,0c0,0,0,0,0,0c0,0,0,0,0,0c0.2-0.5-0.1-1.1-0.6-1.3C386.5,59.4,386.3,59.4,386.2,59.4L386.2,59.4z
		 M387.7,54.7c-0.4,0-0.9,0.3-1,0.8c-0.1,0.3-0.2,0.6-0.2,0.9c-0.1,0.5,0.2,1.1,0.7,1.2c0.1,0,0.2,0,0.3,0c0.4,0,0.8-0.3,1-0.7
		c0.1-0.2,0.1-0.5,0.2-0.7c0,0,0,0,0,0c0,0,0,0,0,0c0,0,0,0,0,0c0,0,0,0,0,0c0,0,0,0,0,0l0,0c0-0.1,0-0.1,0-0.2
		c0.1-0.5-0.2-1.1-0.7-1.2C387.8,54.7,387.8,54.7,387.7,54.7L387.7,54.7z M388.6,49.9c-0.5,0-0.9,0.4-1,0.9c0,0.3-0.1,0.6-0.1,0.9
		c-0.1,0.5,0.3,1.1,0.8,1.1c0.1,0,0.1,0,0.2,0c0.5,0,0.9-0.4,1-0.8c0.1-0.3,0.1-0.7,0.1-1c0.1-0.5-0.3-1.1-0.9-1.1
		C388.7,49.9,388.6,49.9,388.6,49.9L388.6,49.9z M389,45.1c-0.5,0-1,0.4-1,1c0,0.3,0,0.6,0,1c0,0.6,0.4,1,1,1c0,0,0,0,0,0
		c0.5,0,1-0.4,1-1c0-0.1,0-0.3,0-0.4v0c0,0,0,0,0,0l0,0c0,0,0,0,0,0c0,0,0,0,0,0c0,0,0,0,0,0l0,0c0,0,0,0,0,0c0,0,0,0,0,0
		c0,0,0,0,0,0c0,0,0,0,0,0c0,0,0,0,0,0c0,0,0,0,0,0c0,0,0,0,0,0c0,0,0,0,0,0c0,0,0,0,0,0c0-0.2,0-0.3,0-0.5
		C390,45.5,389.6,45.1,389,45.1C389,45.1,389,45.1,389,45.1L389,45.1z M388.8,40.2C388.8,40.2,388.8,40.2,388.8,40.2
		c-0.6,0.1-1,0.5-1,1.1c0,0.3,0.1,0.6,0.1,1c0,0.5,0.5,0.9,1,0.9c0,0,0,0,0.1,0c0.6,0,1-0.5,0.9-1.1c0-0.1,0-0.2,0-0.2c0,0,0,0,0,0
		c0,0,0,0,0,0c0,0,0,0,0,0c0,0,0,0,0,0c0,0,0,0,0,0c0,0,0,0,0-0.1c0,0,0,0,0,0c0,0,0,0,0,0c0,0,0,0,0,0c0,0,0,0,0,0c0,0,0,0,0,0
		c0,0,0,0,0,0c0,0,0,0,0,0c0-0.2,0-0.4,0-0.6C389.8,40.6,389.3,40.2,388.8,40.2L388.8,40.2z M388.1,35.3c-0.1,0-0.1,0-0.2,0
		c-0.5,0.1-0.9,0.6-0.8,1.2c0.1,0.3,0.1,0.6,0.2,0.9c0.1,0.5,0.5,0.8,1,0.8c0.1,0,0.1,0,0.2,0c0.5-0.1,0.9-0.6,0.8-1.2
		c0-0.1,0-0.1,0-0.2c0,0,0,0,0,0c0,0,0,0,0,0c0,0,0,0,0,0c0,0,0,0,0,0c0,0,0,0,0,0c0,0,0,0,0-0.1c0,0,0,0,0,0c0,0,0,0,0,0
		c0,0,0,0,0,0c0,0,0,0,0,0c0,0,0,0,0,0c0,0,0,0,0,0c0,0,0,0,0,0c0,0,0,0,0,0c0,0,0,0,0,0c0,0,0,0,0,0c0,0,0,0,0,0c0,0,0,0,0,0
		c0,0,0,0,0,0c0,0,0,0,0,0c0,0,0,0,0,0c0,0,0,0,0,0c0,0,0,0,0,0c0,0,0,0,0,0c0,0,0,0,0,0c0,0,0,0,0,0c0,0,0,0,0,0c0,0,0,0,0,0
		c0,0,0,0,0,0c0,0,0,0,0,0c0,0,0,0,0,0c0,0,0,0,0,0c0,0,0,0,0,0l0,0c0,0,0,0,0-0.1c0,0,0,0,0,0c0,0,0,0,0,0c0,0,0,0,0,0c0,0,0,0,0,0
		c0,0,0,0,0,0c0,0,0,0,0,0c0,0,0,0,0,0c0,0,0,0,0,0c0,0,0,0,0,0c0,0,0,0,0,0c0,0,0,0,0,0c0,0,0,0,0,0c0,0,0,0,0,0c0,0,0,0,0,0
		c0,0,0,0,0,0c0,0,0,0,0,0c0,0,0,0,0,0c0,0,0,0,0,0c0,0,0,0,0,0c0,0,0,0,0,0c0,0,0,0,0,0c0,0,0,0,0,0c0-0.1,0-0.1,0-0.2
		C389,35.7,388.6,35.3,388.1,35.3L388.1,35.3z M386.9,30.6c-0.1,0-0.2,0-0.3,0c-0.5,0.2-0.8,0.7-0.6,1.3c0.1,0.3,0.2,0.6,0.3,0.9
		c0.1,0.4,0.5,0.7,1,0.7c0.1,0,0.2,0,0.3,0c0.5-0.2,0.8-0.7,0.7-1.2c0,0,0-0.1,0-0.1c0,0,0,0,0,0c0,0,0,0,0,0c0,0,0,0,0,0
		c0,0,0,0,0,0c0,0,0,0,0,0c0,0,0,0,0,0c0,0,0,0,0,0c0,0,0,0,0,0c0,0,0,0,0,0c0,0,0,0,0,0c0,0,0,0,0,0c0,0,0,0,0,0c0,0,0,0,0,0
		c0,0,0,0,0,0c0,0,0,0,0,0c0,0,0,0,0,0c0,0,0,0,0,0c0,0,0,0,0,0c0,0,0,0,0,0c0,0,0,0,0,0c0,0,0,0,0,0c0,0,0,0,0,0c0,0,0,0,0,0
		c0,0,0,0,0,0c0,0,0,0,0,0c0,0,0,0,0,0c-0.1-0.2-0.1-0.4-0.2-0.6l0,0c0,0,0,0,0,0c0,0,0,0,0,0c0,0,0,0,0,0c0,0,0,0,0,0c0,0,0,0,0,0
		c0,0,0,0,0,0c0,0,0,0,0,0c0,0,0,0,0,0c0,0,0,0,0,0c0,0,0,0,0,0C387.7,30.9,387.3,30.6,386.9,30.6L386.9,30.6z M385.2,26
		c-0.1,0-0.3,0-0.4,0.1c-0.5,0.2-0.7,0.8-0.5,1.3c0.1,0.3,0.3,0.6,0.4,0.9c0.2,0.4,0.5,0.6,0.9,0.6c0.1,0,0.3,0,0.4-0.1
		c0.5-0.2,0.7-0.8,0.5-1.3c0-0.1-0.1-0.1-0.1-0.2c0,0,0,0,0,0c0,0,0,0,0,0l0,0c0,0,0,0,0,0c0,0,0,0,0,0c0,0,0,0,0,0c0,0,0,0,0,0
		c0,0,0,0,0,0c0,0,0,0,0,0c0,0,0,0,0,0c0,0,0,0,0,0c0,0,0,0,0,0c-0.1-0.2-0.2-0.4-0.3-0.6C385.9,26.3,385.6,26,385.2,26L385.2,26z
		 M382.9,21.7c-0.2,0-0.3,0-0.5,0.1c-0.5,0.3-0.6,0.9-0.4,1.4c0.2,0.3,0.3,0.6,0.5,0.8c0.2,0.3,0.5,0.5,0.9,0.5c0.2,0,0.3,0,0.5-0.1
		c0.5-0.3,0.7-0.9,0.4-1.4c-0.2-0.3-0.3-0.6-0.5-0.9C383.6,21.9,383.3,21.7,382.9,21.7L382.9,21.7z M380.2,17.6
		c-0.2,0-0.4,0.1-0.6,0.2c-0.4,0.3-0.5,1-0.2,1.4c0.2,0.3,0.4,0.5,0.6,0.8c0.2,0.3,0.5,0.4,0.8,0.4c0.2,0,0.4-0.1,0.6-0.2
		c0.4-0.3,0.6-0.9,0.2-1.4c-0.1-0.2-0.3-0.4-0.4-0.6c0,0,0,0,0,0c0,0,0,0,0,0c0,0,0,0,0,0c0,0,0,0,0,0c0,0,0,0,0,0c0,0,0,0,0,0
		c0,0,0,0,0,0c0,0,0,0,0,0c0,0,0,0,0,0c0,0,0,0,0,0c0,0,0,0,0,0c0,0,0,0,0,0c0,0,0,0,0,0c0,0,0,0,0,0c0,0,0,0,0,0c0,0,0,0,0,0
		c0-0.1-0.1-0.1-0.1-0.2C380.8,17.8,380.5,17.6,380.2,17.6L380.2,17.6z M377.1,13.9c-0.2,0-0.5,0.1-0.7,0.3c-0.4,0.4-0.4,1,0,1.4
		c0.2,0.2,0.4,0.5,0.6,0.7c0.2,0.2,0.5,0.3,0.7,0.3c0.2,0,0.5-0.1,0.7-0.3c0.4-0.4,0.4-1,0.1-1.4c-0.1-0.1-0.2-0.2-0.3-0.4
		c0,0,0,0,0,0c0,0,0,0,0,0c0,0,0,0,0,0c0,0,0,0,0,0c0,0,0,0,0,0c0,0,0,0,0,0c0,0,0,0,0,0c0,0,0,0,0,0c0,0,0,0,0,0c0,0,0,0,0,0
		c0,0,0,0,0,0c0,0,0,0,0,0c0,0,0,0,0,0c0,0,0,0,0,0c0,0,0,0,0,0c0,0,0,0,0,0c0,0,0,0,0,0c0,0,0,0,0,0c0,0,0,0,0,0c0,0,0,0,0,0
		c0,0,0,0,0,0c0,0,0,0,0,0c0,0,0,0,0,0c0,0,0,0,0,0c0,0,0,0,0,0c0,0,0,0,0,0c0,0,0,0,0,0c0,0,0,0,0,0c0,0,0,0,0,0c0,0,0,0,0,0
		c0,0,0,0,0,0c0,0,0,0,0,0c0,0,0,0,0,0c-0.1-0.1-0.1-0.1-0.2-0.2C377.6,14,377.4,13.9,377.1,13.9L377.1,13.9z M373.5,10.5
		c-0.3,0-0.6,0.1-0.8,0.4c-0.4,0.4-0.3,1.1,0.1,1.4c0.2,0.2,0.5,0.4,0.7,0.6c0.2,0.2,0.4,0.3,0.7,0.3c0.3,0,0.5-0.1,0.7-0.3
		c0.4-0.4,0.3-1-0.1-1.4c-0.2-0.2-0.4-0.4-0.6-0.5l0,0c0,0,0,0,0,0c0,0,0,0,0,0c0,0,0,0,0,0c0,0,0,0,0,0c0,0,0,0,0,0c0,0,0,0,0,0
		c0,0,0,0,0,0c0,0-0.1-0.1-0.1-0.1C374,10.6,373.8,10.5,373.5,10.5L373.5,10.5z M369.7,7.6c-0.3,0-0.6,0.2-0.8,0.4
		c-0.3,0.5-0.2,1.1,0.3,1.4c0.3,0.2,0.5,0.4,0.8,0.5c0.2,0.1,0.4,0.2,0.6,0.2c0.3,0,0.6-0.1,0.8-0.4c0.3-0.4,0.2-1.1-0.2-1.4
		c-0.1-0.1-0.2-0.2-0.3-0.2c0,0,0,0,0,0c0,0,0,0,0,0c0,0,0,0,0,0c0,0,0,0,0,0c0,0,0,0,0,0c0,0,0,0,0,0c0,0,0,0,0,0c0,0,0,0,0,0
		c-0.1-0.1-0.3-0.2-0.4-0.3C370.1,7.6,369.9,7.6,369.7,7.6L369.7,7.6z M365.5,5c-0.4,0-0.7,0.2-0.9,0.5c-0.3,0.5-0.1,1.1,0.4,1.4
		c0.3,0.1,0.6,0.3,0.8,0.5c0.2,0.1,0.3,0.1,0.5,0.1c0.4,0,0.7-0.2,0.9-0.5c0.3-0.5,0.1-1.1-0.4-1.4c-0.1,0-0.2-0.1-0.2-0.1
		c0,0,0,0,0,0c0,0,0,0,0,0c0,0,0,0,0,0c0,0,0,0,0,0c0,0,0,0,0,0c0,0,0,0,0,0c0,0,0,0,0,0c0,0,0,0,0,0c0,0,0,0,0,0c0,0,0,0,0,0
		c0,0,0,0,0,0l0,0c0,0,0,0,0,0c0,0,0,0,0,0c-0.2-0.1-0.4-0.2-0.6-0.3C365.8,5.1,365.6,5,365.5,5L365.5,5z M361,3
		c-0.4,0-0.8,0.2-0.9,0.6c-0.2,0.5,0.1,1.1,0.6,1.3c0.3,0.1,0.6,0.2,0.9,0.4c0.1,0.1,0.3,0.1,0.4,0.1c0.4,0,0.8-0.2,0.9-0.6
		c0.2-0.5,0-1.1-0.5-1.3c-0.2-0.1-0.4-0.2-0.6-0.2c0,0,0,0,0,0c0,0,0,0,0,0c0,0,0,0,0,0c0,0,0,0,0,0c0,0,0,0,0,0c0,0,0,0,0,0
		c0,0,0,0,0,0c0,0,0,0,0,0c0,0,0,0,0,0c0,0,0,0,0,0c0,0,0,0,0,0l0,0c-0.1,0-0.2-0.1-0.2-0.1C361.3,3,361.2,3,361,3L361,3z
		 M356.4,1.5c-0.4,0-0.8,0.3-1,0.7c-0.1,0.5,0.2,1.1,0.7,1.2c0.3,0.1,0.6,0.2,0.9,0.3c0.1,0,0.2,0,0.3,0c0.4,0,0.8-0.3,1-0.7
		c0.2-0.5-0.1-1.1-0.7-1.2c-0.2-0.1-0.4-0.1-0.6-0.2c0,0,0,0,0,0c0,0,0,0,0,0c0,0,0,0,0,0c0,0,0,0,0,0c0,0,0,0,0,0c0,0,0,0,0,0
		c0,0,0,0,0,0c0,0,0,0,0,0c0,0,0,0,0,0c0,0,0,0,0,0c0,0,0,0,0,0l0,0c-0.1,0-0.2-0.1-0.3-0.1C356.6,1.5,356.5,1.5,356.4,1.5
		L356.4,1.5z M351.6,0.5c-0.5,0-0.9,0.4-1,0.9c-0.1,0.5,0.3,1.1,0.8,1.1c0.3,0,0.6,0.1,0.9,0.2c0.1,0,0.1,0,0.2,0
		c0.5,0,0.9-0.3,1-0.8c0.1-0.5-0.3-1.1-0.8-1.2c-0.1,0-0.1,0-0.2,0c0,0,0,0,0,0c0,0,0,0,0,0c0,0,0,0,0,0c0,0,0,0,0,0c0,0,0,0,0,0
		c0,0,0,0,0,0c0,0,0,0,0,0c0,0,0,0,0,0c0,0,0,0,0,0c0,0,0,0,0,0c0,0,0,0,0,0l0,0c0,0,0,0,0,0c0,0,0,0,0,0c0,0,0,0,0,0c0,0,0,0,0,0
		c0,0,0,0,0,0l0,0c0,0,0,0,0,0l0,0c-0.2,0-0.4-0.1-0.6-0.1C351.7,0.5,351.7,0.5,351.6,0.5L351.6,0.5z"/>
</g>
<path class="st0" d="M348.8,29.1c7.4,1.8,12.5,8.4,12.5,15.9c0,9-7.4,16.4-16.4,16.4S328.6,54,328.6,45c0-9,7.4-16.4,16.4-16.4
	c0.5,0,0.9,0.4,0.9,0.9v1.8c0,0.5-0.4,0.9-0.9,0.9c-0.5,0-0.9-0.4-0.9-0.9v-0.9c-7.3,0.5-13.2,6.4-13.6,13.6h0.9
	c0.5,0,0.9,0.4,0.9,0.9c0,0.5-0.4,0.9-0.9,0.9h-0.8c0.5,7.3,6.3,13.1,13.5,13.5v-0.8c0-0.5,0.4-0.9,0.9-0.9s0.9,0.4,0.9,0.9v0.8
	c7.3-0.5,13.1-6.3,13.5-13.5h-0.8c-0.5,0-0.9-0.4-0.9-0.9c0-0.5,0.4-0.9,0.9-0.9h0.9c-0.5-6.4-4.9-11.7-11.2-13.3
	c-0.5-0.1-0.7-0.6-0.6-1.1C347.8,29.3,348.4,29,348.8,29.1z M344.5,41.7c-0.3-0.2-0.5-0.5-0.5-0.8v-4.1c0-0.5,0.4-0.9,0.9-0.9
	s0.9,0.4,0.9,0.9v2.6l6.8-3.5c0.4-0.2,0.8-0.1,1.1,0.2c0.3,0.3,0.4,0.7,0.2,1.1l-3.5,6.9h2.6c0.5,0,0.9,0.4,0.9,0.9
	s-0.4,0.9-0.9,0.9h-3.6l-1.1,2.2c-0.1,0.2-0.4,0.4-0.6,0.5c-0.1,0-0.1,0-0.2,0c-0.3,0-0.5-0.1-0.6-0.3l-1.6-1.6
	c-0.2,0.1-0.3,0.1-0.5,0.1c-1,0-1.8-0.8-1.8-1.8c0-0.2,0.1-0.3,0.1-0.5l-0.7-0.7l-3.6,7.4l5.7-2.9c0.3-0.2,0.6-0.2,0.9,0
	c0.3,0.2,0.5,0.5,0.5,0.8v4.1c0,0.5-0.4,0.9-0.9,0.9c-0.5,0-0.9-0.4-0.9-0.9v-2.5l-6.9,3.5c-0.1,0.1-0.2,0.1-0.4,0.1
	c-0.3,0-0.5-0.1-0.6-0.3c-0.3-0.4-0.4-0.7-0.2-1.1l3.5-6.9h-2.6c-0.5,0-0.9-0.4-0.9-0.9c0-0.5,0.4-0.9,0.9-0.9h3.5l1.2-2.3
	c0.1-0.2,0.4-0.4,0.6-0.5c0.4,0,0.6,0.1,0.8,0.3l1.6,1.6c0.2-0.1,0.3-0.1,0.5-0.1c1,0,1.8,0.8,1.8,1.8c0,0.2-0.1,0.3-0.1,0.5
	l0.7,0.7l3.6-7.4l-5.7,2.9C345.2,41.9,344.8,41.9,344.5,41.7z M348.8,64.6c-0.5,0.1-1-0.3-1.1-0.7c-0.1-0.5,0.3-1,0.7-1.1
	c8.5-1.6,14.7-9.1,14.7-17.8c0-10-8.2-18.2-18.2-18.2S326.8,35,326.8,45S335,63.2,345,63.2c0.5,0,0.9,0.4,0.9,0.9
	c0,0.5-0.4,0.9-0.9,0.9c-11,0-20-9-20-20s9-20,20-20s20,9,20,20C365,54.5,358.2,62.8,348.8,64.6z"/>
<path class="st0" d="M220.4,45.9c-0.7,0.2-5.9-0.6-10.5,2.1c-6.9,4-7.1,12.4-7,14.9c0.1,1.4-1.8,1.3-1.9,0.2c0-0.4,0.3-5-1.8-9.4
	c-0.4-0.7-0.8-1.5-1.3-2.1c-0.2-0.3-0.2-0.8,0.2-1c0.3-0.2,0.8-0.2,1.1,0.2c1.3,1.8,2.2,4,2.7,6.2c1.4-6,5.2-10.3,11.4-11.9
	c-6.2-1.5-10-5.9-11.4-11.9c-1.4,6-5.2,10.4-11.4,11.9c2.3,0.6,4.4,1.6,6.1,3c0.3,0.3,0.4,0.7,0.1,1.1c-0.3,0.3-0.7,0.4-1.1,0.1
	c-5-4.1-11.4-3-12.2-3.2c-1-0.2-1-1.6,0-1.8c0.6-0.1,3.9,0.4,7.6-0.8c6.5-2,9.6-7.7,9.9-14.4V27c0-0.4,0.3-0.8,0.8-0.9
	c0.4-0.1,0.9,0.2,1,0.7c0.1,0.5-0.5,4.8,1.8,9.5c4.3,9,14.3,7.6,15.7,7.7C221.4,44.2,221.5,45.6,220.4,45.9z M185.8,33.4
	c-0.4,0-2.4-0.2-4.2,0.7c-0.4,0.2-0.8,0.1-1-0.3c-0.2-0.4-0.1-0.8,0.3-1c0.2-0.1,0.3-0.2,0.5-0.2c-1.7-0.7-2.9-2-3.5-3.7
	c-0.7,1.6-1.9,2.9-3.5,3.7c1.7,0.7,2.8,2,3.5,3.7c0.1-0.2,0.2-0.4,0.3-0.6c0.2-0.4,0.6-0.5,1-0.3c0.4,0.2,0.5,0.6,0.3,1
	c-1,1.9-0.8,3.8-0.8,4.1c-0.1,0.4-0.4,0.7-0.8,0.7c-0.4,0-0.7-0.2-0.8-0.6c-0.1-0.2,0-0.3,0-1.1c-0.1-1.4-0.5-3.8-2.6-5.1
	c-2-1.3-4.2-0.9-4.6-1c-0.9-0.2-0.8-1.5,0.1-1.6c0.4,0,2.6,0.3,4.5-0.9c3-1.9,2.6-5.9,2.6-6.2c0.1-0.5,0.6-0.7,1-0.6
	c0.5,0.1,0.7,0.5,0.7,0.9c0,0.2-0.1,2.1,0.8,3.8c1.8,3.6,5.9,2.9,6.4,3C186.8,31.9,186.7,33.2,185.8,33.4z M178.6,58.7
	c0.4-0.1,2.6,0.3,4.6-0.9c3-1.9,2.6-5.9,2.6-6.2c0.1-0.5,0.6-0.7,1-0.6c0.4,0.1,0.7,0.5,0.7,0.9c-0.1,2.2,0.8,3.9,0.8,3.9
	c0.2,0.4,0,0.8-0.3,1c-0.4,0.2-0.8,0-1-0.3c0,0-0.1-0.3-0.3-0.6c-0.7,1.6-1.9,2.9-3.5,3.7c1.7,0.7,2.8,2,3.5,3.7
	c0.7-1.8,2-3,3.5-3.7c-0.2-0.1-0.3-0.1-0.5-0.2c-0.4-0.2-0.5-0.6-0.3-1c0.2-0.4,0.7-0.5,1-0.3c1.9,1,3.8,0.7,4.2,0.7
	c0.9,0.2,0.9,1.5-0.1,1.6c-0.4,0-2.7-0.3-4.6,1c-2.9,1.9-2.4,5.8-2.5,6.1c-0.3,0.9-1.6,0.7-1.6-0.2c0-0.2,0.3-4.1-2.6-6
	c-1.9-1.2-4.2-0.9-4.6-1C177.7,60.1,177.7,58.9,178.6,58.7z"/>
<path class="st0" d="M65.8,50.8c-0.1,0.3-0.4,0.6-0.7,0.6c-0.1,0-0.1,0-0.2,0c-0.4-0.1-0.7-0.6-0.5-1c0.1-0.3,0.1-0.5,0.1-0.8
	c0-0.2,0-0.3,0-0.4c-0.1-0.4,0.2-0.8,0.6-0.9c0.4-0.1,0.8,0.2,0.9,0.6c0,0.2,0.1,0.5,0.1,0.7C66,50,65.9,50.4,65.8,50.8z M57.6,40.2
	l-5-5.7c-2.7-3.1-2.7-8.1,0-11.1c1.3-1.5,3.1-2.4,5-2.4s3.7,0.8,5,2.4c2.7,3.1,2.7,8.1,0,11.1L57.6,40.2z M61.5,24.4
	c-1-1.2-2.4-1.8-3.9-1.8s-2.8,0.6-3.9,1.8c-2.2,2.5-2.2,6.6,0,9.1l3.9,4.4l3.9-4.4C63.7,31,63.7,26.9,61.5,24.4z M57.8,32.7
	c-2.4,0-4.3-1.9-4.3-4.3s1.9-4.3,4.3-4.3c2.4,0,4.3,1.9,4.3,4.3S60.2,32.7,57.8,32.7z M57.8,25.7c-1.5,0-2.7,1.2-2.7,2.7
	s1.2,2.7,2.7,2.7c1.5,0,2.7-1.2,2.7-2.7S59.3,25.7,57.8,25.7z M49.5,46.8H48c-0.4,0-0.8-0.3-0.8-0.8c0-0.4,0.3-0.8,0.8-0.8h1.6
	c0.4,0,0.8,0.4,0.8,0.8C50.3,46.5,49.9,46.8,49.5,46.8z M48.8,39.8h-1.6c-0.4,0-0.8-0.4-0.8-0.8c0-0.4,0.3-0.8,0.8-0.8h1.6
	c0.4,0,0.8,0.3,0.8,0.8C49.6,39.4,49.3,39.8,48.8,39.8z M45,56.1c-0.1,0.4-0.4,0.6-0.8,0.6c0,0-0.1,0-0.1,0
	c-0.4-0.1-0.7-0.5-0.6-0.9c0.1-0.6,0.4-1.2,0.8-1.7c0.3-0.3,0.7-0.4,1.1-0.2c0.3,0.3,0.4,0.7,0.2,1.1C45.2,55.3,45.1,55.7,45,56.1z
	 M44.8,46.8h-0.3c-0.5,0-1-0.1-1.5-0.3c-0.4-0.2-0.6-0.6-0.5-1c0.2-0.4,0.6-0.6,1-0.5c0.3,0.1,0.6,0.2,1,0.2h0.3
	c0.4,0,0.8,0.4,0.8,0.8C45.6,46.5,45.3,46.8,44.8,46.8z M44.2,39.8c-0.4,0-0.8,0.2-1.1,0.4c-0.1,0.1-0.3,0.1-0.4,0.1
	c-0.3,0-0.5-0.1-0.7-0.4c-0.2-0.4-0.1-0.9,0.2-1.1c0.5-0.3,1.1-0.6,1.8-0.6c0.4,0,0.8,0.3,0.9,0.7C45,39.4,44.7,39.8,44.2,39.8z
	 M42,43.4c0.1,0.4-0.1,0.9-0.5,1c-0.1,0-0.2,0-0.2,0c-0.3,0-0.6-0.2-0.7-0.5c-0.1-0.4-0.2-0.9-0.2-1.3c0-0.2,0-0.4,0-0.5
	c0.1-0.4,0.4-0.7,0.9-0.7c0.4,0.1,0.7,0.4,0.7,0.9c0,0.1,0,0.2,0,0.4C41.8,42.8,41.9,43.1,42,43.4z M38.4,68h-1.6
	c-0.4,0-0.8-0.4-0.8-0.8c0-0.4,0.3-0.8,0.8-0.8h1.6c0.4,0,0.8,0.3,0.8,0.8C39.1,67.6,38.8,68,38.4,68z M29.3,66l-6.7-7.5
	c-3.6-4.1-3.6-10.7,0-14.8c1.8-2,4.1-3.1,6.7-3.1c2.5,0,4.9,1.1,6.7,3.1c3.6,4.1,3.6,10.7,0,14.8L29.3,66z M34.8,44.7
	c-1.5-1.7-3.4-2.6-5.5-2.6c-2.1,0-4,0.9-5.5,2.6c-3.1,3.5-3.1,9.2,0,12.7l5.5,6.2l5.5-6.2C37.9,54,37.9,48.2,34.8,44.7z M29.3,54.7
	c-2.6,0-4.7-2.1-4.7-4.7c0-2.6,2.1-4.7,4.7-4.7S34,47.4,34,50C34,52.6,31.9,54.7,29.3,54.7z M29.3,46.8c-1.7,0-3.1,1.4-3.1,3.1
	c0,1.7,1.4,3.1,3.1,3.1c1.7,0,3.1-1.4,3.1-3.1C32.5,48.3,31.1,46.8,29.3,46.8z M32.1,66.4h1.6c0.4,0,0.8,0.3,0.8,0.8
	c0,0.4-0.3,0.8-0.8,0.8h-1.6c-0.4,0-0.8-0.4-0.8-0.8C31.3,66.8,31.7,66.4,32.1,66.4z M41.5,66.4H43c0.4,0,0.8,0.3,0.8,0.8
	c0,0.4-0.3,0.8-0.8,0.8h-1.6c-0.4,0-0.8-0.4-0.8-0.8C40.7,66.8,41.1,66.4,41.5,66.4z M45.6,58.4c0.3,0.3,0.6,0.6,1,0.7
	c0.4,0.2,0.6,0.6,0.4,1c-0.1,0.3-0.4,0.5-0.7,0.5c-0.1,0-0.2,0-0.3-0.1c-0.6-0.3-1.1-0.7-1.5-1.1c-0.3-0.3-0.2-0.8,0.1-1.1
	C44.8,58,45.3,58.1,45.6,58.4z M46.2,66.4h1.6c0.4,0,0.8,0.3,0.8,0.8c0,0.4-0.3,0.8-0.8,0.8h-1.6c-0.4,0-0.8-0.4-0.8-0.8
	C45.4,66.8,45.7,66.4,46.2,66.4z M47.5,53.9C47.5,53.9,47.5,53.9,47.5,53.9c-0.4,0-0.8-0.3-0.8-0.8c0-0.4,0.3-0.8,0.7-0.8
	c0.1,0,0.1,0,0.2,0h1.4c0.4,0,0.8,0.3,0.8,0.8c0,0.4-0.3,0.8-0.8,0.8L47.5,53.9z M49.3,59.4h1.6c0.4,0,0.8,0.4,0.8,0.8
	s-0.3,0.8-0.8,0.8h-1.6c-0.4,0-0.8-0.4-0.8-0.8S48.9,59.4,49.3,59.4z M50.8,66.4h1.6c0.4,0,0.8,0.3,0.8,0.8c0,0.4-0.3,0.8-0.8,0.8
	h-1.6c-0.4,0-0.8-0.4-0.8-0.8C50.1,66.8,50.4,66.4,50.8,66.4z M55,46.1c0,0.4-0.4,0.8-0.8,0.8h-1.6c-0.4,0-0.8-0.3-0.8-0.8
	c0-0.4,0.3-0.8,0.8-0.8h1.6C54.6,45.3,55,45.6,55,46.1z M52.2,52.3h1.6c0.4,0,0.8,0.3,0.8,0.8c0,0.4-0.3,0.8-0.8,0.8h-1.6
	c-0.4,0-0.8-0.3-0.8-0.8C51.4,52.7,51.8,52.3,52.2,52.3z M52,38.2h1.6c0.4,0,0.8,0.3,0.8,0.8c0,0.4-0.3,0.8-0.8,0.8H52
	c-0.4,0-0.8-0.4-0.8-0.8C51.2,38.6,51.5,38.2,52,38.2z M54,59.4h1.6c0.4,0,0.8,0.4,0.8,0.8s-0.3,0.8-0.8,0.8H54
	c-0.4,0-0.8-0.4-0.8-0.8S53.5,59.4,54,59.4z M55.5,66.4H57c0.4,0,0.8,0.3,0.8,0.8S57.5,68,57.1,68v-0.8l0,0.8l-1.5,0
	c-0.4,0-0.8-0.4-0.8-0.8C54.7,66.8,55.1,66.4,55.5,66.4z M58.4,52.3c0.4,0,0.8,0.3,0.8,0.8c0,0.4-0.3,0.8-0.8,0.8h-1.6
	c-0.4,0-0.8-0.3-0.8-0.8c0-0.4,0.3-0.8,0.8-0.8H58.4z M57.3,45.3h1.6c0.4,0,0.8,0.4,0.8,0.8c0,0.4-0.3,0.8-0.8,0.8h-1.6
	c-0.4,0-0.8-0.3-0.8-0.8C56.5,45.6,56.9,45.3,57.3,45.3z M57.9,60.2c0.2-0.4,0.7-0.5,1-0.4c0.6,0.3,1.1,0.7,1.5,1.2
	c0.3,0.3,0.2,0.8-0.1,1.1c-0.1,0.1-0.3,0.2-0.5,0.2c-0.2,0-0.5-0.1-0.6-0.3c-0.2-0.3-0.6-0.6-0.9-0.8C57.9,61,57.7,60.6,57.9,60.2z
	 M59.7,64.3c0.1-0.4,0.5-0.7,0.9-0.6c0.4,0.1,0.7,0.5,0.6,0.9c-0.1,0.6-0.4,1.2-0.8,1.7c-0.2,0.2-0.4,0.3-0.6,0.3
	c-0.2,0-0.3-0.1-0.5-0.2c-0.3-0.3-0.4-0.8-0.1-1.1C59.4,65.1,59.6,64.7,59.7,64.3z M60.8,53.1c0-0.4,0.3-0.8,0.8-0.8h0.2
	c0.4,0,0.7-0.1,1.1-0.2c0.4-0.2,0.9,0,1,0.4c0.2,0.4,0,0.9-0.4,1c-0.5,0.2-1.1,0.3-1.7,0.3h-0.2C61.1,53.9,60.8,53.5,60.8,53.1z
	 M63.1,47.2c-0.4-0.2-0.7-0.3-1.1-0.4c-0.4,0-0.8-0.4-0.7-0.8c0-0.4,0.4-0.8,0.8-0.7c0.6,0.1,1.3,0.2,1.8,0.6
	c0.4,0.2,0.5,0.7,0.3,1.1c-0.1,0.3-0.4,0.4-0.7,0.4C63.3,47.3,63.2,47.3,63.1,47.2z"/>
<path class="st0" d="M294.7,41.7c-2.1-1.1-4.3-1.8-6.5-2.7c-0.3-0.1-0.6,0.2-0.6,0.4c0.1,1.4,0,2.9,0.5,4.2l0,0
	c-4.4,5.2-13,5.6-19.3,5.9c-7.2,0.3-14.8-0.4-21.1-4.2c-0.7-0.6-1.5-1.2-2.1-1.8c-0.3-0.3-0.7,0.1-0.5,0.5c0.1,0.1,0.2,0.2,0.4,0.4
	c-0.2,0.2-0.2,0.4,0,0.6c0.5,0.4,1,0.7,1.5,1.1c11,10.5,31.7,10.4,42.6,0.6c0.3,1,0.6,2,0.9,3c0.1,0.5,0.7,0.4,0.9,0.1
	c1.7-2.2,2.5-5,3.5-7.5C295,42.2,295,41.9,294.7,41.7z M291.1,48.6c-0.3-0.8-0.6-1.4-0.9-2.2c-0.1-0.3-0.4-0.3-0.5-0.2
	c-0.1-0.1-0.3-0.1-0.4,0C278.4,53.9,264.5,55,253,49c5.2,1.6,11,1.8,16.3,1.6c3.9-0.2,7.6-0.6,11.3-1.6c2.9-0.8,6.1-2.1,7.6-4.9l0,0
	c0.2,0.4,0.8,0.1,0.7-0.3c-0.2-1.2-0.3-2.3-0.3-3.5c1.8,0.7,3.6,1.3,5.2,2.2C293,44.5,292.3,46.7,291.1,48.6z"/>
<path class="st0" d="M144.7,48.3c-2.1,1.1-4.3,1.8-6.5,2.7c-0.3,0.1-0.6-0.2-0.6-0.4c0.1-1.4,0-2.9,0.5-4.2l0,0
	c-4.4-5.2-13-5.6-19.3-5.9c-7.2-0.3-14.8,0.4-21.1,4.1c-0.7,0.6-1.5,1.2-2.1,1.8c-0.3,0.3-0.7-0.1-0.5-0.5c0.1-0.1,0.2-0.2,0.4-0.4
	c-0.2-0.2-0.2-0.4,0-0.6c0.5-0.4,1-0.7,1.5-1.1c11-10.5,31.7-10.3,42.6-0.6c0.3-1,0.6-2,0.9-3c0.1-0.5,0.7-0.4,0.9-0.1
	c1.7,2.2,2.5,5,3.5,7.5C145,47.8,145,48.1,144.7,48.3z M141.1,41.4c-0.3,0.8-0.6,1.4-0.9,2.2c-0.1,0.3-0.4,0.3-0.5,0.2
	c-0.1,0.1-0.3,0.1-0.4,0c-10.8-7.8-24.7-8.9-36.2-2.9c5.2-1.6,11-1.8,16.3-1.6c3.9,0.2,7.6,0.6,11.3,1.6c2.9,0.8,6.1,2.1,7.6,4.9
	l0,0c0.2-0.4,0.8-0.1,0.7,0.3c-0.2,1.2-0.3,2.3-0.3,3.5c1.8-0.7,3.6-1.3,5.2-2.2C143,45.5,142.3,43.3,141.1,41.4z"/>
</svg>
