<svg xmlns="http://www.w3.org/2000/svg" viewBox="0 0 55 41" width="55" height="41">
	<style>
		tspan { white-space:pre }
		.shp0 { fill: #7f7f7f } 
	</style>
	<g id="Layer">
		<path id="Layer" class="shp0" d="M54.6,12.1c-7.2,-7.2 -16.9,-11.2 -27.1,-11.2c-10.2,0 -19.9,4 -27.2,11.2c-0.4,0.4 -0.4,1 0,1.4c0.4,0.4 1,0.4 1.4,0c6.9,-6.9 16,-10.6 25.7,-10.6c9.7,0 18.9,3.8 25.7,10.6c0.2,0.2 0.5,0.3 0.7,0.3c0.2,0 0.5,-0.1 0.7,-0.3c0.5,-0.4 0.5,-1 0.1,-1.4z" />
		<path id="Layer" class="shp0" d="M6.2,18c-0.4,0.4 -0.4,1 0,1.4c0.2,0.2 0.5,0.3 0.7,0.3c0.2,0 0.5,-0.1 0.7,-0.3c11,-11 28.8,-11 39.7,0c0.4,0.4 1,0.4 1.4,0c0.4,-0.4 0.4,-1 0,-1.4c-11.7,-11.7 -30.8,-11.7 -42.5,0z" />
		<path id="Layer" class="shp0" d="M27.5,17.5c-5.8,0 -11.3,2.3 -15.4,6.4c-0.4,0.4 -0.4,1 0,1.4c0.4,0.4 1,0.4 1.4,0c3.7,-3.7 8.7,-5.8 14,-5.8c5.3,0 10.3,2.1 14,5.8c0.2,0.2 0.5,0.3 0.7,0.3c0.2,0 0.5,-0.1 0.7,-0.3c0.4,-0.4 0.4,-1 0,-1.4c-4.1,-4.1 -9.6,-6.4 -15.4,-6.4z" />
		<path id="Layer" class="shp0" d="M34.1,33.5c0,3.7 -3,6.6 -6.6,6.6c-3.7,0 -6.6,-2.9 -6.6,-6.6c0,-3.7 3,-6.6 6.6,-6.6c3.6,0 6.6,2.9 6.6,6.6zM32.1,33.4c0,-2.6 -2,-4.6 -4.6,-4.6c-2.6,0 -4.6,2 -4.6,4.6c0,2.6 2.1,4.6 4.6,4.6c2.5,0 4.6,-2 4.6,-4.6z" />
	</g>
</svg>