<svg xmlns="http://www.w3.org/2000/svg" viewBox="0 0 58 58" width="58" height="58">
	<style>
		tspan { white-space:pre }
		.shp0 { fill: #7f7f7f } 
	</style>
	<path id="Layer" class="shp0" d="M50.68,48.23c-5.2,5.78 -12.49,9.47 -20.68,9.77c-0.1,0 -0.9,0 -1,0c-0.1,0 -0.9,0 -1,0c-8.2,-0.3 -15.5,-4 -20.6,-9.7c-0.1,-0.1 -0.1,-0.1 -0.1,-0.1c-4.5,-5.1 -7.3,-11.8 -7.3,-19.2c0,-7.7 3,-14.6 7.9,-19.8c5.1,-5.4 12.2,-8.9 20.1,-9.2c0.1,0 0.9,0 1,0c0.1,0 0.9,0 1,0c7.9,0.3 15,3.8 20.1,9.2c4.9,5.2 7.9,12.1 7.9,19.8c0,7.4 -2.8,14.1 -7.3,19.2c0,0.09 -0.08,0.1 -0.02,0.03zM50.7,48.2c-0.01,0.01 -0.02,0.02 -0.02,0.03c0.01,-0.01 0.02,-0.02 0.02,-0.03zM8.3,46.3c2.5,-1.7 5.3,-3.1 8.1,-4.1c-1.5,-3.8 -2.3,-8 -2.4,-12.2h-12c0.3,6.2 2.6,11.9 6.3,16.3zM2,28h12c0.1,-4.6 1.1,-9 2.8,-13.1c-2.8,-1 -5.4,-2.3 -7.9,-3.9c-4.1,4.6 -6.6,10.5 -6.9,17zM49.1,11c-2.5,1.6 -5.1,2.9 -7.9,3.9c1.7,4.1 2.7,8.5 2.8,13.1h12c-0.3,-6.5 -2.8,-12.4 -6.9,-17zM28,2.7c-3.6,3.1 -6.5,6.8 -8.5,11c2.8,0.8 5.6,1.2 8.5,1.3zM18.7,15.5c-1.7,3.9 -2.6,8.2 -2.7,12.5h12v-11c-3.2,-0.1 -6.3,-0.6 -9.3,-1.5zM30,28.1h12c-0.2,-4.4 -1.1,-8.6 -2.7,-12.5c-3,0.8 -6.1,1.3 -9.3,1.4zM38.5,13.6c-2.1,-4.1 -4.9,-7.9 -8.5,-11v12.4c2.9,-0.1 5.7,-0.5 8.5,-1.4zM47.7,9.6c-4.1,-3.9 -9.3,-6.6 -15.2,-7.3c3.3,3.1 6,6.8 7.9,10.8c2.6,-0.9 5,-2.1 7.3,-3.5zM25.5,2.3c-5.9,0.7 -11.1,3.4 -15.2,7.3c2.3,1.4 4.8,2.6 7.3,3.5c1.9,-4.1 4.6,-7.7 7.9,-10.8zM18.3,41.5c3.2,-0.9 6.4,-1.4 9.7,-1.5v-10h-12c0.1,4 0.9,7.9 2.3,11.5zM19.1,43.4c2.1,4.5 5.1,8.6 8.9,11.9v-13.3c-3,0.1 -6,0.6 -8.9,1.4zM38.9,43.4c-2.9,-0.8 -5.9,-1.3 -8.9,-1.4v13.4c3.8,-3.4 6.8,-7.5 8.9,-12zM39.7,41.6c1.4,-3.7 2.2,-7.6 2.3,-11.6h-12v10c3.3,0.1 6.5,0.6 9.7,1.6zM41.6,42.2c2.8,1 5.6,2.4 8.1,4.1c3.7,-4.4 6.1,-10.1 6.3,-16.3h-12c-0.1,4.2 -1,8.4 -2.4,12.2zM25.5,55.7c-3.6,-3.4 -6.4,-7.3 -8.3,-11.7c-2.6,1 -5.1,2.2 -7.5,3.8c4.1,4.3 9.6,7.2 15.8,7.9zM48.3,47.9c-2.3,-1.6 -4.9,-2.9 -7.5,-3.8c-2,4.4 -4.8,8.3 -8.3,11.7c6.2,-0.8 11.7,-3.7 15.8,-7.9z" />
</svg>